# 3ds Max Wavefront OBJ Exporter v0.97b - (c)2007 guruware
# File Created: 21.01.2021 10:18:34

#
# object Armleuning_bank
#

v  -63.0155 13.1828 -29.2337
v  -63.0155 13.1828 -33.8344
v  -62.0301 13.1828 -33.8344
v  -62.0301 13.1828 -29.2337
v  -61.0448 13.1828 -33.8344
v  -61.0448 13.1828 -29.2337
v  -60.0595 13.1828 -33.8344
v  -60.0595 13.1828 -29.2337
v  -59.0742 13.1828 -33.8344
v  -59.0742 13.1828 -29.2337
v  -63.0155 13.1828 -38.4352
v  -62.0301 13.1828 -38.4352
v  -61.0448 13.1828 -38.4352
v  -60.0595 13.1828 -38.4352
v  -59.0742 13.1828 -38.4352
v  -63.0155 13.1828 -43.0359
v  -62.0301 13.1828 -43.0359
v  -61.0448 13.1828 -43.0359
v  -60.0595 13.1828 -43.0359
v  -59.0742 13.1828 -43.0359
v  -63.0155 13.1828 -47.6366
v  -62.0301 13.1828 -47.6366
v  -61.0448 13.1828 -47.6366
v  -60.0595 13.1828 -47.6366
v  -59.0742 13.1828 -47.6366
v  -63.0155 13.8316 -29.2337
v  -62.0303 14.0693 -29.2909
v  -62.0303 14.0693 -33.8916
v  -63.0155 13.8316 -33.8344
v  -61.0450 14.1264 -29.3047
v  -61.0450 14.1264 -33.9054
v  -60.0596 14.0693 -29.2909
v  -60.0596 14.0693 -33.8916
v  -59.0742 13.8316 -29.2337
v  -59.0742 13.8316 -33.8344
v  -62.0303 14.0693 -38.4923
v  -63.0155 13.8316 -38.4352
v  -61.0450 14.1264 -38.5061
v  -60.0596 14.0693 -38.4923
v  -59.0742 13.8316 -38.4352
v  -62.0303 14.0693 -43.0930
v  -63.0155 13.8316 -43.0359
v  -61.0450 14.1264 -43.1068
v  -60.0596 14.0693 -43.0930
v  -59.0742 13.8316 -43.0359
v  -62.0303 14.0693 -47.6938
v  -63.0155 13.8316 -47.6366
v  -61.0450 14.1264 -47.7075
v  -60.0596 14.0693 -47.6938
v  -59.0742 13.8316 -47.6366
# 50 vertices

vn -0.5774 -0.5774 0.5774
vn -0.7071 -0.7071 -0.0000
vn 0.0000 -1.0000 -0.0000
vn 0.0000 -0.6916 0.7223
vn 0.0000 -0.6890 0.7248
vn 0.7071 -0.7071 -0.0000
vn 0.5774 -0.5774 0.5774
vn -0.5774 -0.5774 -0.5774
vn 0.0000 -0.7223 -0.6916
vn 0.0000 -0.7248 -0.6890
vn 0.5774 -0.5774 -0.5774
vn -0.6325 0.4733 0.6131
vn -0.1257 0.7371 0.6640
vn -0.1918 0.9814 0.0000
vn -0.8076 0.5898 -0.0000
vn -0.0000 0.7427 0.6697
vn -0.0000 1.0000 0.0000
vn 0.1257 0.7371 0.6640
vn 0.1917 0.9814 0.0000
vn 0.6325 0.4734 0.6131
vn 0.8076 0.5898 -0.0000
vn -0.1918 0.9814 -0.0000
vn 0.1917 0.9814 -0.0000
vn -0.0000 1.0000 -0.0000
vn -0.1557 0.6981 -0.6988
vn -0.6646 0.4745 -0.5772
vn -0.0000 0.7039 -0.7103
vn 0.1557 0.6981 -0.6988
vn 0.6646 0.4746 -0.5772
# 29 vertex normals

vt 1.0000 0.0000 0.0000
vt 1.0000 0.2500 0.0000
vt 0.7500 0.2500 0.0000
vt 0.7500 0.0000 0.0000
vt 0.5000 0.2500 0.0000
vt 0.5000 0.0000 0.0000
vt 0.2500 0.2500 0.0000
vt 0.2500 0.0000 0.0000
vt 0.0000 0.2500 0.0000
vt 0.0000 0.0000 0.0000
vt 1.0000 0.5000 0.0000
vt 0.7500 0.5000 0.0000
vt 0.5000 0.5000 0.0000
vt 0.2500 0.5000 0.0000
vt 0.0000 0.5000 0.0000
vt 1.0000 0.7500 0.0000
vt 0.7500 0.7500 0.0000
vt 0.5000 0.7500 0.0000
vt 0.2500 0.7500 0.0000
vt 0.0000 0.7500 0.0000
vt 1.0000 1.0000 0.0000
vt 0.7500 1.0000 0.0000
vt 0.5000 1.0000 0.0000
vt 0.2500 1.0000 0.0000
vt 0.0000 1.0000 0.0000
# 25 texture coords

o Armleuning_bank
g Armleuning_bank
s 2
f 1/1/1 2/2/2 3/3/3 4/4/4 
f 4/4/4 3/3/3 5/5/3 6/6/5 
f 6/6/5 5/5/3 7/7/3 8/8/4 
f 8/8/4 7/7/3 9/9/6 10/10/7 
f 2/2/2 11/11/2 12/12/3 3/3/3 
f 3/3/3 12/12/3 13/13/3 5/5/3 
f 5/5/3 13/13/3 14/14/3 7/7/3 
f 7/7/3 14/14/3 15/15/6 9/9/6 
f 11/11/2 16/16/2 17/17/3 12/12/3 
f 12/12/3 17/17/3 18/18/3 13/13/3 
f 13/13/3 18/18/3 19/19/3 14/14/3 
f 14/14/3 19/19/3 20/20/6 15/15/6 
f 16/16/2 21/21/8 22/22/9 17/17/3 
f 17/17/3 22/22/9 23/23/10 18/18/3 
f 18/18/3 23/23/10 24/24/9 19/19/3 
f 19/19/3 24/24/9 25/25/11 20/20/6 
s 4
f 26/10/12 27/8/13 28/7/14 29/9/15 
f 27/8/13 30/6/16 31/5/17 28/7/14 
f 30/6/16 32/4/18 33/3/19 31/5/17 
f 32/4/18 34/1/20 35/2/21 33/3/19 
f 29/9/15 28/7/14 36/14/22 37/15/15 
f 28/7/14 31/5/17 38/13/17 36/14/22 
f 31/5/17 33/3/19 39/12/23 38/13/17 
f 33/3/19 35/2/21 40/11/21 39/12/23 
f 37/15/15 36/14/22 41/19/22 42/20/15 
f 36/14/22 38/13/17 43/18/24 41/19/22 
f 38/13/17 39/12/23 44/17/19 43/18/24 
f 39/12/23 40/11/21 45/16/21 44/17/19 
f 42/20/15 41/19/22 46/24/25 47/25/26 
f 41/19/22 43/18/24 48/23/27 46/24/25 
f 43/18/24 44/17/19 49/22/28 48/23/27 
f 44/17/19 45/16/21 50/21/29 49/22/28 
s 8
f 1/10/1 4/8/4 27/24/13 26/25/12 
f 4/8/4 6/6/5 30/23/16 27/24/13 
f 6/6/5 8/4/4 32/22/18 30/23/16 
f 8/4/4 10/1/7 34/21/20 32/22/18 
s 16
f 10/10/7 9/8/6 35/24/21 34/25/20 
f 9/8/6 15/6/6 40/23/21 35/24/21 
f 15/6/6 20/4/6 45/22/21 40/23/21 
f 20/4/6 25/1/11 50/21/29 45/22/21 
s 32
f 25/10/11 24/8/9 49/24/28 50/25/29 
f 24/8/9 23/6/10 48/23/27 49/24/28 
f 23/6/10 22/4/9 46/22/25 48/23/27 
f 22/4/9 21/1/8 47/21/26 46/22/25 
s 64
f 21/10/8 16/8/2 42/24/15 47/25/26 
f 16/8/2 11/6/2 37/23/15 42/24/15 
f 11/6/2 2/4/2 29/22/15 37/23/15 
f 2/4/2 1/1/1 26/21/12 29/22/15 
# 48 polygons

