# 3ds Max Wavefront OBJ Exporter v0.97b - (c)2007 guruware
# File Created: 21.01.2021 10:18:23

#
# object Sofa_stoel
#

v  -87.3660 4.1041 -45.3453
v  -69.3635 3.9641 -45.4099
v  -69.4049 3.9646 -33.2990
v  -87.4074 4.1047 -33.2344
v  -88.4459 6.2217 -29.1227
v  -68.4635 6.0329 -29.1943
v  -68.3999 6.0321 -47.7724
v  -88.3823 6.2209 -47.7008
v  -88.4264 4.1296 -29.1229
v  -68.4440 3.9408 -29.1945
v  -67.8065 3.9250 -29.1968
v  -67.7998 3.9250 -31.1550
v  -67.7429 3.9243 -47.7749
v  -67.7624 6.0164 -47.7747
v  -67.8259 6.0172 -29.1966
v  -68.3719 3.9399 -50.2878
v  -88.3543 4.1287 -50.2161
v  -88.3737 6.2208 -50.2160
v  -68.3913 6.0320 -50.2876
v  -88.9512 4.1433 -47.7422
v  -89.0081 4.1440 -31.1224
v  -89.0149 4.1441 -29.1208
v  -89.0344 6.2362 -29.1206
v  -88.9708 6.2354 -47.6987
v  -68.3805 3.9400 -47.7726
v  -69.3554 3.9640 -47.7691
v  -87.3579 4.1040 -47.7046
v  -88.3629 4.1288 -47.7010
v  -88.5174 20.7566 -47.6997
v  -68.5350 20.5678 -47.7713
v  -68.5265 20.5677 -50.2865
v  -88.5088 20.7565 -50.2149
v  -88.4197 4.1295 -31.0811
v  -88.3709 4.1289 -45.3417
v  -88.4124 4.1294 -33.2308
v  -88.5104 13.1688 -29.1222
v  -88.4469 13.1680 -47.7003
v  -89.0354 13.1825 -47.6981
v  -89.0990 13.1833 -29.1200
v  -88.4358 11.9703 -47.7003
v  -88.4993 11.9710 -29.1222
v  -89.0243 11.9848 -47.6982
v  -89.0878 11.9855 -29.1201
v  -90.0542 12.0101 -47.6945
v  -90.1177 12.0109 -29.1165
v  -90.1289 13.2087 -29.1164
v  -90.0653 13.2079 -47.6945
v  -68.4373 3.9407 -31.1527
v  -68.4300 3.9406 -33.3024
v  -68.3886 3.9401 -45.4134
v  -68.4601 12.5001 -47.7719
v  -68.5236 12.5009 -29.1938
v  -67.8860 12.4852 -29.1961
v  -67.8225 12.4844 -47.7742
v  -68.5125 11.3031 -29.1939
v  -68.4489 11.3023 -47.7720
v  -67.8749 11.2874 -29.1962
v  -67.8114 11.2866 -47.7743
v  -66.8940 11.2632 -29.1997
v  -66.8305 11.2624 -47.7778
v  -66.8416 12.4602 -47.7777
v  -66.9052 12.4610 -29.1996
v  -87.4147 4.1047 -31.0847
v  -69.4123 3.9647 -31.1493
v  -69.1660 1.2051 -47.3701
v  -68.5215 1.1892 -47.3724
v  -68.5268 1.1892 -45.8128
v  -69.1713 1.2051 -45.8105
v  -87.5093 1.3534 -45.7448
v  -88.1736 1.3698 -45.7424
v  -88.1683 1.3697 -47.3019
v  -87.5040 1.3534 -47.3043
v  -87.5582 1.3540 -31.4487
v  -88.2225 1.3704 -31.4463
v  -88.2177 1.3704 -32.8673
v  -87.5534 1.3540 -32.8697
v  -69.2153 1.2057 -32.9354
v  -68.5709 1.1898 -32.9377
v  -68.5757 1.1899 -31.5167
v  -69.2202 1.2057 -31.5144
# 80 vertices

vn 0.2519 -0.9253 0.2836
vn -0.2731 -0.9240 0.2676
vn -0.2784 -0.9214 -0.2712
vn 0.2525 -0.9255 -0.2823
vn 0.3076 0.3029 0.9020
vn -0.2954 0.3000 0.9070
vn 0.5771 0.5764 -0.5785
vn -0.5777 0.5782 -0.5761
vn -0.0096 -0.7087 0.7054
vn -0.0095 -0.7053 0.7088
vn 0.5737 -0.5830 0.5753
vn 0.7017 -0.7125 0.0024
vn 0.5739 -0.5823 -0.5758
vn 0.7070 0.0066 -0.7072
vn 0.7071 0.0065 0.7070
vn 0.5779 -0.5775 -0.5766
vn -0.5767 -0.5772 -0.5781
vn -0.7071 -0.0065 -0.7070
vn -0.5592 -0.5629 -0.6086
vn -0.9993 -0.0381 -0.0034
vn -0.5810 -0.5716 0.5794
vn -0.7070 -0.0066 0.7072
vn -0.7094 0.0006 -0.7048
vn 0.5300 -0.6274 -0.5705
vn -0.4978 -0.6500 0.5742
vn 0.2674 -0.3605 -0.8936
vn -0.5405 -0.6404 -0.5457
vn -0.5779 0.5775 0.5766
vn 0.5767 0.5772 0.5781
vn -0.2849 -0.9205 0.2676
vn -0.2820 -0.9217 0.2665
vn -0.2873 -0.9190 -0.2701
vn 0.5808 0.5723 0.5789
vn 0.5809 0.5717 -0.5794
vn 0.0149 0.7070 -0.7071
vn 0.0200 0.7068 0.7071
vn 0.7071 0.0066 -0.7071
vn 0.7071 0.0065 0.7071
vn -0.3126 -0.3032 -0.9002
vn -0.3070 -0.3069 0.9009
vn -0.5808 -0.5723 -0.5789
vn -0.5809 -0.5717 0.5794
vn -0.5740 0.5822 0.5758
vn -0.5736 0.5831 -0.5754
vn 0.2459 -0.9262 0.2859
vn 0.2434 -0.9276 -0.2835
vn 0.2429 -0.9273 0.2847
vn -0.5737 0.5830 -0.5753
vn -0.5739 0.5823 0.5758
vn 0.2960 -0.2960 0.9081
vn 0.2904 -0.2995 -0.9088
vn 0.5736 -0.5831 0.5754
vn 0.5810 0.5716 -0.5794
vn 0.2757 -0.3533 0.8940
vn -0.5033 -0.6454 -0.5746
vn -0.5691 -0.6254 -0.5338
vn 0.5613 -0.6343 -0.5316
vn 0.5611 -0.6348 0.5313
vn -0.5693 -0.6251 0.5341
vn 0.5604 -0.6353 0.5314
vn -0.5686 -0.6256 0.5342
vn -0.5685 -0.6259 -0.5339
vn 0.5606 -0.6349 -0.5317
vn 0.5598 -0.6323 0.5356
vn -0.5680 -0.6224 0.5385
vn -0.5678 -0.6228 -0.5383
vn 0.5600 -0.6318 -0.5359
vn -0.5685 -0.6223 -0.5382
vn 0.5606 -0.6313 -0.5359
vn 0.5604 -0.6318 0.5355
vn -0.5686 -0.6219 0.5385
# 71 vertex normals

vt 0.6667 0.7778 0.0000
vt 0.3333 0.7778 0.0000
vt 0.3333 0.5556 0.0000
vt 0.6667 0.5556 0.0000
vt 0.0000 0.0000 0.0000
vt 1.0000 0.0000 0.0000
vt 1.0000 1.0000 0.0000
vt 0.0000 1.0000 0.0000
vt 0.3333 0.0000 0.0000
vt 0.6667 0.0000 0.0000
vt 0.2222 0.0000 0.0000
vt 0.4444 0.0000 0.0000
vt 0.5556 0.0000 0.0000
vt 0.7778 0.0000 0.0000
vt 0.0000 0.3333 0.0000
vt 1.0000 0.3333 0.0000
vt 0.6667 0.3333 0.0000
vt 0.3333 0.3333 0.0000
vt 0.6667 1.0000 0.0000
vt 0.3333 1.0000 0.0000
vt 0.0000 0.7778 0.0000
vt 0.0000 0.5556 0.0000
vt 1.0000 0.5556 0.0000
vt 1.0000 0.7778 0.0000
# 24 texture coords

o Sofa_stoel
g Sofa_stoel
s 2
f 1/1/1 2/2/2 3/3/3 4/4/4 
s 4
f 5/5/5 6/6/6 7/7/7 8/8/8 
s 8
f 9/5/9 10/6/10 6/7/6 5/8/5 
s 16
f 11/5/11 12/9/12 13/6/13 14/7/14 15/8/15 
s 32
f 16/5/16 17/6/17 18/7/18 19/8/14 
s 64
f 20/5/19 21/10/20 22/6/21 23/7/22 24/8/23 
s off
f 25/5/24 26/9/25 27/10/26 28/6/27 17/6/17 16/5/16 
f 28/6/27 8/7/8 18/7/18 17/6/17 
f 29/7/28 30/8/29 31/8/7 32/7/8 
f 7/8/7 25/5/24 16/5/16 19/8/14 
f 8/7/8 7/8/7 30/8/29 29/7/28 
f 7/8/7 19/8/14 31/8/7 30/8/29 
f 19/8/14 18/7/18 32/7/8 31/8/7 
f 18/7/18 8/7/8 29/7/28 32/7/8 
f 33/10/30 21/10/20 20/5/19 28/5/27 34/11/31 35/12/32 
f 9/6/9 5/7/5 23/7/22 22/6/21 
f 36/7/33 37/8/34 38/8/35 39/7/36 
f 8/8/8 28/5/27 20/5/19 24/8/23 
f 5/7/5 8/8/8 40/8/37 41/7/38 
f 8/8/8 24/8/23 42/8/39 40/8/37 
f 24/8/23 23/7/22 43/7/40 42/8/39 
f 23/7/22 5/7/5 41/7/38 43/7/40 
f 41/7/38 40/8/37 37/8/34 36/7/33 
f 40/8/37 42/8/39 38/8/35 37/8/34 
f 44/8/41 45/7/42 46/7/43 47/8/44 
f 43/7/40 41/7/38 36/7/33 39/7/36 
f 42/8/39 43/7/40 45/7/42 44/8/41 
f 43/7/40 39/7/36 46/7/43 45/7/42 
f 39/7/36 38/8/35 47/8/44 46/7/43 
f 38/8/35 42/8/39 44/8/41 47/8/44 
f 48/9/45 49/13/46 50/14/47 25/6/24 13/6/13 12/9/12 
f 25/6/24 7/7/7 14/7/14 13/6/13 
f 51/7/48 52/8/49 53/8/36 54/7/35 
f 6/8/6 10/5/10 11/5/11 15/8/15 
f 7/7/7 6/8/6 55/8/22 56/7/18 
f 6/8/6 15/8/15 57/8/50 55/8/22 
f 15/8/15 14/7/14 58/7/51 57/8/50 
f 14/7/14 7/7/7 56/7/18 58/7/51 
f 56/7/18 55/8/22 52/8/49 51/7/48 
f 55/8/22 57/8/50 53/8/36 52/8/49 
f 59/8/52 60/7/13 61/7/53 62/8/33 
f 58/7/51 56/7/18 51/7/48 54/7/35 
f 57/8/50 58/7/51 60/7/13 59/8/52 
f 58/7/51 54/7/35 61/7/53 60/7/13 
f 54/7/35 53/8/36 62/8/33 61/7/53 
f 53/8/36 57/8/50 59/8/52 62/8/33 
s 2
f 48/15/45 10/5/10 9/6/9 33/16/30 63/17/54 64/18/55 
s off
f 33/10/30 9/6/9 22/6/21 21/10/20 
f 12/9/12 11/5/11 10/5/10 48/9/45 
s 2
f 27/19/26 26/20/25 2/2/2 1/1/1 
f 64/18/55 63/17/54 4/4/4 3/3/3 
f 2/2/2 50/21/47 49/22/46 3/3/3 
f 4/4/4 35/23/32 34/24/31 1/1/1 
f 65/20/56 66/8/57 67/21/58 68/2/59 
f 69/1/60 70/24/61 71/7/62 72/19/63 
f 73/17/64 74/16/65 75/23/66 76/4/67 
f 77/3/68 78/22/69 79/15/70 80/18/71 
s off
f 26/20/25 25/8/24 66/8/57 65/20/56 
f 25/8/24 50/21/47 67/21/58 66/8/57 
f 50/21/47 2/2/2 68/2/59 67/21/58 
f 2/2/2 26/20/25 65/20/56 68/2/59 
f 34/24/31 28/7/27 71/7/62 70/24/61 
f 28/7/27 27/19/26 72/19/63 71/7/62 
f 27/19/26 1/1/1 69/1/60 72/19/63 
f 1/1/1 34/24/31 70/24/61 69/1/60 
f 33/16/30 35/23/32 75/23/66 74/16/65 
f 35/23/32 4/4/4 76/4/67 75/23/66 
f 4/4/4 63/17/54 73/17/64 76/4/67 
f 63/17/54 33/16/30 74/16/65 73/17/64 
f 49/22/46 48/15/45 79/15/70 78/22/69 
f 48/15/45 64/18/55 80/18/71 79/15/70 
f 64/18/55 3/3/3 77/3/68 80/18/71 
f 3/3/3 49/22/46 78/22/69 77/3/68 
# 73 polygons

