# Blender v2.81 (sub 16) OBJ File: ''
# www.blender.org
mtllib Koffie_tafel.mtl
o Koffie_tafel
v -16.279690 2.049167 10.252940
v -18.675690 2.049167 7.856940
v -18.675690 2.049167 7.523840
v -15.831890 2.049167 7.523840
v -15.831890 2.049167 10.252940
v -12.753391 2.049167 7.523840
v -0.376492 2.049167 7.523840
v -0.376492 2.049167 10.252940
v 11.843908 2.049167 7.523840
v 14.722408 2.049167 7.523840
v 14.722408 2.049167 10.252940
v 17.922709 2.049167 7.523840
v 17.922709 2.049167 7.856940
v 15.526709 2.049167 10.252940
v -18.675690 2.049169 0.095140
v -15.831890 2.049169 0.095140
v -15.831890 2.049168 4.785440
v -15.310192 -4.539933 7.059739
v -15.310192 -4.539933 5.249539
v -13.275192 -4.539933 5.249539
v -13.275192 -4.539933 7.059739
v -0.376492 2.049168 4.785440
v 11.843908 2.049168 4.785440
v 14.722408 2.049168 4.785440
v 14.722408 2.049169 0.095140
v 17.922709 2.049169 0.095140
v -18.675690 2.049170 -7.870159
v -15.831890 2.049170 -7.870159
v -15.831890 2.049170 -5.440660
v -12.753391 2.049170 -5.440660
v -12.753391 2.049169 0.095140
v -0.376492 2.049169 0.095140
v -0.376492 2.049170 -5.440660
v 11.843908 2.049170 -5.440660
v 11.843908 2.049169 0.095140
v 14.722408 2.049170 -5.440660
v 14.722408 2.049170 -7.870159
v 17.922709 2.049170 -7.870159
v -15.831890 2.049170 -10.062658
v -0.376492 2.049170 -10.062658
v -0.376492 2.049170 -7.870159
v -12.753391 2.049170 -7.870159
v 14.722408 2.049170 -10.062658
v 11.843908 2.049170 -7.870159
v -18.675690 3.521366 7.856941
v -16.279690 3.521366 10.252940
v -15.831890 3.521366 10.252940
v -15.831890 3.521366 7.523841
v -18.675690 3.521366 7.523841
v -0.376492 3.521366 10.252940
v -0.376492 3.521366 7.523841
v 14.722408 3.521366 10.252940
v 14.722408 3.521366 7.523841
v 15.526709 3.521366 10.252940
v 17.922709 3.521366 7.856941
v 17.922709 3.521366 7.523841
v -15.831890 3.521368 0.095141
v -18.675690 3.521368 0.095141
v -0.376492 3.521368 0.095141
v 14.722408 3.521368 0.095141
v 17.922709 3.521368 0.095141
v -15.831890 3.521369 -7.870159
v -18.675690 3.521369 -7.870159
v -0.376492 3.521369 -7.870159
v 14.722408 3.521369 -7.870159
v 17.922709 3.521369 -7.870159
v -15.831890 3.521369 -10.062658
v -0.376492 3.521369 -10.062658
v 14.722408 3.521369 -10.062658
v -12.753391 2.049168 4.785440
v 12.331709 -4.539931 -7.458361
v 14.234610 -4.539931 -7.458361
v 14.234610 -4.539931 -5.852461
v 12.331709 -4.539931 -5.852461
v 14.234610 -4.539933 5.249539
v 14.234610 -4.539933 7.059739
v 12.331709 -4.539933 7.059739
v 12.331709 -4.539933 5.249539
v -15.310192 -4.539931 -5.852461
v -15.310192 -4.539931 -7.458361
v -13.275192 -4.539931 -7.458361
v -13.275192 -4.539931 -5.852461
vt 0.789400 0.000000
vt 1.000000 0.219500
vt 1.000000 0.250000
vt 0.750000 0.250000
vt 0.750000 0.000000
vt 0.625000 0.250000
vt 0.500000 0.250000
vt 0.500000 0.000000
vt 0.375000 0.250000
vt 0.250000 0.250000
vt 0.250000 0.000000
vt 0.000000 0.250000
vt 0.000000 0.219500
vt 0.187200 0.000000
vt 1.000000 0.500000
vt 0.750000 0.500000
vt 0.750000 0.375000
vt 0.750000 0.250000
vt 0.750000 0.375000
vt 0.625000 0.375000
vt 0.625000 0.250000
vt 0.500000 0.375000
vt 0.375000 0.375000
vt 0.250000 0.375000
vt 0.250000 0.500000
vt 0.000000 0.500000
vt 1.000000 0.750000
vt 0.750000 0.750000
vt 0.750000 0.625000
vt 0.625000 0.625000
vt 0.625000 0.500000
vt 0.500000 0.500000
vt 0.500000 0.625000
vt 0.375000 0.625000
vt 0.375000 0.500000
vt 0.250000 0.625000
vt 0.250000 0.750000
vt 0.000000 0.750000
vt 0.750000 1.000000
vt 0.500000 1.000000
vt 0.500000 0.750000
vt 0.625000 0.750000
vt 0.250000 1.000000
vt 0.375000 0.750000
vt 0.000000 0.219500
vt 0.210600 0.000000
vt 0.250000 0.000000
vt 0.250000 0.250000
vt 0.000000 0.250000
vt 0.500000 0.000000
vt 0.500000 0.250000
vt 0.750000 0.000000
vt 0.750000 0.250000
vt 0.812800 0.000000
vt 1.000000 0.219500
vt 1.000000 0.250000
vt 0.250000 0.500000
vt 0.000000 0.500000
vt 0.500000 0.500000
vt 0.750000 0.500000
vt 1.000000 0.500000
vt 0.250000 0.750000
vt 0.000000 0.750000
vt 0.500000 0.750000
vt 0.750000 0.750000
vt 1.000000 0.750000
vt 0.500000 1.000000
vt 0.250000 1.000000
vt 0.750000 1.000000
vt 0.210600 0.000000
vt 0.250000 0.000000
vt 0.250000 1.000000
vt 0.210600 1.000000
vt 0.500000 1.000000
vt 0.750000 0.000000
vt 0.750000 1.000000
vt 0.812800 0.000000
vt 0.812800 1.000000
vt 0.219500 0.000000
vt 0.250000 0.000000
vt 0.250000 1.000000
vt 0.219500 1.000000
vt 0.500000 0.000000
vt 0.500000 1.000000
vt 0.250000 0.000000
vt 0.250000 1.000000
vt 0.500000 0.000000
vt 0.750000 0.000000
vt 0.750000 1.000000
vt 0.500000 0.000000
vt 0.750000 0.000000
vt 0.750000 1.000000
vt 0.500000 1.000000
vt 0.780500 0.000000
vt 0.780500 1.000000
vt 0.625000 0.375000
vt 0.375000 0.750000
vt 0.250000 0.750000
vt 0.250000 0.625000
vt 0.375000 0.625000
vt 0.250000 0.375000
vt 0.250000 0.250000
vt 0.375000 0.250000
vt 0.375000 0.375000
vt 0.750000 0.625000
vt 0.750000 0.750000
vt 0.625000 0.750000
vt 0.625000 0.625000
vt 3.045000 1.000000
vt 3.045000 0.000000
vt -1.951700 -0.000000
vt -1.951700 1.000000
vn 0.0000 -1.0000 0.0000
vn 0.0000 1.0000 0.0000
vn 0.0000 0.0000 1.0000
vn 1.0000 0.0000 0.0000
vn 0.5652 0.0000 -0.8250
vn 0.0000 0.0000 -1.0000
vn -0.6106 0.0000 -0.7920
vn -1.0000 0.0000 0.0000
vn 0.0000 -0.0703 0.9975
vn -0.9969 -0.0789 -0.0000
vn 0.0000 -0.0703 -0.9975
vn 0.9969 -0.0789 -0.0000
vn 0.9973 -0.0738 -0.0000
vn 0.0000 -0.0624 0.9981
vn -0.9973 -0.0738 -0.0000
vn 0.0000 -0.0624 -0.9981
vn -0.7071 0.0000 0.7071
vn 0.7071 0.0000 0.7071
usemtl Default_OBJ
s 1
f 1/1/1 2/2/1 3/3/1 4/4/1 5/5/1
f 5/5/1 4/4/1 6/6/1 7/7/1 8/8/1
f 8/8/1 7/7/1 9/9/1 10/10/1 11/11/1
f 11/11/1 10/10/1 12/12/1 13/13/1 14/14/1
f 3/3/1 15/15/1 16/16/1 17/17/1 4/4/1
f 18/18/1 19/19/1 20/20/1 21/21/1
f 7/7/1 22/22/1 23/23/1 9/9/1
f 10/10/1 24/24/1 25/25/1 26/26/1 12/12/1
f 15/15/1 27/27/1 28/28/1 29/29/1 16/16/1
f 16/16/1 29/29/1 30/30/1 31/31/1
f 32/32/1 33/33/1 34/34/1 35/35/1
f 25/25/1 36/36/1 37/37/1 38/38/1 26/26/1
f 28/28/1 39/39/1 40/40/1 41/41/1 42/42/1
f 41/41/1 40/40/1 43/43/1 37/37/1 44/44/1
f 45/45/2 46/46/2 47/47/2 48/48/2 49/49/2
f 47/47/2 50/50/2 51/51/2 48/48/2
f 50/50/2 52/52/2 53/53/2 51/51/2
f 52/52/2 54/54/2 55/55/2 56/56/2 53/53/2
f 49/49/2 48/48/2 57/57/2 58/58/2
f 48/48/2 51/51/2 59/59/2 57/57/2
f 51/51/2 53/53/2 60/60/2 59/59/2
f 53/53/2 56/56/2 61/61/2 60/60/2
f 58/58/2 57/57/2 62/62/2 63/63/2
f 57/57/2 59/59/2 64/64/2 62/62/2
f 59/59/2 60/60/2 65/65/2 64/64/2
f 60/60/2 61/61/2 66/66/2 65/65/2
f 62/62/2 64/64/2 68/67/2 67/68/2
f 64/64/2 65/65/2 69/69/2 68/67/2
f 1/70/3 5/71/3 47/72/3 46/73/3
f 5/71/3 8/8/3 50/74/3 47/72/3
f 8/8/3 11/75/3 52/76/3 50/74/3
f 11/75/3 14/77/3 54/78/3 52/76/3
f 13/79/4 12/80/4 56/81/4 55/82/4
f 12/80/4 26/83/4 61/84/4 56/81/4
f 66/66/5 38/38/5 43/85/5 69/86/5
f 43/85/6 40/87/6 68/67/6 69/86/6
f 40/87/6 39/88/6 67/89/6 68/67/6
f 67/89/7 39/88/7 27/27/7 63/63/7
f 15/90/8 3/91/8 49/92/8 58/93/8
f 3/91/8 2/94/8 45/95/8 49/92/8
f 31/31/1 32/32/1 22/22/1 70/96/1
f 42/42/1 41/41/1 33/33/1 30/30/1
f 35/35/1 25/25/1 24/24/1 23/23/1
f 71/97/1 72/98/1 73/99/1 74/100/1
f 17/17/1 16/16/1 31/31/1 70/96/1
f 22/22/1 32/32/1 35/35/1 23/23/1
f 22/22/1 7/7/1 6/6/1 70/96/1
f 75/101/1 76/102/1 77/103/1 78/104/1
f 79/105/1 80/106/1 81/107/1 82/108/1
f 33/33/1 41/41/1 44/44/1 34/34/1
f 33/33/1 32/32/1 31/31/1 30/30/1
f 36/36/1 25/25/1 35/35/1 34/34/1
f 6/6/9 4/4/9 18/18/9 21/21/9
f 4/4/10 17/17/10 19/19/10 18/18/10
f 17/17/11 70/96/11 20/20/11 19/19/11
f 70/96/12 6/6/12 21/21/12 20/20/12
f 37/37/13 36/36/13 73/99/13 72/98/13
f 36/36/14 34/34/14 74/100/14 73/99/14
f 34/34/15 44/44/15 71/97/15 74/100/15
f 44/44/16 37/37/16 72/98/16 71/97/16
f 10/10/9 9/9/9 77/103/9 76/102/9
f 9/9/15 23/23/15 78/104/15 77/103/15
f 23/23/11 24/24/11 75/101/11 78/104/11
f 24/24/13 10/10/13 76/102/13 75/101/13
f 29/29/10 28/28/10 80/106/10 79/105/10
f 28/28/16 42/42/16 81/107/16 80/106/16
f 42/42/12 30/30/12 82/108/12 81/107/12
f 30/30/14 29/29/14 79/105/14 82/108/14
f 46/109/17 45/95/17 2/94/17 1/110/17
f 14/111/18 13/79/18 55/82/18 54/112/18
f 27/27/8 15/90/8 58/58/8 63/63/8
f 63/63/2 62/62/2 67/89/2
f 27/27/1 39/88/1 28/28/1
f 38/38/4 66/66/4 61/61/4 26/83/4
f 66/66/2 69/86/2 65/65/2
f 38/38/1 37/37/1 43/85/1
