# 3ds Max Wavefront OBJ Exporter v0.97b - (c)2007 guruware
# File Created: 21.01.2021 10:18:56

#
# object Kussen_bodem_bank
#

v  -58.5033 6.0590 -28.6983
v  -59.4531 6.0590 -29.6641
v  -59.4531 6.0590 -46.8635
v  -58.5033 6.0590 -47.8294
v  -11.0163 6.0590 -47.8294
v  -10.0665 6.0590 -46.8635
v  -10.0665 6.0590 -29.6641
v  -11.0163 6.0590 -28.6983
v  -30.0111 8.5895 -33.4811
v  -30.0111 8.1791 -38.2638
v  -39.5085 8.7347 -38.2638
v  -39.5085 8.5895 -33.4811
v  -11.0163 6.8154 -28.3501
v  -11.0163 7.5719 -28.3501
v  -58.5033 7.5719 -28.3501
v  -58.5033 6.8154 -28.3501
v  -10.0665 8.3283 -46.8635
v  -10.0665 8.3283 -42.5637
v  -10.0665 8.6847 -38.2638
v  -10.0665 8.6847 -33.9640
v  -10.0665 8.3283 -29.6641
v  -58.5033 8.3283 -47.8294
v  -49.0059 8.3283 -47.8294
v  -39.5085 8.3283 -47.8294
v  -30.0111 8.3283 -47.8294
v  -20.5137 8.3283 -47.8294
v  -11.0163 8.3283 -47.8294
v  -59.4531 8.3283 -29.6641
v  -59.4531 8.5667 -33.9640
v  -59.4531 8.5667 -38.2638
v  -59.4531 8.3283 -42.5637
v  -59.4531 8.3283 -46.8635
v  -11.0163 8.3283 -28.6983
v  -58.5033 8.3283 -28.6983
v  -20.5137 8.6847 -38.2638
v  -20.5137 8.6847 -33.4811
v  -49.0059 8.5667 -38.2638
v  -49.0059 8.3283 -43.0466
v  -39.5085 9.2020 -43.0466
v  -30.0111 8.7347 -43.0466
v  -39.5085 8.5895 -28.6983
v  -30.0111 8.5895 -28.6983
v  -20.5137 8.3283 -43.0466
v  -20.5137 8.3283 -28.6983
v  -49.0059 8.3283 -28.6983
v  -49.0059 8.2201 -33.4811
# 46 vertices

vn -0.2735 -0.7703 0.5760
vn -0.7180 -0.6310 0.2938
vn -0.7180 -0.6310 -0.2938
vn -0.3003 -0.6296 -0.7165
vn 0.3003 -0.6296 -0.7165
vn 0.7180 -0.6310 -0.2938
vn 0.7180 -0.6310 0.2938
vn 0.2735 -0.7703 0.5760
vn -0.0050 0.9991 -0.0428
vn 0.0026 0.9999 0.0150
vn 0.0203 0.9978 0.0639
vn -0.0194 0.9997 0.0152
vn 0.6620 -0.1604 0.7322
vn 0.6620 0.1604 0.7322
vn -0.6620 0.1604 0.7322
vn -0.6620 -0.1604 0.7322
vn 0.7180 0.6310 -0.2938
vn -0.6972 0.7162 -0.0305
vn 0.6979 0.7156 -0.0296
vn 0.6986 0.7150 0.0287
vn 0.7427 0.5861 0.3239
vn -0.3003 0.6296 -0.7165
vn 0.0000 0.7071 -0.7071
vn 0.0000 0.6404 -0.7680
vn 0.0000 0.6765 -0.7364
vn 0.3003 0.6296 -0.7165
vn -0.7347 0.6012 0.3143
vn -0.6895 0.7241 0.0195
vn -0.7010 0.7129 -0.0197
vn 0.7005 0.7134 -0.0203
vn -0.7180 0.6310 -0.2938
vn 0.2735 0.7703 0.5760
vn -0.2735 0.7703 0.5760
vn -0.0266 0.9990 -0.0371
vn -0.0041 0.9993 0.0377
vn -0.0088 0.9999 0.0113
vn -0.0464 0.9986 -0.0245
vn -0.0211 0.9989 -0.0414
vn 0.0460 0.9988 0.0154
vn -0.0098 0.7101 0.7040
vn 0.0098 0.7101 0.7040
vn 0.0222 0.9991 -0.0366
vn 0.0101 0.7358 -0.6771
vn -0.0097 0.7021 -0.7120
vn -0.0034 0.9997 0.0241
# 45 vertex normals

vt 0.9808 0.0000 0.0000
vt 1.0000 0.0505 0.0000
vt 1.0000 0.9495 0.0000
vt 0.9808 1.0000 0.0000
vt 0.0192 1.0000 0.0000
vt 0.0000 0.9495 0.0000
vt 0.0000 0.0505 0.0000
vt 0.0192 0.0000 0.0000
vt 0.5962 0.2500 0.0000
vt 0.5962 0.5000 0.0000
vt 0.4038 0.5000 0.0000
vt 0.4038 0.2500 0.0000
vt 0.9808 0.3333 0.0000
vt 0.9808 0.6667 0.0000
vt 0.0192 0.6667 0.0000
vt 0.0192 0.3333 0.0000
vt 0.0505 0.0000 0.0000
vt 0.9495 0.0000 0.0000
vt 0.9495 1.0000 0.0000
vt 0.7248 1.0000 0.0000
vt 0.5000 1.0000 0.0000
vt 0.2752 1.0000 0.0000
vt 0.0505 1.0000 0.0000
vt 0.7885 1.0000 0.0000
vt 0.5962 1.0000 0.0000
vt 0.4038 1.0000 0.0000
vt 0.2115 1.0000 0.0000
vt -0.4362 0.0000 0.0000
vt -0.4362 1.0000 0.0000
vt -0.4362 0.6667 0.0000
vt -0.4362 0.3333 0.0000
vt 1.4362 1.0000 0.0000
vt 1.4362 -0.0000 0.0000
vt 1.4362 0.3333 0.0000
vt 1.4362 0.6667 0.0000
vt -1.1451 0.0000 0.0000
vt -1.1451 1.0000 0.0000
vt 1.0000 0.2752 0.0000
vt 1.0000 0.5000 0.0000
vt 0.7885 0.5000 0.0000
vt 0.7885 0.2500 0.0000
vt 0.0000 0.7248 0.0000
vt 0.0000 0.5000 0.0000
vt 0.2115 0.5000 0.0000
vt 0.2115 0.7500 0.0000
vt 0.4038 0.7500 0.0000
vt 0.5962 0.7500 0.0000
vt 0.4038 0.0000 0.0000
vt 0.5962 0.0000 0.0000
vt 1.0000 0.7248 0.0000
vt 0.7885 0.7500 0.0000
vt 0.7885 0.0000 0.0000
vt 0.0000 0.2752 0.0000
vt 0.2115 0.0000 0.0000
vt 0.2115 0.2500 0.0000
# 55 texture coords

o Kussen_bodem_bank
g Kussen_bodem_bank
s 1
f 1/1/1 2/2/2 3/3/3 4/4/4 5/5/5 6/6/6 7/7/7 8/8/8 
f 9/9/9 10/10/10 11/11/11 12/12/12 
s 2
f 13/13/13 14/14/14 15/15/15 16/16/16 
f 7/17/7 6/18/6 17/19/17 18/20/18 19/21/19 20/22/20 21/23/21 
f 5/8/5 4/1/4 22/4/22 23/24/23 24/25/24 25/26/25 26/27/23 27/5/26 
f 3/17/3 2/18/2 28/19/27 29/20/28 30/21/29 31/22/30 32/23/31 
s 4
f 8/28/8 7/17/7 21/23/21 33/29/32 14/30/14 13/31/13 
f 34/32/33 28/19/27 2/18/2 1/33/1 16/34/16 15/35/15 
f 6/36/6 5/8/5 27/5/26 17/37/17 
f 4/28/4 3/17/3 32/23/31 22/29/22 
s 1
f 20/38/20 19/39/19 35/40/34 36/41/35 
f 36/41/35 35/40/34 10/10/10 9/9/9 
f 31/42/30 30/43/29 37/44/36 38/45/37 
f 38/45/37 37/44/36 11/11/11 39/46/38 
f 40/47/39 25/25/25 24/26/24 39/46/38 
f 10/10/10 40/47/39 39/46/38 11/11/11 
f 12/12/12 41/48/40 42/49/41 9/9/9 
f 18/50/18 17/3/17 27/4/26 26/24/23 43/51/42 
f 19/39/19 18/50/18 43/51/42 35/40/34 
f 36/41/35 44/52/43 33/1/32 21/2/21 20/38/20 
f 43/51/42 26/24/23 25/25/25 40/47/39 
f 35/40/34 43/51/42 40/47/39 10/10/10 
f 9/9/9 42/49/41 44/52/43 36/41/35 
f 29/53/28 28/7/27 34/8/33 45/54/44 46/55/45 
f 30/43/29 29/53/28 46/55/45 37/44/36 
f 38/45/37 23/27/23 22/5/22 32/6/31 31/42/30 
f 46/55/45 45/54/44 41/48/40 12/12/12 
f 37/44/36 46/55/45 12/12/12 11/11/11 
f 39/46/38 24/26/24 23/27/23 38/45/37 
s 2
f 14/14/14 33/4/32 44/24/43 42/25/41 41/26/40 45/27/44 34/5/33 15/15/15 
f 16/16/16 1/8/1 8/1/8 13/13/13 
# 31 polygons

