# This file uses centimeters as units for non-parametric coordinates.

mtllib hoekige vaas model.mtl
g default
v -9.059936 0.044719 1.654302
v -5.751332 0.044719 1.654302
v -8.121648 7.008721 0.716014
v -6.689620 7.008721 0.716014
v -8.121648 7.008721 -0.716014
v -6.689620 7.008721 -0.716014
v -9.059936 0.044719 -1.654302
v -5.751332 0.044719 -1.654302
v -8.353318 6.959887 0.947684
v -6.457949 6.959887 0.947684
v -6.457949 7.359414 0.947684
v -8.353318 7.359414 0.947684
v -6.457949 6.959887 -0.947684
v -6.457949 7.359414 -0.947684
v -8.353318 6.959887 -0.947684
v -8.353318 7.359414 -0.947684
v -8.121648 1.478694 0.716014
v -6.689620 1.478694 0.716014
v -6.689620 1.478694 -0.716014
v -8.121648 1.478694 -0.716014
v -8.237470 7.334994 0.831837
v -8.178894 7.294763 0.773260
v -8.136818 7.209301 0.731184
v -8.121648 7.098607 0.716014
v -6.573795 7.334994 0.831837
v -6.632374 7.294763 0.773260
v -6.674450 7.209300 0.731184
v -6.689620 7.098606 0.716014
v -6.573795 7.334994 -0.831837
v -6.632374 7.294763 -0.773260
v -6.674450 7.209301 -0.731184
v -6.689620 7.098607 -0.716014
v -8.237470 7.334994 -0.831837
v -8.178894 7.294763 -0.773260
v -8.136818 7.209301 -0.731184
v -8.121648 7.098607 -0.716014
vt 0.738437 0.284372
vt 0.738437 0.001992
vt 0.750677 0.001992
vt 0.750677 0.284372
vt 0.774360 0.284372
vt 0.774360 0.001992
vt 0.786600 0.001992
vt 0.786600 0.284372
vt 0.340303 0.500860
vt 0.340303 0.714209
vt 0.168131 0.714209
vt 0.168131 0.500860
vt 0.343694 0.498600
vt 0.343694 0.716470
vt 0.174008 0.722408
vt 0.174008 0.935758
vt 0.001836 0.935758
vt 0.001836 0.722408
vt 0.177399 0.938018
vt 0.177399 0.720148
vt 0.183427 0.784659
vt 0.396776 0.784659
vt 0.396776 0.998008
vt 0.183427 0.998008
vt 0.221146 0.494922
vt 0.221146 0.001992
vt 0.714075 0.001992
vt 0.714075 0.494922
vt 0.885247 0.746465
vt 0.885247 0.533115
vt 0.919762 0.498600
vt 0.919762 0.780980
vt 0.671898 0.533115
vt 0.637383 0.498600
vt 0.671898 0.746465
vt 0.637383 0.780980
vt 0.366608 0.515859
vt 0.366608 0.763720
vt 0.349349 0.780980
vt 0.349349 0.498600
vt 0.375335 0.754993
vt 0.375335 0.524587
vt 0.614469 0.763720
vt 0.631728 0.780980
vt 0.614469 0.515859
vt 0.631728 0.498600
vt 0.605742 0.754993
vt 0.605742 0.524587
vt 0.381604 0.748725
vt 0.381604 0.530855
vt 0.599473 0.748725
vt 0.599473 0.530855
vt 0.383864 0.746465
vt 0.383864 0.533115
vt 0.597213 0.533115
vt 0.597213 0.746465
vt 0.720476 0.284372
vt 0.720476 0.001992
vt 0.732716 0.001992
vt 0.732716 0.284372
vt 0.768639 0.001992
vt 0.768639 0.284372
vt 0.756399 0.284372
vt 0.756399 0.001992
vt 0.402557 0.998008
vt 0.402557 0.784659
vt 0.574729 0.784659
vt 0.574729 0.998008
vt 0.754344 0.784659
vt 0.754344 0.998008
vt 0.582172 0.998008
vt 0.582172 0.784659
vt 0.001836 0.494921
vt 0.001836 0.001992
vt 0.215185 0.141782
vt 0.215185 0.355131
vt 0.215185 0.141782
vt 0.001836 0.001992
vt 0.001836 0.494921
vt 0.215185 0.355131
vn 0.000000 0.133527 0.991045
vn 0.000000 0.133527 0.991045
vn 0.000000 0.133527 0.991045
vn 0.000000 0.133527 0.991045
vn 0.000000 1.000000 0.000000
vn 0.000000 1.000000 0.000000
vn 0.000000 1.000000 0.000000
vn 0.000000 1.000000 0.000000
vn 0.000000 0.133527 -0.991045
vn 0.000000 0.133527 -0.991045
vn 0.000000 0.133527 -0.991045
vn 0.000000 0.133527 -0.991045
vn 0.000000 -1.000000 0.000000
vn 0.000000 -1.000000 0.000000
vn 0.000000 -1.000000 0.000000
vn 0.000000 -1.000000 0.000000
vn 0.991045 0.133527 0.000000
vn 0.991045 0.133527 0.000000
vn 0.991045 0.133527 0.000000
vn 0.991045 0.133527 0.000000
vn -0.991045 0.133528 0.000000
vn -0.991045 0.133528 0.000000
vn -0.991045 0.133528 0.000000
vn -0.991045 0.133528 0.000000
vn 0.000000 0.000000 1.000000
vn 0.000000 0.000000 1.000000
vn 0.000000 0.000000 1.000000
vn 0.000000 0.000000 1.000000
vn 1.000000 0.000000 0.000000
vn 1.000000 0.000000 0.000000
vn 1.000000 0.000000 0.000000
vn 1.000000 0.000000 0.000000
vn 0.000000 0.000000 -1.000000
vn 0.000000 0.000000 -1.000000
vn 0.000000 0.000000 -1.000000
vn 0.000000 0.000000 -1.000000
vn -1.000000 0.000000 0.000000
vn -1.000000 0.000000 0.000000
vn -1.000000 0.000000 0.000000
vn -1.000000 0.000000 0.000000
vn 0.000000 -0.978498 -0.206259
vn 0.000000 -0.978498 -0.206258
vn 0.000000 -0.978498 -0.206258
vn 0.000000 -0.978498 -0.206258
vn -0.206257 -0.978498 0.000000
vn -0.206257 -0.978498 0.000000
vn -0.206257 -0.978498 0.000000
vn -0.206257 -0.978498 0.000000
vn 0.000000 -0.978498 0.206258
vn 0.000000 -0.978498 0.206258
vn 0.000000 -0.978498 0.206258
vn 0.000000 -0.978498 0.206258
vn 0.206258 -0.978498 0.000000
vn 0.206258 -0.978498 0.000000
vn 0.206258 -0.978498 0.000000
vn 0.206258 -0.978498 0.000000
vn -0.134482 0.981748 -0.134481
vn 0.134481 0.981748 -0.134482
vn 0.104244 0.989074 -0.104243
vn -0.104244 0.989073 -0.104245
vn -0.134482 0.981748 0.134482
vn -0.104244 0.989073 0.104245
vn 0.134481 0.981748 0.134483
vn 0.104244 0.989074 0.104243
vn 0.000000 0.003515 -0.999994
vn 0.000000 0.003515 -0.999994
vn 0.000000 0.000000 -1.000000
vn 0.000000 0.000000 -1.000000
vn -0.999994 0.003515 0.000000
vn -0.999994 0.003515 0.000000
vn -1.000000 0.000000 0.000000
vn -1.000000 0.000000 0.000000
vn -0.000000 0.003515 0.999994
vn -0.000000 0.003515 0.999994
vn 0.000000 0.000000 1.000000
vn 0.000000 0.000000 1.000000
vn 0.999994 0.003515 0.000000
vn 0.999994 0.003515 0.000000
vn 1.000000 0.000000 0.000000
vn 1.000000 0.000000 0.000000
vn 0.939995 0.341188 0.000000
vn 0.939995 0.341188 0.000000
vn 0.392531 0.831769 -0.392531
vn 0.392531 0.831769 0.392530
vn 0.000000 0.341186 -0.939996
vn 0.000000 0.341186 -0.939996
vn -0.392526 0.831772 -0.392528
vn -0.939995 0.341187 0.000000
vn -0.939995 0.341187 0.000000
vn -0.392525 0.831772 0.392528
vn -0.000000 0.341187 0.939995
vn -0.000000 0.341187 0.939995
s off
g pCube1
usemtl initialShadingGroup
f 1/79/1 2/73/2 4/76/3 3/80/4
f 17/21/5 18/22/6 19/23/7 20/24/8
f 5/77/9 6/75/10 8/74/11 7/78/12
f 7/25/13 8/26/14 2/27/15 1/28/16
f 2/73/17 8/74/18 6/75/19 4/76/20
f 7/78/21 1/79/22 3/80/23 5/77/24
f 9/57/25 10/58/26 11/59/27 12/60/28
f 10/1/29 13/2/30 14/3/31 11/4/32
f 13/61/33 15/62/34 16/63/35 14/64/36
f 15/5/37 9/6/38 12/7/39 16/8/40
f 3/29/41 4/30/42 10/31/43 9/32/44
f 4/30/45 6/33/46 13/34/47 10/31/48
f 6/33/49 5/35/50 15/36/51 13/34/52
f 5/35/53 3/29/54 9/32/55 15/36/56
s 1
f 25/37/57 21/38/58 12/39/59 11/40/60
f 29/45/61 25/37/57 11/40/60 14/46/62
f 33/43/63 29/45/61 14/46/62 16/44/64
f 21/38/58 33/43/63 16/44/64 12/39/59
f 24/65/65 28/66/66 18/67/67 17/68/68
f 28/9/69 32/10/70 19/11/71 18/12/72
f 32/69/73 36/70/74 20/71/75 19/72/76
f 36/15/77 24/16/78 17/17/79 20/18/80
f 23/19/81 24/16/78 36/15/77 35/20/82
f 21/38/58 22/41/83 34/47/84 33/43/63
f 22/41/83 23/49/81 35/51/82 34/47/84
f 24/53/65 23/49/85 27/50/86 28/54/66
f 23/49/85 22/41/83 26/42/87 27/50/86
f 22/41/83 21/38/58 25/37/57 26/42/87
f 28/9/69 27/13/88 31/14/89 32/10/70
f 27/50/88 26/42/87 30/48/90 31/52/89
f 26/42/87 25/37/57 29/45/61 30/48/90
f 32/55/73 31/52/91 35/51/92 36/56/74
f 31/52/91 30/48/90 34/47/84 35/51/92
f 30/48/90 29/45/61 33/43/63 34/47/84
