# 3ds Max Wavefront OBJ Exporter v0.97b - (c)2007 guruware
# File Created: 21.01.2021 10:17:15

#
# object Koelkast
#

v  9.1926 -0.0000 -44.3580
v  9.1926 -0.0000 -64.5461
v  28.8395 -0.0000 -64.5461
v  28.8395 -0.0000 -44.3580
v  10.1926 51.5837 -44.3580
v  27.8395 51.5837 -44.3580
v  27.8395 51.5837 -64.5461
v  10.1926 51.5837 -64.5461
v  28.8395 15.5471 -44.3580
v  28.8395 17.0954 -44.3580
v  9.1926 17.0954 -44.3580
v  9.1926 15.5471 -44.3580
v  28.8395 50.5837 -64.5461
v  28.8395 50.5837 -44.3580
v  28.8395 41.8299 -44.3580
v  28.8395 40.4787 -44.3580
v  28.8395 34.9263 -44.3580
v  28.8395 33.8093 -44.3580
v  28.8395 26.5709 -44.3580
v  28.8395 25.2565 -44.3580
v  28.8395 7.6748 -44.3580
v  28.8395 6.0888 -44.3580
v  9.1926 50.5837 -64.5461
v  9.2843 50.8254 -64.5461
v  9.4060 51.0370 -64.5461
v  9.5576 51.2187 -64.5461
v  9.7393 51.3704 -64.5461
v  9.9510 51.4920 -64.5461
v  28.0812 51.4920 -64.5461
v  28.2928 51.3704 -64.5461
v  28.4745 51.2187 -64.5461
v  28.6262 51.0370 -64.5461
v  28.7478 50.8254 -64.5461
v  9.1926 6.0888 -44.3580
v  9.1926 7.6748 -44.3580
v  9.1926 25.2565 -44.3580
v  9.1926 26.5709 -44.3580
v  9.1926 33.8093 -44.3580
v  9.1926 34.9263 -44.3580
v  9.1926 40.4787 -44.3580
v  9.1926 41.8299 -44.3580
v  9.1926 50.5837 -44.3580
v  28.2395 42.4299 -57.2965
v  28.2395 50.9837 -57.2965
v  9.7926 50.9837 -57.2965
v  9.7926 42.4299 -57.2965
v  9.7926 39.8787 -57.2965
v  9.7926 35.5263 -57.2965
v  28.2395 35.5263 -57.2965
v  28.2395 39.8787 -57.2965
v  28.2395 42.4299 -44.3580
v  9.7926 42.4299 -44.3580
v  28.7478 50.8254 -44.3580
v  28.6262 51.0370 -44.3580
v  28.4745 51.2187 -44.3580
v  28.2928 51.3704 -44.3580
v  28.0812 51.4920 -44.3580
v  9.9510 51.4920 -44.3580
v  9.7393 51.3704 -44.3580
v  9.5576 51.2187 -44.3580
v  9.4060 51.0370 -44.3580
v  9.2843 50.8254 -44.3580
v  9.7926 50.9837 -44.3580
v  28.2395 50.9837 -44.3580
v  28.2395 39.8787 -44.3580
v  28.2395 35.5263 -44.3580
v  9.7926 39.8787 -44.3580
v  9.7926 35.5263 -44.3580
v  28.2395 27.1709 -56.6975
v  28.2395 33.2093 -56.6975
v  9.7926 33.2093 -56.6975
v  9.7926 27.1709 -56.6975
v  28.2395 17.6954 -56.6975
v  28.2395 24.6565 -56.6975
v  9.7926 24.6565 -56.6975
v  9.7926 17.6954 -56.6975
v  9.7926 14.9471 -56.6975
v  9.7926 8.2748 -56.6975
v  28.2395 8.2748 -56.6975
v  28.2395 14.9471 -56.6975
v  28.2395 33.2093 -44.3580
v  28.2395 27.1709 -44.3580
v  9.7926 33.2093 -44.3580
v  9.7926 27.1709 -44.3580
v  28.2395 24.6565 -44.3580
v  28.2395 17.6954 -44.3580
v  9.7926 24.6565 -44.3580
v  9.7926 17.6954 -44.3580
v  28.2395 14.9471 -44.3580
v  28.2395 8.2748 -44.3580
v  9.7926 14.9471 -44.3580
v  9.7926 8.2748 -44.3580
# 92 vertices

vn -0.5774 -0.5774 0.5774
vn -0.5774 -0.5774 -0.5774
vn 0.5774 -0.5774 -0.5774
vn 0.5774 -0.5774 0.5774
vn -0.1340 0.7314 0.6687
vn 0.1340 0.7314 0.6687
vn 0.1340 0.7314 -0.6687
vn -0.1340 0.7314 -0.6687
vn 0.7071 0.0000 0.7071
vn -0.7071 0.0000 0.7071
vn 0.7314 0.1340 -0.6687
vn 0.7314 0.1340 0.6687
vn -0.7314 0.1340 -0.6687
vn -0.6545 0.3098 -0.6896
vn -0.5953 0.4149 -0.6881
vn -0.5135 0.5135 -0.6875
vn -0.4149 0.5953 -0.6881
vn -0.3099 0.6546 -0.6896
vn 0.3099 0.6546 -0.6896
vn 0.4149 0.5953 -0.6881
vn 0.5135 0.5135 -0.6875
vn 0.5953 0.4149 -0.6881
vn 0.6545 0.3098 -0.6896
vn -0.7314 0.1340 0.6687
vn -0.5774 0.5774 0.5774
vn 0.5774 0.5774 0.5774
vn -0.3015 0.3015 0.9045
vn 0.3015 0.3015 0.9045
vn 0.6545 0.3098 0.6896
vn 0.5953 0.4149 0.6881
vn 0.5135 0.5135 0.6875
vn 0.4149 0.5953 0.6881
vn 0.3099 0.6546 0.6896
vn -0.3099 0.6546 0.6896
vn -0.4149 0.5953 0.6881
vn -0.5135 0.5135 0.6875
vn -0.5953 0.4149 0.6881
vn -0.6545 0.3098 0.6896
vn -0.3015 -0.3015 0.9045
vn 0.3015 -0.3015 0.9045
# 40 vertex normals

vt 1.0000 0.0000 0.0000
vt 1.0000 1.0000 0.0000
vt 0.0000 1.0000 0.0000
vt 0.0000 0.0000 0.0000
vt 0.0509 0.0000 0.0000
vt 0.9491 0.0000 0.0000
vt 0.9491 1.0000 0.0000
vt 0.0509 1.0000 0.0000
vt 1.0000 0.2143 0.0000
vt 1.0000 0.2857 0.0000
vt 0.0000 0.2857 0.0000
vt 0.0000 0.2143 0.0000
vt 1.0000 0.9806 0.0000
vt 0.0000 0.9829 0.0000
vt 0.0000 0.8333 0.0000
vt 0.0000 0.6667 0.0000
vt 0.0000 0.5000 0.0000
vt 0.0000 0.4643 0.0000
vt 0.0000 0.4286 0.0000
vt 0.0000 0.3571 0.0000
vt 0.0000 0.1429 0.0000
vt 0.0000 0.0714 0.0000
vt 1.0000 0.9871 0.0000
vt 1.0000 0.9935 0.0000
vt 0.9830 1.0000 0.0000
vt 0.9661 1.0000 0.0000
vt 0.0339 1.0000 0.0000
vt 0.0170 1.0000 0.0000
vt 0.0000 0.9935 0.0000
vt 0.0000 0.9871 0.0000
vt 0.0000 0.9806 0.0000
vt 1.0000 0.0714 0.0000
vt 1.0000 0.1429 0.0000
vt 1.0000 0.3571 0.0000
vt 1.0000 0.4286 0.0000
vt 1.0000 0.4643 0.0000
vt 1.0000 0.5000 0.0000
vt 1.0000 0.6667 0.0000
vt 1.0000 0.8333 0.0000
vt 1.0000 0.9829 0.0000
vt 1.0000 0.9886 0.0000
vt 1.0000 0.9943 0.0000
vt 0.0000 0.9943 0.0000
vt 0.0000 0.9886 0.0000
vt 0.9661 0.0000 0.0000
vt 0.9830 0.0000 0.0000
vt 0.0339 0.0000 0.0000
vt 0.0170 0.0000 0.0000
# 48 texture coords

o Koelkast
g Koelkast
s off
f 1/1/1 2/2/2 3/3/3 4/4/4 
s 2
f 5/5/5 6/6/6 7/7/7 8/8/8 
s 4
f 9/9/9 10/10/9 11/11/10 12/12/10 
s off
f 4/4/4 3/1/3 13/13/11 14/14/12 15/15/9 16/16/9 17/17/9 18/18/9 19/19/9 20/20/9 10/11/9 9/12/9 21/21/9 22/22/9 
f 3/4/3 2/1/2 23/13/13 24/23/14 25/24/15 26/2/16 27/25/17 28/26/18 8/7/8 7/8/7 29/27/19 30/28/20 31/3/21 32/29/22 33/30/23 13/31/11 
f 2/4/2 1/1/1 34/32/10 35/33/10 12/9/10 11/10/10 36/34/10 37/35/10 38/36/10 39/37/10 40/38/10 41/39/10 42/40/24 23/31/13 
s 4
f 16/38/9 15/39/9 41/15/10 40/16/10 
s off
f 43/39/25 44/2/1 45/3/4 46/15/26 
f 47/16/4 48/17/26 49/37/25 50/38/1 
s 4
f 41/15/10 15/39/9 51/39/27 52/15/28 
f 15/39/9 14/40/12 53/41/29 54/42/30 55/2/31 56/25/32 57/26/33 6/7/6 5/8/5 58/27/34 59/28/35 60/3/36 61/43/37 62/44/38 42/14/24 41/15/10 52/15/28 63/3/3 64/2/2 51/39/27 
f 17/37/9 16/38/9 65/38/39 66/37/27 
f 16/38/9 40/16/10 67/16/40 65/38/39 
f 40/16/10 39/17/10 68/17/28 67/16/40 
f 39/17/10 17/37/9 66/37/27 68/17/28 
s 2
f 64/2/2 63/3/3 45/3/4 44/2/1 
s 8
f 63/3/3 52/15/28 46/15/26 45/3/4 
s 2
f 52/15/28 51/39/27 43/39/25 46/15/26 
s 8
f 51/39/27 64/2/2 44/2/1 43/39/25 
s 2
f 66/37/27 65/38/39 50/38/1 49/37/25 
s 8
f 65/38/39 67/16/40 47/16/4 50/38/1 
s 2
f 67/16/40 68/17/28 48/17/26 47/16/4 
s 8
f 68/17/28 66/37/27 49/37/25 48/17/26 
s off
f 69/35/25 70/36/1 71/18/4 72/19/26 
s 4
f 20/34/9 19/35/9 37/19/10 36/20/10 
s off
f 73/10/25 74/34/1 75/20/4 76/11/26 
s 4
f 34/22/10 1/4/1 4/1/4 22/32/9 
f 35/21/10 34/22/10 22/32/9 21/33/9 
s off
f 77/12/4 78/21/26 79/33/25 80/9/1 
s 4
f 18/36/9 17/37/9 39/17/10 38/18/10 
f 19/35/9 18/36/9 81/36/39 82/35/27 
f 18/36/9 38/18/10 83/18/40 81/36/39 
f 38/18/10 37/19/10 84/19/28 83/18/40 
f 37/19/10 19/35/9 82/35/27 84/19/28 
f 10/10/9 20/34/9 85/34/39 86/10/27 
f 20/34/9 36/20/10 87/20/40 85/34/39 
f 36/20/10 11/11/10 88/11/28 87/20/40 
f 11/11/10 10/10/9 86/10/27 88/11/28 
f 21/33/9 9/9/9 89/9/39 90/33/27 
f 9/9/9 12/12/10 91/12/40 89/9/39 
f 12/12/10 35/21/10 92/21/28 91/12/40 
f 35/21/10 21/33/9 90/33/27 92/21/28 
s 2
f 82/35/27 81/36/39 70/36/1 69/35/25 
s 8
f 81/36/39 83/18/40 71/18/4 70/36/1 
s 2
f 83/18/40 84/19/28 72/19/26 71/18/4 
s 8
f 84/19/28 82/35/27 69/35/25 72/19/26 
s 2
f 86/10/27 85/34/39 74/34/1 73/10/25 
s 8
f 85/34/39 87/20/40 75/20/4 74/34/1 
s 2
f 87/20/40 88/11/28 76/11/26 75/20/4 
s 8
f 88/11/28 86/10/27 73/10/25 76/11/26 
s 2
f 90/33/27 89/9/39 80/9/1 79/33/25 
s 8
f 89/9/39 91/12/40 77/12/4 80/9/1 
s 2
f 91/12/40 92/21/28 78/21/26 77/12/4 
s 8
f 92/21/28 90/33/27 79/33/25 78/21/26 
s 2
f 7/7/7 6/6/6 57/45/33 29/26/19 
f 29/26/19 57/45/33 56/46/32 30/25/20 
f 30/25/20 56/46/32 55/1/31 31/2/21 
f 5/5/5 8/8/8 28/27/18 58/47/34 
f 58/47/34 28/27/18 27/28/17 59/48/35 
f 59/48/35 27/28/17 26/3/16 60/4/36 
f 14/14/12 13/13/11 33/23/23 53/44/29 
f 53/44/29 33/23/23 32/24/22 54/43/30 
f 54/43/30 32/24/22 31/2/21 55/3/31 
f 23/31/13 42/40/24 62/41/38 24/30/14 
f 24/30/14 62/41/38 61/42/37 25/29/15 
f 25/29/15 61/42/37 60/2/36 26/3/16 
# 66 polygons

