# 3ds Max Wavefront OBJ Exporter v0.97b - (c)2007 guruware
# File Created: 21.01.2021 10:19:23

#
# object Kussen_los
#

v  -48.4842 17.8540 -40.2133
v  -48.0537 16.5685 -39.5498
v  -46.9505 16.7346 -39.0770
v  -47.3252 17.9520 -40.0358
v  -45.2727 16.7346 -39.0770
v  -45.7035 17.8102 -39.9860
v  -43.0795 16.6849 -39.2185
v  -43.0795 17.7258 -39.9564
v  -40.9693 16.7346 -39.0770
v  -40.4914 17.8102 -39.9860
v  -39.3649 16.7346 -39.0770
v  -38.7789 17.9520 -40.0358
v  -38.2207 16.5685 -39.5498
v  -37.8796 17.8314 -40.2574
v  -47.8624 14.9438 -38.9790
v  -46.7968 15.1099 -38.5062
v  -45.0292 15.2609 -38.0765
v  -43.0795 15.3069 -37.9456
v  -41.2959 15.2609 -38.0765
v  -39.7433 15.1099 -38.5062
v  -38.4865 14.9438 -38.9790
v  -47.6917 13.3192 -38.4082
v  -46.7968 13.4356 -38.0769
v  -45.0292 13.6822 -37.3748
v  -43.0795 13.7707 -37.1229
v  -41.2959 13.6822 -37.3748
v  -39.7433 13.4356 -38.0769
v  -38.6498 13.3192 -38.4082
v  -47.8624 11.6945 -37.8374
v  -46.7968 11.8606 -37.3646
v  -45.0292 12.0116 -36.9350
v  -43.0795 12.0576 -36.8040
v  -41.2959 12.0116 -36.9350
v  -39.7433 11.8606 -37.3646
v  -38.4865 11.6945 -37.8374
v  -47.8929 10.2864 -37.3427
v  -46.9505 10.2360 -36.7938
v  -45.2727 10.2360 -36.7938
v  -43.0795 10.1863 -36.9353
v  -40.9693 10.2360 -36.7938
v  -39.3649 10.2360 -36.7938
v  -38.2207 10.0699 -37.2666
v  -47.9369 8.5954 -36.9606
v  -47.4352 8.6601 -36.7713
v  -45.8366 8.8554 -36.8400
v  -43.0795 9.0313 -36.9017
v  -40.5842 8.8554 -36.8400
v  -38.8355 8.8237 -36.7961
v  -37.8187 8.6519 -36.9804
v  -48.4842 17.4984 -41.2255
v  -47.3252 17.5301 -41.2366
v  -46.9505 15.9683 -41.2582
v  -48.0537 16.1466 -40.7506
v  -45.7035 17.3883 -41.1868
v  -45.2727 15.9683 -41.2582
v  -43.0795 17.3039 -41.1571
v  -43.0795 15.9683 -41.2582
v  -40.4914 17.3883 -41.1868
v  -40.9693 15.9683 -41.2582
v  -38.7789 17.5301 -41.2366
v  -39.3649 15.9683 -41.2582
v  -37.8796 17.4759 -41.2695
v  -38.2207 16.1466 -40.7506
v  -46.7968 14.3436 -40.6874
v  -47.8624 14.5219 -40.1798
v  -45.0292 14.2280 -41.0165
v  -43.0795 14.2280 -41.0165
v  -41.2959 14.2280 -41.0165
v  -39.7433 14.3436 -40.6874
v  -38.4865 14.5219 -40.1798
v  -46.7968 12.7189 -40.1166
v  -47.6917 12.8973 -39.6090
v  -45.0292 12.6033 -40.4457
v  -43.0795 12.6033 -40.4457
v  -41.2959 12.6033 -40.4457
v  -39.7433 12.7189 -40.1166
v  -38.6498 12.8973 -39.6090
v  -46.7968 11.0943 -39.5458
v  -47.8624 11.2726 -39.0382
v  -45.0292 10.9787 -39.8750
v  -43.0795 10.9787 -39.8750
v  -41.2959 10.9787 -39.8750
v  -39.7433 11.0943 -39.5458
v  -38.4865 11.2726 -39.0382
v  -46.9505 9.4696 -38.9751
v  -48.0537 9.6480 -38.4674
v  -45.2727 9.4696 -38.9751
v  -43.0795 9.4696 -38.9751
v  -40.9693 9.4696 -38.9751
v  -39.3649 9.4696 -38.9751
v  -38.2207 9.6480 -38.4674
v  -47.4352 8.2382 -37.9721
v  -48.3412 8.2398 -37.9727
v  -45.8366 8.4335 -38.0407
v  -43.0795 8.6094 -38.1025
v  -40.5842 8.4335 -38.0407
v  -38.8355 8.4018 -37.9969
v  -37.8187 8.2963 -37.9925
v  -47.3252 18.0497 -40.7446
v  -48.7684 18.0180 -40.7335
v  -45.7035 17.9079 -40.6949
v  -43.0795 17.8235 -40.6652
v  -40.4914 17.9079 -40.6949
v  -38.7789 18.0497 -40.7446
v  -37.5025 17.9954 -40.7775
v  -37.8436 16.3575 -40.1502
v  -38.1093 14.7329 -39.5794
v  -38.2726 13.1082 -39.0086
v  -38.1093 11.4836 -38.4378
v  -37.8436 9.8589 -37.8670
v  -37.4416 8.1216 -37.2567
v  -38.8355 8.2272 -37.2610
v  -40.5842 8.2589 -37.3049
v  -43.0795 8.4348 -37.3667
v  -45.8366 8.2589 -37.3049
v  -47.4352 8.0635 -37.2363
v  -48.6253 8.0652 -37.2368
v  -48.1770 10.0754 -37.9431
v  -48.1466 11.4836 -38.4378
v  -47.9758 13.1082 -39.0086
v  -48.1466 14.7329 -39.5794
v  -48.3379 16.3575 -40.1502
# 122 vertices

vn -0.5601 0.5098 0.6530
vn -0.6873 0.1576 0.7091
vn -0.1977 0.4440 0.8739
vn -0.0519 0.8604 0.5070
vn 0.0339 0.6099 0.7917
vn 0.0432 0.8747 0.4828
vn -0.0013 0.6290 0.7774
vn -0.0001 0.8513 0.5247
vn -0.0350 0.6112 0.7907
vn -0.0418 0.8751 0.4821
vn 0.1928 0.4244 0.8847
vn 0.1082 0.8439 0.5255
vn 0.6481 0.1977 0.7354
vn 0.5075 0.5383 0.6728
vn -0.7109 0.1613 0.6845
vn -0.3353 0.2592 0.9058
vn -0.1546 0.4707 0.8687
vn 0.0032 0.5787 0.8156
vn 0.1720 0.4651 0.8684
vn 0.3220 0.2410 0.9156
vn 0.6439 0.1767 0.7444
vn -0.6778 0.2437 0.6937
vn -0.3764 0.3071 0.8741
vn -0.2624 0.3198 0.9104
vn 0.0062 0.3315 0.9434
vn 0.2913 0.3171 0.9026
vn 0.3685 0.3081 0.8771
vn 0.6102 0.2626 0.7475
vn -0.7174 0.2709 0.6418
vn -0.3353 0.3643 0.8688
vn -0.1546 0.1760 0.9722
vn 0.0032 0.0586 0.9983
vn 0.1720 0.1803 0.9685
vn 0.3220 0.3846 0.8651
vn 0.6439 0.3278 0.6914
vn -0.7274 0.2088 0.6537
vn -0.2258 0.2065 0.9520
vn 0.0347 0.0133 0.9993
vn -0.0013 -0.0197 0.9998
vn -0.0344 0.0153 0.9993
vn 0.1929 0.2172 0.9569
vn 0.6460 0.3303 0.6882
vn -0.4074 0.1066 0.9070
vn -0.1379 -0.2754 0.9514
vn 0.0640 -0.3433 0.9371
vn -0.0021 -0.2995 0.9541
vn -0.0388 -0.3483 0.9366
vn 0.0638 -0.2856 0.9562
vn 0.4871 0.0287 0.8728
vn -0.5540 0.0396 -0.8316
vn 0.0198 0.3867 -0.9220
vn -0.2098 -0.1908 -0.9589
vn -0.7004 -0.3672 -0.6121
vn 0.0439 0.3921 -0.9189
vn -0.0000 -0.0439 -0.9990
vn -0.0002 0.3999 -0.9165
vn -0.0000 -0.0312 -0.9995
vn -0.0424 0.3928 -0.9186
vn -0.0345 0.3961 -0.9176
vn 0.2049 -0.2142 -0.9551
vn 0.4652 0.0397 -0.8843
vn 0.6619 -0.3790 -0.6467
vn -0.3217 -0.3272 -0.8885
vn -0.7206 -0.2999 -0.6251
vn -0.0922 -0.2410 -0.9661
vn -0.0000 -0.2357 -0.9718
vn 0.1029 -0.2434 -0.9644
vn 0.3018 -0.3465 -0.8882
vn 0.6535 -0.3261 -0.6830
vn -0.3599 -0.3093 -0.8803
vn -0.7402 -0.2229 -0.6344
vn -0.0973 -0.3299 -0.9390
vn -0.0000 -0.3315 -0.9435
vn 0.1103 -0.3294 -0.9377
vn 0.3327 -0.3126 -0.8897
vn 0.6696 -0.2462 -0.7007
vn -0.3217 -0.3004 -0.8979
vn -0.7206 -0.1569 -0.6753
vn -0.0922 -0.4163 -0.9046
vn -0.0000 -0.4239 -0.9057
vn 0.1029 -0.4133 -0.9048
vn 0.3018 -0.2851 -0.9097
vn 0.6535 -0.1727 -0.7369
vn -0.2062 -0.4448 -0.8716
vn -0.7652 -0.0954 -0.6367
vn -0.0000 -0.5938 -0.8046
vn -0.0000 -0.6171 -0.7868
vn 0.2048 -0.4534 -0.8675
vn 0.6582 -0.1105 -0.7447
vn 0.0384 -0.8532 -0.5202
vn -0.5225 -0.5610 -0.6421
vn 0.0651 -0.8605 -0.5053
vn -0.0023 -0.8704 -0.4924
vn -0.0240 -0.8617 -0.5068
vn -0.0499 -0.8637 -0.5015
vn 0.4658 -0.5872 -0.6620
vn 0.0340 0.9429 -0.3313
vn -0.7648 0.6279 -0.1441
vn 0.0637 0.9415 -0.3308
vn -0.0002 0.9435 -0.3315
vn -0.0615 0.9417 -0.3308
vn -0.0273 0.9449 -0.3261
vn 0.7745 0.6147 -0.1495
vn 0.9850 -0.1613 0.0620
vn 0.9922 -0.1177 0.0413
vn 1.0000 -0.0000 -0.0000
vn 0.9922 0.1177 -0.0413
vn 0.9828 0.1744 -0.0613
vn 0.7365 -0.6128 0.2864
vn -0.0492 -0.9400 0.3376
vn -0.0495 -0.9433 0.3281
vn -0.0036 -0.9435 0.3315
vn 0.0990 -0.9388 0.3298
vn 0.0622 -0.9416 0.3308
vn -0.7518 -0.5520 0.3607
vn -0.9896 0.1316 0.0585
vn -0.9983 0.0556 -0.0195
vn -1.0000 -0.0000 -0.0000
vn -0.9945 -0.0988 0.0347
vn -0.9842 -0.1673 0.0588
# 120 vertex normals

vt 1.0000 0.0000 0.0000
vt 1.0000 0.1667 0.0000
vt 0.8333 0.1667 0.0000
vt 0.8333 0.0000 0.0000
vt 0.6667 0.1667 0.0000
vt 0.6667 0.0000 0.0000
vt 0.5000 0.1667 0.0000
vt 0.5000 0.0000 0.0000
vt 0.3333 0.1667 0.0000
vt 0.3333 0.0000 0.0000
vt 0.1667 0.1667 0.0000
vt 0.1667 0.0000 0.0000
vt -0.0000 0.1667 0.0000
vt -0.0000 0.0000 0.0000
vt 1.0000 0.3333 0.0000
vt 0.8333 0.3333 0.0000
vt 0.6667 0.3333 0.0000
vt 0.5000 0.3333 0.0000
vt 0.3333 0.3333 0.0000
vt 0.1667 0.3333 0.0000
vt -0.0000 0.3333 0.0000
vt 1.0000 0.5000 0.0000
vt 0.8333 0.5000 0.0000
vt 0.6667 0.5000 0.0000
vt 0.5000 0.5000 0.0000
vt 0.3333 0.5000 0.0000
vt 0.1667 0.5000 0.0000
vt -0.0000 0.5000 0.0000
vt 1.0000 0.6667 0.0000
vt 0.8333 0.6667 0.0000
vt 0.6667 0.6667 0.0000
vt 0.5000 0.6667 0.0000
vt 0.3333 0.6667 0.0000
vt 0.1667 0.6667 0.0000
vt -0.0000 0.6667 0.0000
vt 1.0000 0.8333 0.0000
vt 0.8333 0.8333 0.0000
vt 0.6667 0.8333 0.0000
vt 0.5000 0.8333 0.0000
vt 0.3333 0.8333 0.0000
vt 0.1667 0.8333 0.0000
vt -0.0000 0.8333 0.0000
vt 1.0000 1.0000 0.0000
vt 0.8333 1.0000 0.0000
vt 0.6667 1.0000 0.0000
vt 0.5000 1.0000 0.0000
vt 0.3333 1.0000 0.0000
vt 0.1667 1.0000 0.0000
vt -0.0000 1.0000 0.0000
vt 0.0000 0.0000 0.0000
vt 0.0000 0.1667 0.0000
vt 0.0000 0.3333 0.0000
vt 0.0000 0.5000 0.0000
vt 0.0000 0.6667 0.0000
vt 0.0000 0.8333 0.0000
vt 0.0000 1.0000 0.0000
# 56 texture coords

o Kussen_los
g Kussen_los
s 131075
f 1/1/1 2/2/2 3/3/3 4/4/4 
f 4/4/4 3/3/3 5/5/5 6/6/6 
f 6/6/6 5/5/5 7/7/7 8/8/8 
f 8/8/8 7/7/7 9/9/9 10/10/10 
f 10/10/10 9/9/9 11/11/11 12/12/12 
f 12/12/12 11/11/11 13/13/13 14/14/14 
f 2/2/2 15/15/15 16/16/16 3/3/3 
f 3/3/3 16/16/16 17/17/17 5/5/5 
f 5/5/5 17/17/17 18/18/18 7/7/7 
f 7/7/7 18/18/18 19/19/19 9/9/9 
f 9/9/9 19/19/19 20/20/20 11/11/11 
f 11/11/11 20/20/20 21/21/21 13/13/13 
f 15/15/15 22/22/22 23/23/23 16/16/16 
f 16/16/16 23/23/23 24/24/24 17/17/17 
f 17/17/17 24/24/24 25/25/25 18/18/18 
f 18/18/18 25/25/25 26/26/26 19/19/19 
f 19/19/19 26/26/26 27/27/27 20/20/20 
f 20/20/20 27/27/27 28/28/28 21/21/21 
f 22/22/22 29/29/29 30/30/30 23/23/23 
f 23/23/23 30/30/30 31/31/31 24/24/24 
f 24/24/24 31/31/31 32/32/32 25/25/25 
f 25/25/25 32/32/32 33/33/33 26/26/26 
f 26/26/26 33/33/33 34/34/34 27/27/27 
f 27/27/27 34/34/34 35/35/35 28/28/28 
f 29/29/29 36/36/36 37/37/37 30/30/30 
f 30/30/30 37/37/37 38/38/38 31/31/31 
f 31/31/31 38/38/38 39/39/39 32/32/32 
f 32/32/32 39/39/39 40/40/40 33/33/33 
f 33/33/33 40/40/40 41/41/41 34/34/34 
f 34/34/34 41/41/41 42/42/42 35/35/35 
f 36/36/36 43/43/43 44/44/44 37/37/37 
f 37/37/37 44/44/44 45/45/45 38/38/38 
f 38/38/38 45/45/45 46/46/46 39/39/39 
f 39/39/39 46/46/46 47/47/47 40/40/40 
f 40/40/40 47/47/47 48/48/48 41/41/41 
f 41/41/41 48/48/48 49/49/49 42/42/42 
s 131077
f 50/50/50 51/12/51 52/11/52 53/51/53 
f 51/12/51 54/10/54 55/9/55 52/11/52 
f 54/10/54 56/8/56 57/7/57 55/9/55 
f 56/8/56 58/6/58 59/5/55 57/7/57 
f 58/6/58 60/4/59 61/3/60 59/5/55 
f 60/4/59 62/1/61 63/2/62 61/3/60 
f 53/51/53 52/11/52 64/20/63 65/52/64 
f 52/11/52 55/9/55 66/19/65 64/20/63 
f 55/9/55 57/7/57 67/18/66 66/19/65 
f 57/7/57 59/5/55 68/17/67 67/18/66 
f 59/5/55 61/3/60 69/16/68 68/17/67 
f 61/3/60 63/2/62 70/15/69 69/16/68 
f 65/52/64 64/20/63 71/27/70 72/53/71 
f 64/20/63 66/19/65 73/26/72 71/27/70 
f 66/19/65 67/18/66 74/25/73 73/26/72 
f 67/18/66 68/17/67 75/24/74 74/25/73 
f 68/17/67 69/16/68 76/23/75 75/24/74 
f 69/16/68 70/15/69 77/22/76 76/23/75 
f 72/53/71 71/27/70 78/34/77 79/54/78 
f 71/27/70 73/26/72 80/33/79 78/34/77 
f 73/26/72 74/25/73 81/32/80 80/33/79 
f 74/25/73 75/24/74 82/31/81 81/32/80 
f 75/24/74 76/23/75 83/30/82 82/31/81 
f 76/23/75 77/22/76 84/29/83 83/30/82 
f 79/54/78 78/34/77 85/41/84 86/55/85 
f 78/34/77 80/33/79 87/40/86 85/41/84 
f 80/33/79 81/32/80 88/39/87 87/40/86 
f 81/32/80 82/31/81 89/38/86 88/39/87 
f 82/31/81 83/30/82 90/37/88 89/38/86 
f 83/30/82 84/29/83 91/36/89 90/37/88 
f 86/55/85 85/41/84 92/48/90 93/56/91 
f 85/41/84 87/40/86 94/47/92 92/48/90 
f 87/40/86 88/39/87 95/46/93 94/47/92 
f 88/39/87 89/38/86 96/45/94 95/46/93 
f 89/38/86 90/37/88 97/44/95 96/45/94 
f 90/37/88 91/36/89 98/43/96 97/44/95 
s 131081
f 1/50/1 4/12/4 99/27/97 100/53/98 
f 4/12/4 6/10/6 101/26/99 99/27/97 
f 6/10/6 8/8/8 102/25/100 101/26/99 
f 8/8/8 10/6/10 103/24/101 102/25/100 
f 10/6/10 12/4/12 104/23/102 103/24/101 
f 12/4/12 14/1/14 105/22/103 104/23/102 
f 100/53/98 99/27/97 51/48/51 50/56/50 
f 99/27/97 101/26/99 54/47/54 51/48/51 
f 101/26/99 102/25/100 56/46/56 54/47/54 
f 102/25/100 103/24/101 58/45/58 56/46/56 
f 103/24/101 104/23/102 60/44/59 58/45/58 
f 104/23/102 105/22/103 62/43/61 60/44/59 
s 131089
f 14/50/14 13/12/13 106/27/104 105/53/103 
f 13/12/13 21/10/21 107/26/105 106/27/104 
f 21/10/21 28/8/28 108/25/106 107/26/105 
f 28/8/28 35/6/35 109/24/107 108/25/106 
f 35/6/35 42/4/42 110/23/108 109/24/107 
f 42/4/42 49/1/49 111/22/109 110/23/108 
f 105/53/103 106/27/104 63/48/62 62/56/61 
f 106/27/104 107/26/105 70/47/69 63/48/62 
f 107/26/105 108/25/106 77/46/76 70/47/69 
f 108/25/106 109/24/107 84/45/83 77/46/76 
f 109/24/107 110/23/108 91/44/89 84/45/83 
f 110/23/108 111/22/109 98/43/96 91/44/89 
s 131105
f 49/50/49 48/12/48 112/27/110 111/53/109 
f 48/12/48 47/10/47 113/26/111 112/27/110 
f 47/10/47 46/8/46 114/25/112 113/26/111 
f 46/8/46 45/6/45 115/24/113 114/25/112 
f 45/6/45 44/4/44 116/23/114 115/24/113 
f 44/4/44 43/1/43 117/22/115 116/23/114 
f 111/53/109 112/27/110 97/48/95 98/56/96 
f 112/27/110 113/26/111 96/47/94 97/48/95 
f 113/26/111 114/25/112 95/46/93 96/47/94 
f 114/25/112 115/24/113 94/45/92 95/46/93 
f 115/24/113 116/23/114 92/44/90 94/45/92 
f 116/23/114 117/22/115 93/43/91 92/44/90 
s 131137
f 43/50/43 36/12/36 118/27/116 117/53/115 
f 36/12/36 29/10/29 119/26/117 118/27/116 
f 29/10/29 22/8/22 120/25/118 119/26/117 
f 22/8/22 15/6/15 121/24/119 120/25/118 
f 15/6/15 2/4/2 122/23/120 121/24/119 
f 2/4/2 1/1/1 100/22/98 122/23/120 
f 117/53/115 118/27/116 86/48/85 93/56/91 
f 118/27/116 119/26/117 79/47/78 86/48/85 
f 119/26/117 120/25/118 72/46/71 79/47/78 
f 120/25/118 121/24/119 65/45/64 72/46/71 
f 121/24/119 122/23/120 53/44/53 65/45/64 
f 122/23/120 100/22/98 50/43/50 53/44/53 
# 120 polygons

