# 3ds Max Wavefront OBJ Exporter v0.97b - (c)2007 guruware
# File Created: 21.01.2021 10:18:09

#
# object Kussen_los_5
#

v  -88.2173 15.9442 -35.0380
v  -87.5573 14.9031 -34.7550
v  -86.5817 15.0729 -34.9790
v  -87.3456 16.0436 -35.4877
v  -85.4405 15.0862 -35.7997
v  -86.2134 15.9402 -36.2424
v  -84.0161 15.0553 -36.9671
v  -84.4113 15.8917 -37.5031
v  -82.5133 15.1202 -37.9049
v  -82.6682 15.9814 -38.7921
v  -81.4220 15.1329 -38.6897
v  -81.5324 16.1112 -39.6684
v  -80.8689 14.9810 -39.5652
v  -81.0248 16.0072 -40.2548
v  -87.0939 13.5722 -34.4067
v  -86.1439 13.7417 -34.6123
v  -84.7370 13.9020 -35.1901
v  -83.3484 13.9620 -36.0564
v  -82.1976 13.9315 -37.0164
v  -81.3461 13.7975 -38.0628
v  -80.7164 13.6464 -38.9933
v  -86.6445 12.2411 -34.0484
v  -85.8780 12.3610 -34.2649
v  -84.3413 12.6141 -34.6608
v  -82.8951 12.7154 -35.4463
v  -81.8019 12.6437 -36.4871
v  -81.0802 12.4169 -37.7154
v  -80.4942 12.3127 -38.4715
v  -86.4273 10.9073 -33.5230
v  -85.4774 11.0768 -33.7286
v  -84.0704 11.2371 -34.3064
v  -82.6818 11.2971 -35.1727
v  -81.5310 11.2666 -36.1327
v  -80.6795 11.1326 -37.1791
v  -80.0498 10.9815 -38.1096
v  -86.1592 9.7522 -33.1251
v  -85.2486 9.7431 -33.2116
v  -84.1074 9.7564 -34.0323
v  -82.6829 9.7256 -35.1997
v  -81.1802 9.7905 -36.1375
v  -80.0889 9.8032 -36.9223
v  -79.5358 9.6512 -37.7977
v  -85.9457 8.3552 -32.7877
v  -85.5143 8.4220 -32.9067
v  -84.4670 8.5949 -33.7419
v  -82.6277 8.7610 -35.1384
v  -80.8943 8.6365 -36.3112
v  -79.6824 8.6258 -37.1358
v  -79.0749 8.4815 -37.7527
v  -88.6993 15.5995 -35.7139
v  -87.9175 15.6346 -36.2895
v  -87.6205 14.3301 -36.4355
v  -88.1292 14.4942 -35.5568
v  -86.7853 15.5312 -37.0442
v  -86.4793 14.3433 -37.2562
v  -84.9831 15.4827 -38.3049
v  -84.9875 14.3607 -38.3291
v  -83.2401 15.5725 -39.5939
v  -83.5521 14.3774 -39.3614
v  -82.1043 15.7023 -40.4702
v  -82.4609 14.3901 -40.1462
v  -81.5068 15.6625 -40.9306
v  -81.4408 14.5720 -40.3670
v  -87.1828 12.9988 -36.0688
v  -87.6658 13.1633 -35.2086
v  -86.1372 12.9007 -37.1532
v  -84.8110 12.9162 -38.1070
v  -83.5978 12.9303 -38.9795
v  -82.3849 13.0547 -39.5193
v  -81.2883 13.2375 -39.7951
v  -86.8495 11.6664 -35.6269
v  -87.2164 11.8322 -34.8502
v  -85.8039 11.5683 -36.7114
v  -84.4777 11.5837 -37.6651
v  -83.2645 11.5978 -38.5377
v  -82.0516 11.7222 -39.0774
v  -81.0661 11.9037 -39.2734
v  -86.5162 10.3339 -35.1851
v  -86.9992 10.4984 -34.3248
v  -85.4706 10.2358 -36.2695
v  -84.1444 10.2513 -37.2233
v  -82.9312 10.2654 -38.0958
v  -81.7184 10.3898 -38.6356
v  -80.6217 10.5726 -38.9114
v  -86.2874 9.0003 -34.6681
v  -86.7961 9.1644 -33.7894
v  -85.1462 9.0136 -35.4888
v  -83.6544 9.0309 -36.5617
v  -82.2190 9.0476 -37.5939
v  -81.1277 9.0603 -38.3788
v  -80.1077 9.2423 -38.5995
v  -86.0861 8.0131 -33.7085
v  -86.7027 8.0073 -33.2658
v  -85.0388 8.1860 -34.5437
v  -83.1996 8.3520 -35.9402
v  -81.4662 8.2275 -37.1130
v  -80.2542 8.2169 -37.9376
v  -79.5570 8.1368 -38.4285
v  -87.6948 16.0922 -35.9725
v  -88.6700 16.0548 -35.2579
v  -86.5627 15.9888 -36.7273
v  -84.7605 15.9403 -37.9879
v  -83.0174 16.0301 -39.2769
v  -81.8816 16.1599 -40.1532
v  -81.0276 16.1231 -40.7981
v  -80.8983 14.7795 -40.1506
v  -80.7458 13.4449 -39.5787
v  -80.5236 12.1112 -39.0569
v  -80.0793 10.7801 -38.6950
v  -79.5652 9.4497 -38.3831
v  -78.9354 8.0281 -38.1072
v  -79.8892 8.1051 -37.4319
v  -81.1012 8.1158 -36.6072
v  -82.8345 8.2403 -35.4344
v  -84.6738 8.0742 -34.0379
v  -85.7211 7.9013 -33.2028
v  -86.5310 7.8933 -32.6210
v  -86.6384 9.5455 -33.3870
v  -86.9066 10.7006 -33.7849
v  -87.1237 12.0344 -34.3103
v  -87.5731 13.3655 -34.6686
v  -88.0365 14.6964 -35.0169
# 122 vertices

vn -0.0948 0.5400 0.8363
vn -0.1513 0.1903 0.9700
vn 0.3308 0.4901 0.8065
vn 0.2186 0.8868 0.4073
vn 0.4642 0.6534 0.5980
vn 0.2812 0.9006 0.3315
vn 0.4266 0.6713 0.6062
vn 0.2713 0.8792 0.3917
vn 0.4076 0.6540 0.6373
vn 0.2118 0.9002 0.3806
vn 0.6548 0.4748 0.5880
vn 0.3600 0.8729 0.3294
vn 0.9466 0.2445 0.2101
vn 0.7823 0.5797 0.2279
vn -0.1848 0.1924 0.9637
vn 0.2450 0.3060 0.9200
vn 0.3616 0.5168 0.7760
vn 0.4544 0.6232 0.6365
vn 0.6268 0.5143 0.5853
vn 0.7851 0.2946 0.5448
vn 0.9493 0.2239 0.2207
vn -0.1559 0.2756 0.9486
vn 0.1912 0.3517 0.9164
vn 0.3044 0.3676 0.8788
vn 0.5413 0.3835 0.7483
vn 0.7495 0.3696 0.5492
vn 0.7977 0.3600 0.4838
vn 0.9202 0.3096 0.2395
vn -0.2194 0.2994 0.9286
vn 0.2193 0.4089 0.8858
vn 0.4338 0.2284 0.8716
vn 0.5817 0.1141 0.8053
vn 0.6965 0.2355 0.6778
vn 0.7499 0.4352 0.4982
vn 0.9123 0.3718 0.1717
vn -0.2181 0.2380 0.9465
vn 0.3630 0.2570 0.8956
vn 0.6098 0.0693 0.7895
vn 0.5822 0.0360 0.8123
vn 0.5536 0.0706 0.8298
vn 0.7052 0.2720 0.6547
vn 0.9120 0.3742 0.1678
vn 0.1933 0.1531 0.9691
vn 0.4533 -0.2232 0.8629
vn 0.6116 -0.2899 0.7361
vn 0.5661 -0.2459 0.7868
vn 0.5281 -0.2960 0.7959
vn 0.6203 -0.2313 0.7495
vn 0.9028 0.0819 0.4222
vn -0.9358 -0.0120 -0.3524
vn -0.5366 0.3349 -0.7745
vn -0.7213 -0.2459 -0.6475
vn -0.9104 -0.4073 -0.0728
vn -0.5154 0.3407 -0.7863
vn -0.5802 -0.0994 -0.8084
vn -0.5501 0.3482 -0.7590
vn -0.5810 -0.0868 -0.8093
vn -0.5853 0.3407 -0.7358
vn -0.5784 0.3440 -0.7396
vn -0.3814 -0.2651 -0.8856
vn -0.1391 -0.0052 -0.9903
vn 0.1759 -0.4082 -0.8958
vn -0.7656 -0.3792 -0.5197
vn -0.9371 -0.3411 -0.0742
vn -0.6280 -0.2952 -0.7201
vn -0.5567 -0.2894 -0.7787
vn -0.4685 -0.2958 -0.8325
vn -0.2585 -0.3926 -0.8826
vn 0.1457 -0.3575 -0.9225
vn -0.7925 -0.3612 -0.4914
vn -0.9615 -0.2648 -0.0734
vn -0.6127 -0.3826 -0.6915
vn -0.5363 -0.3835 -0.7519
vn -0.4435 -0.3801 -0.8117
vn -0.2357 -0.3585 -0.9033
vn 0.1453 -0.2785 -0.9494
vn -0.7722 -0.3530 -0.5284
vn -0.9721 -0.2011 -0.1206
vn -0.5851 -0.4669 -0.6631
vn -0.5106 -0.4737 -0.7176
vn -0.4269 -0.4620 -0.7774
vn -0.2735 -0.3325 -0.9026
vn 0.1082 -0.2073 -0.9723
vn -0.6572 -0.4946 -0.5687
vn -0.9883 -0.1380 -0.0657
vn -0.4449 -0.6376 -0.6289
vn -0.4336 -0.6600 -0.6135
vn -0.3209 -0.4990 -0.8050
vn 0.1050 -0.1455 -0.9838
vn -0.2376 -0.8804 -0.4104
vn -0.7757 -0.6008 -0.1933
vn -0.2069 -0.8867 -0.4135
vn -0.2538 -0.8964 -0.3634
vn -0.2801 -0.8888 -0.3627
vn -0.2979 -0.8907 -0.3432
vn 0.0161 -0.6187 -0.7855
vn -0.2033 0.9233 -0.3259
vn -0.7301 0.6117 0.3047
vn -0.1788 0.9222 -0.3428
vn -0.2312 0.9235 -0.3061
vn -0.2805 0.9212 -0.2698
vn -0.2501 0.9250 -0.2860
vn 0.5169 0.6127 -0.5978
vn 0.8422 -0.1483 -0.5183
vn 0.8343 -0.1058 -0.5411
vn 0.8118 0.0094 -0.5838
vn 0.7767 0.1245 -0.6175
vn 0.7551 0.1800 -0.6304
vn 0.7894 -0.5889 -0.1734
vn 0.1945 -0.9202 0.3398
vn 0.1888 -0.9240 0.3324
vn 0.2281 -0.9235 0.3084
vn 0.3103 -0.9180 0.2469
vn 0.2811 -0.9211 0.2693
vn -0.3780 -0.5381 0.7533
vn -0.7746 0.1253 0.6200
vn -0.8240 0.0450 0.5648
vn -0.8118 -0.0094 0.5838
vn -0.7832 -0.1061 0.6127
vn -0.7580 -0.1731 0.6289
# 120 vertex normals

vt 1.0000 0.0000 0.0000
vt 1.0000 0.1667 0.0000
vt 0.8333 0.1667 0.0000
vt 0.8333 0.0000 0.0000
vt 0.6667 0.1667 0.0000
vt 0.6667 0.0000 0.0000
vt 0.5000 0.1667 0.0000
vt 0.5000 0.0000 0.0000
vt 0.3333 0.1667 0.0000
vt 0.3333 0.0000 0.0000
vt 0.1667 0.1667 0.0000
vt 0.1667 0.0000 0.0000
vt -0.0000 0.1667 0.0000
vt -0.0000 0.0000 0.0000
vt 1.0000 0.3333 0.0000
vt 0.8333 0.3333 0.0000
vt 0.6667 0.3333 0.0000
vt 0.5000 0.3333 0.0000
vt 0.3333 0.3333 0.0000
vt 0.1667 0.3333 0.0000
vt -0.0000 0.3333 0.0000
vt 1.0000 0.5000 0.0000
vt 0.8333 0.5000 0.0000
vt 0.6667 0.5000 0.0000
vt 0.5000 0.5000 0.0000
vt 0.3333 0.5000 0.0000
vt 0.1667 0.5000 0.0000
vt -0.0000 0.5000 0.0000
vt 1.0000 0.6667 0.0000
vt 0.8333 0.6667 0.0000
vt 0.6667 0.6667 0.0000
vt 0.5000 0.6667 0.0000
vt 0.3333 0.6667 0.0000
vt 0.1667 0.6667 0.0000
vt -0.0000 0.6667 0.0000
vt 1.0000 0.8333 0.0000
vt 0.8333 0.8333 0.0000
vt 0.6667 0.8333 0.0000
vt 0.5000 0.8333 0.0000
vt 0.3333 0.8333 0.0000
vt 0.1667 0.8333 0.0000
vt -0.0000 0.8333 0.0000
vt 1.0000 1.0000 0.0000
vt 0.8333 1.0000 0.0000
vt 0.6667 1.0000 0.0000
vt 0.5000 1.0000 0.0000
vt 0.3333 1.0000 0.0000
vt 0.1667 1.0000 0.0000
vt -0.0000 1.0000 0.0000
vt 0.0000 0.0000 0.0000
vt 0.0000 0.1667 0.0000
vt 0.0000 0.3333 0.0000
vt 0.0000 0.5000 0.0000
vt 0.0000 0.6667 0.0000
vt 0.0000 0.8333 0.0000
vt 0.0000 1.0000 0.0000
# 56 texture coords

o Kussen_los_5
g Kussen_los_5
s 131075
f 1/1/1 2/2/2 3/3/3 4/4/4 
f 4/4/4 3/3/3 5/5/5 6/6/6 
f 6/6/6 5/5/5 7/7/7 8/8/8 
f 8/8/8 7/7/7 9/9/9 10/10/10 
f 10/10/10 9/9/9 11/11/11 12/12/12 
f 12/12/12 11/11/11 13/13/13 14/14/14 
f 2/2/2 15/15/15 16/16/16 3/3/3 
f 3/3/3 16/16/16 17/17/17 5/5/5 
f 5/5/5 17/17/17 18/18/18 7/7/7 
f 7/7/7 18/18/18 19/19/19 9/9/9 
f 9/9/9 19/19/19 20/20/20 11/11/11 
f 11/11/11 20/20/20 21/21/21 13/13/13 
f 15/15/15 22/22/22 23/23/23 16/16/16 
f 16/16/16 23/23/23 24/24/24 17/17/17 
f 17/17/17 24/24/24 25/25/25 18/18/18 
f 18/18/18 25/25/25 26/26/26 19/19/19 
f 19/19/19 26/26/26 27/27/27 20/20/20 
f 20/20/20 27/27/27 28/28/28 21/21/21 
f 22/22/22 29/29/29 30/30/30 23/23/23 
f 23/23/23 30/30/30 31/31/31 24/24/24 
f 24/24/24 31/31/31 32/32/32 25/25/25 
f 25/25/25 32/32/32 33/33/33 26/26/26 
f 26/26/26 33/33/33 34/34/34 27/27/27 
f 27/27/27 34/34/34 35/35/35 28/28/28 
f 29/29/29 36/36/36 37/37/37 30/30/30 
f 30/30/30 37/37/37 38/38/38 31/31/31 
f 31/31/31 38/38/38 39/39/39 32/32/32 
f 32/32/32 39/39/39 40/40/40 33/33/33 
f 33/33/33 40/40/40 41/41/41 34/34/34 
f 34/34/34 41/41/41 42/42/42 35/35/35 
f 36/36/36 43/43/43 44/44/44 37/37/37 
f 37/37/37 44/44/44 45/45/45 38/38/38 
f 38/38/38 45/45/45 46/46/46 39/39/39 
f 39/39/39 46/46/46 47/47/47 40/40/40 
f 40/40/40 47/47/47 48/48/48 41/41/41 
f 41/41/41 48/48/48 49/49/49 42/42/42 
s 131077
f 50/50/50 51/12/51 52/11/52 53/51/53 
f 51/12/51 54/10/54 55/9/55 52/11/52 
f 54/10/54 56/8/56 57/7/57 55/9/55 
f 56/8/56 58/6/58 59/5/55 57/7/57 
f 58/6/58 60/4/59 61/3/60 59/5/55 
f 60/4/59 62/1/61 63/2/62 61/3/60 
f 53/51/53 52/11/52 64/20/63 65/52/64 
f 52/11/52 55/9/55 66/19/65 64/20/63 
f 55/9/55 57/7/57 67/18/66 66/19/65 
f 57/7/57 59/5/55 68/17/67 67/18/66 
f 59/5/55 61/3/60 69/16/68 68/17/67 
f 61/3/60 63/2/62 70/15/69 69/16/68 
f 65/52/64 64/20/63 71/27/70 72/53/71 
f 64/20/63 66/19/65 73/26/72 71/27/70 
f 66/19/65 67/18/66 74/25/73 73/26/72 
f 67/18/66 68/17/67 75/24/74 74/25/73 
f 68/17/67 69/16/68 76/23/75 75/24/74 
f 69/16/68 70/15/69 77/22/76 76/23/75 
f 72/53/71 71/27/70 78/34/77 79/54/78 
f 71/27/70 73/26/72 80/33/79 78/34/77 
f 73/26/72 74/25/73 81/32/80 80/33/79 
f 74/25/73 75/24/74 82/31/81 81/32/80 
f 75/24/74 76/23/75 83/30/82 82/31/81 
f 76/23/75 77/22/76 84/29/83 83/30/82 
f 79/54/78 78/34/77 85/41/84 86/55/85 
f 78/34/77 80/33/79 87/40/86 85/41/84 
f 80/33/79 81/32/80 88/39/87 87/40/86 
f 81/32/80 82/31/81 89/38/86 88/39/87 
f 82/31/81 83/30/82 90/37/88 89/38/86 
f 83/30/82 84/29/83 91/36/89 90/37/88 
f 86/55/85 85/41/84 92/48/90 93/56/91 
f 85/41/84 87/40/86 94/47/92 92/48/90 
f 87/40/86 88/39/87 95/46/93 94/47/92 
f 88/39/87 89/38/86 96/45/94 95/46/93 
f 89/38/86 90/37/88 97/44/95 96/45/94 
f 90/37/88 91/36/89 98/43/96 97/44/95 
s 131081
f 1/50/1 4/12/4 99/27/97 100/53/98 
f 4/12/4 6/10/6 101/26/99 99/27/97 
f 6/10/6 8/8/8 102/25/100 101/26/99 
f 8/8/8 10/6/10 103/24/101 102/25/100 
f 10/6/10 12/4/12 104/23/102 103/24/101 
f 12/4/12 14/1/14 105/22/103 104/23/102 
f 100/53/98 99/27/97 51/48/51 50/56/50 
f 99/27/97 101/26/99 54/47/54 51/48/51 
f 101/26/99 102/25/100 56/46/56 54/47/54 
f 102/25/100 103/24/101 58/45/58 56/46/56 
f 103/24/101 104/23/102 60/44/59 58/45/58 
f 104/23/102 105/22/103 62/43/61 60/44/59 
s 131089
f 14/50/14 13/12/13 106/27/104 105/53/103 
f 13/12/13 21/10/21 107/26/105 106/27/104 
f 21/10/21 28/8/28 108/25/106 107/26/105 
f 28/8/28 35/6/35 109/24/107 108/25/106 
f 35/6/35 42/4/42 110/23/108 109/24/107 
f 42/4/42 49/1/49 111/22/109 110/23/108 
f 105/53/103 106/27/104 63/48/62 62/56/61 
f 106/27/104 107/26/105 70/47/69 63/48/62 
f 107/26/105 108/25/106 77/46/76 70/47/69 
f 108/25/106 109/24/107 84/45/83 77/46/76 
f 109/24/107 110/23/108 91/44/89 84/45/83 
f 110/23/108 111/22/109 98/43/96 91/44/89 
s 131105
f 49/50/49 48/12/48 112/27/110 111/53/109 
f 48/12/48 47/10/47 113/26/111 112/27/110 
f 47/10/47 46/8/46 114/25/112 113/26/111 
f 46/8/46 45/6/45 115/24/113 114/25/112 
f 45/6/45 44/4/44 116/23/114 115/24/113 
f 44/4/44 43/1/43 117/22/115 116/23/114 
f 111/53/109 112/27/110 97/48/95 98/56/96 
f 112/27/110 113/26/111 96/47/94 97/48/95 
f 113/26/111 114/25/112 95/46/93 96/47/94 
f 114/25/112 115/24/113 94/45/92 95/46/93 
f 115/24/113 116/23/114 92/44/90 94/45/92 
f 116/23/114 117/22/115 93/43/91 92/44/90 
s 131137
f 43/50/43 36/12/36 118/27/116 117/53/115 
f 36/12/36 29/10/29 119/26/117 118/27/116 
f 29/10/29 22/8/22 120/25/118 119/26/117 
f 22/8/22 15/6/15 121/24/119 120/25/118 
f 15/6/15 2/4/2 122/23/120 121/24/119 
f 2/4/2 1/1/1 100/22/98 122/23/120 
f 117/53/115 118/27/116 86/48/85 93/56/91 
f 118/27/116 119/26/117 79/47/78 86/48/85 
f 119/26/117 120/25/118 72/46/71 79/47/78 
f 120/25/118 121/24/119 65/45/64 72/46/71 
f 121/24/119 122/23/120 53/44/53 65/45/64 
f 122/23/120 100/22/98 50/43/50 53/44/53 
# 120 polygons

