# Blender v2.91.2 OBJ File: ''
# www.blender.org
mtllib Frame_sofa_stoel_zonder_kussens_Fixed.mtl
o Sofa_stoel
v -8.899948 -7.018657 -5.606693
v 9.102547 -7.158657 -5.671295
v 9.061150 -7.158159 6.439606
v -8.941353 -7.018059 6.504204
v -9.979851 -4.901060 10.615908
v 10.002548 -5.089860 10.544308
v 10.066147 -5.090657 -8.033794
v -9.916252 -4.901857 -7.962196
v -9.960350 -6.993160 10.615705
v 10.022049 -7.181960 10.544106
v 10.659546 -7.197760 10.541805
v 10.666252 -7.197760 8.583605
v 10.723152 -7.198457 -8.036293
v 10.703651 -5.106357 -8.036095
v 10.640152 -5.105560 10.542007
v 10.094147 -7.182857 -10.549194
v -9.888252 -6.994057 -10.477493
v -9.907654 -4.901957 -10.477394
v 10.074753 -5.090756 -10.548996
v -10.485153 -6.979457 -8.003593
v -10.542053 -6.978759 8.616205
v -10.548851 -6.978660 10.617805
v -10.568352 -4.886560 10.618008
v -10.504753 -4.887357 -7.960094
v 10.085548 -7.182756 -8.033993
v 9.110649 -7.158757 -8.030495
v -8.891853 -7.018757 -7.965996
v -9.896851 -6.993957 -7.962395
v -10.051353 9.633842 -7.961090
v 9.931046 9.445044 -8.032692
v 9.939552 9.444942 -10.547890
v -10.042747 9.633743 -10.476292
v -9.953651 -6.993259 8.657505
v -9.904854 -6.993857 -5.603096
v -9.946350 -6.993360 6.507805
v -10.044350 2.046041 10.616407
v -9.980850 2.045243 -7.961689
v -10.569351 2.059743 -7.959492
v -10.632950 2.060540 10.618607
v -9.969749 0.847543 -7.961689
v -10.033249 0.848240 10.616407
v -10.558250 0.862043 -7.959591
v -10.621750 0.862741 10.618507
v -11.588150 0.887343 -7.955891
v -11.651649 0.888140 10.622107
v -11.662849 2.085940 10.622208
v -11.599251 2.085143 -7.955891
v 10.028748 -7.182059 8.585905
v 10.036049 -7.182159 6.436207
v 10.077446 -7.182657 -5.674793
v 10.005951 1.377343 -8.033291
v 9.942451 1.378140 10.544807
v 10.580048 1.362440 10.542507
v 10.643547 1.361643 -8.035591
v 9.953552 0.180340 10.544708
v 10.017151 0.179543 -8.033394
v 10.591148 0.164640 10.542408
v 10.654648 0.163843 -8.035694
v 11.572052 0.140440 10.538908
v 11.635551 0.139643 -8.039196
v 11.624451 1.337443 -8.039089
v 11.560852 1.338241 10.539007
v -8.948654 -7.018059 8.653906
v 9.053749 -7.158060 8.589306
v 9.300049 -9.917657 -7.631493
v 9.944550 -9.933557 -7.633793
v 9.939247 -9.933558 -6.074196
v 9.294746 -9.917657 -6.071896
v -9.043251 -9.769357 -6.006195
v -9.707550 -9.752957 -6.003796
v -9.702248 -9.753057 -7.563293
v -9.037949 -9.769357 -7.565693
v -9.092148 -9.768760 8.289906
v -9.756454 -9.752359 8.292305
v -9.751648 -9.752359 6.871307
v -9.087349 -9.768759 6.868904
v 9.250748 -9.917059 6.803207
v 9.895149 -9.932960 6.800907
v 9.890350 -9.932859 8.221905
v 9.245850 -9.917059 8.224205
vt 0.000000 0.000000
vt 0.333300 0.000000
vt 0.666700 0.000000
vt 1.000000 0.000000
vt 1.000000 0.000000
vt 0.000000 0.000000
vt 1.000000 1.000000
vt 1.000000 1.000000
vt 1.000000 1.000000
vt 0.000000 1.000000
vt 0.000000 1.000000
vt 1.000000 1.000000
vt 0.000000 1.000000
vt 0.000000 1.000000
vt 0.666700 0.000000
vt 0.666700 0.000000
vt 0.000000 0.000000
vt 0.000000 0.000000
vt 0.222200 0.000000
vt 0.444400 0.000000
vt 1.000000 0.000000
vt 1.000000 1.000000
vt 1.000000 1.000000
vt 1.000000 0.000000
vt 1.000000 1.000000
vt 0.000000 1.000000
vt 0.000000 1.000000
vt 1.000000 1.000000
vt 0.000000 1.000000
vt 0.000000 1.000000
vt 0.000000 1.000000
vt 1.000000 1.000000
vt 0.000000 1.000000
vt 1.000000 1.000000
vt 0.000000 1.000000
vt 1.000000 1.000000
vt 1.000000 1.000000
vt 0.000000 1.000000
vt 0.333300 0.000000
vt 0.555600 0.000000
vt 0.777800 0.000000
vt 1.000000 0.000000
vt 1.000000 0.000000
vt 0.333300 0.000000
vt 1.000000 1.000000
vt 1.000000 1.000000
vt 1.000000 1.000000
vt 0.000000 1.000000
vt 0.000000 1.000000
vt 1.000000 1.000000
vt 0.000000 1.000000
vt 0.000000 0.000000
vt 0.000000 0.000000
vt 0.000000 1.000000
vt 0.000000 1.000000
vt 1.000000 1.000000
vt 0.000000 1.000000
vt 1.000000 1.000000
vt 0.000000 1.000000
vt 1.000000 1.000000
vt 1.000000 1.000000
vt 0.000000 1.000000
vt 0.333300 1.000000
vt 0.000000 1.000000
vt 0.000000 1.000000
vt 0.333300 1.000000
vt 0.000000 0.777800
vt 0.000000 0.777800
vt 0.333300 0.777800
vt 0.333300 0.777800
vt 1.000000 0.777800
vt 1.000000 1.000000
vt 1.000000 1.000000
vt 1.000000 0.777800
vt 0.666700 1.000000
vt 0.666700 1.000000
vt 0.666700 0.777800
vt 0.666700 0.777800
vt 1.000000 0.333300
vt 1.000000 0.555600
vt 1.000000 0.555600
vt 1.000000 0.333300
vt 0.666700 0.555600
vt 0.666700 0.555600
vt 0.666700 0.333300
vt 0.666700 0.333300
vt 0.000000 0.555600
vt 0.000000 0.333300
vt 0.000000 0.333300
vt 0.000000 0.555600
vt 0.333300 0.333300
vt 0.333300 0.333300
vt 0.333300 0.555600
vt 0.333300 0.555600
vt 0.000000 0.000000
vt 1.000000 0.000000
vt 0.000000 0.000000
vt 1.000000 0.000000
vt 1.000000 1.000000
vt 0.000000 1.000000
vn 0.5300 -0.6274 -0.5705
vn -0.4978 -0.6500 0.5742
vn 0.2674 -0.3605 -0.8936
vn -0.5405 -0.6404 -0.5457
vn -0.5768 -0.5772 -0.5781
vn 0.5779 -0.5775 -0.5766
vn -0.5405 -0.6404 -0.5456
vn -0.5777 0.5782 -0.5761
vn -0.7072 -0.0065 -0.7070
vn -0.5767 -0.5772 -0.5782
vn -0.5779 0.5775 0.5766
vn 0.5767 0.5772 0.5781
vn 0.5771 0.5764 -0.5785
vn 0.5771 0.5764 -0.5786
vn 0.7070 0.0068 -0.7072
vn 0.5772 0.5764 -0.5785
vn 0.7070 0.0066 -0.7072
vn 0.5767 0.5772 0.5782
vn -0.7071 -0.0066 -0.7070
vn -0.2849 -0.9205 0.2676
vn -0.9993 -0.0381 -0.0034
vn -0.5592 -0.5629 -0.6087
vn -0.2820 -0.9217 0.2665
vn -0.2873 -0.9190 -0.2701
vn -0.0096 -0.7087 0.7054
vn 0.3076 0.3029 0.9020
vn -0.7070 -0.0066 0.7072
vn -0.5810 -0.5716 0.5794
vn 0.5808 0.5723 0.5789
vn 0.5809 0.5717 -0.5794
vn 0.0149 0.7070 -0.7071
vn 0.0200 0.7068 0.7071
vn -0.5592 -0.5630 -0.6086
vn -0.7094 0.0006 -0.7048
vn -0.5778 0.5782 -0.5761
vn 0.7071 0.0068 -0.7071
vn 0.7071 0.0065 0.7071
vn -0.3126 -0.3032 -0.9002
vn 0.7071 0.0066 -0.7071
vn -0.3070 -0.3069 0.9009
vn 0.7071 0.0066 0.7071
vn -0.5808 -0.5723 -0.5789
vn -0.5809 -0.5717 0.5794
vn -0.5740 0.5822 0.5758
vn -0.5736 0.5830 -0.5754
vn -0.3125 -0.3032 -0.9002
vn -0.5735 0.5831 -0.5754
vn 0.2459 -0.9262 0.2859
vn 0.2434 -0.9276 -0.2835
vn 0.2429 -0.9273 0.2847
vn 0.5739 -0.5823 -0.5758
vn 0.7017 -0.7125 0.0024
vn -0.5737 0.5830 -0.5753
vn -0.5739 0.5823 0.5758
vn 0.0148 0.7070 -0.7071
vn -0.2954 0.3000 0.9070
vn -0.0095 -0.7053 0.7088
vn 0.5737 -0.5830 0.5753
vn 0.7071 0.0065 0.7070
vn -0.2954 0.3001 0.9070
vn -0.7070 -0.0067 0.7072
vn -0.7071 -0.0065 -0.7070
vn 0.7071 0.0066 0.7070
vn 0.2960 -0.2960 0.9081
vn 0.7072 0.0066 0.7070
vn 0.2904 -0.2995 -0.9088
vn 0.2960 -0.2961 0.9081
vn -0.7072 -0.0066 -0.7070
vn -0.5739 0.5823 0.5759
vn 0.2960 -0.2960 0.9082
vn 0.5736 -0.5831 0.5754
vn 0.5739 -0.5823 -0.5759
vn 0.5810 0.5716 -0.5794
vn 0.5735 -0.5831 0.5754
vn -0.2849 -0.9204 0.2676
vn -0.0096 -0.7053 0.7088
vn 0.5613 -0.6343 -0.5316
vn -0.5691 -0.6254 -0.5338
vn 0.5611 -0.6348 0.5313
vn -0.2731 -0.9240 0.2676
vn -0.5692 -0.6251 0.5341
vn -0.5692 -0.6251 0.5340
vn -0.5685 -0.6259 -0.5339
vn -0.5686 -0.6256 0.5341
vn 0.5606 -0.6349 -0.5317
vn 0.2674 -0.3604 -0.8936
vn 0.2519 -0.9253 0.2836
vn 0.5604 -0.6353 0.5314
vn 0.2518 -0.9253 0.2836
vn -0.5686 -0.6256 0.5342
vn -0.5678 -0.6228 -0.5383
vn -0.5680 -0.6224 0.5385
vn 0.2525 -0.9255 -0.2823
vn 0.5600 -0.6318 -0.5359
vn 0.2757 -0.3533 0.8940
vn 0.5598 -0.6323 0.5356
vn 0.2434 -0.9276 -0.2834
vn 0.5604 -0.6318 0.5355
vn 0.5606 -0.6313 -0.5359
vn -0.5033 -0.6454 -0.5746
vn -0.5686 -0.6219 0.5385
vn -0.2784 -0.9214 -0.2712
vn -0.5684 -0.6223 -0.5382
vn -0.5686 -0.6219 0.5384
vn -0.2953 0.3000 0.9071
vn -0.0097 -0.7087 0.7054
vn -0.5767 -0.5772 -0.5781
vn -0.7071 -0.0065 -0.7071
vn -0.5592 -0.5629 -0.6086
vn -0.0094 -0.7087 0.7054
vn -0.5693 -0.6251 0.5341
vn -0.5685 -0.6222 -0.5382
usemtl Default_OBJ
s off
f 25/1/1 26/2/2 27/3/3 28/4/4 17/5/5 16/6/6
f 28/4/7 8/7/8 18/8/9 17/5/10
f 29/9/11 30/10/12 31/11/13 32/12/8
f 7/13/14 25/1/1 16/6/6 19/14/15
f 8/7/8 7/13/16 30/10/12 29/9/11
f 7/13/13 19/14/17 31/11/13 30/10/18
f 19/14/17 18/8/9 32/12/8 31/11/13
f 18/8/19 8/7/8 29/9/11 32/12/8
f 33/15/20 21/16/21 20/17/22 28/18/4 34/19/23 35/20/24
f 9/21/25 5/22/26 23/23/27 22/24/28
f 36/25/29 37/26/30 38/27/31 39/28/32
f 8/29/8 28/18/4 20/17/33 24/30/34
f 5/22/26 8/29/35 40/31/36 41/32/37
f 8/29/8 24/30/34 42/33/38 40/31/39
f 24/30/34 23/23/27 43/34/40 42/33/38
f 23/23/27 5/22/26 41/32/37 43/34/40
f 41/32/41 40/31/39 37/26/30 36/25/29
f 40/31/39 42/33/38 38/27/31 37/26/30
f 44/35/42 45/36/43 46/37/44 47/38/45
f 43/34/40 41/32/37 36/25/29 39/28/32
f 42/33/46 43/34/40 45/36/43 44/35/42
f 43/34/40 39/28/32 46/37/44 45/36/43
f 39/28/32 38/27/31 47/38/47 46/37/44
f 38/27/31 42/33/38 44/35/42 47/38/45
f 48/39/48 49/40/49 50/41/50 25/42/1 13/43/51 12/44/52
f 25/42/1 7/45/16 14/46/17 13/43/51
f 51/47/53 52/48/54 53/49/32 54/50/55
f 6/51/56 10/52/57 11/53/58 15/54/59
f 7/45/13 6/51/60 55/55/61 56/56/62
f 6/51/56 15/54/63 57/57/64 55/55/27
f 15/54/65 14/46/17 58/58/66 57/57/67
f 14/46/17 7/45/13 56/56/62 58/58/66
f 56/56/68 55/55/27 52/48/69 51/47/53
f 55/55/27 57/57/70 53/49/32 52/48/54
f 59/59/71 60/60/72 61/61/73 62/62/29
f 58/58/66 56/56/62 51/47/53 54/50/31
f 57/57/70 58/58/66 60/60/51 59/59/71
f 58/58/66 54/50/31 61/61/73 60/60/51
f 54/50/31 53/49/32 62/62/29 61/61/73
f 53/49/32 57/57/70 59/59/74 62/62/29
f 33/15/75 9/21/25 22/24/28 21/16/21
f 12/44/52 11/53/58 10/52/76 48/39/48
f 26/63/2 25/64/1 66/65/77 65/66/78
f 25/64/1 50/67/50 67/68/79 66/65/77
f 50/67/50 2/69/80 68/70/81 67/68/79
f 2/69/80 26/63/2 65/66/78 68/70/82
f 34/71/23 28/72/4 71/73/83 70/74/84
f 28/72/4 27/75/3 72/76/85 71/73/83
f 27/75/86 1/77/87 69/78/88 72/76/85
f 1/77/89 34/71/23 70/74/90 69/78/88
f 33/79/20 35/80/24 75/81/91 74/82/92
f 35/80/24 4/83/93 76/84/94 75/81/91
f 4/83/93 63/85/95 73/86/96 76/84/94
f 63/85/95 33/79/75 74/82/92 73/86/96
f 49/87/97 48/88/48 79/89/98 78/90/99
f 48/88/48 64/91/100 80/92/101 79/89/98
f 64/91/100 3/93/102 77/94/103 80/92/104
f 3/93/102 49/87/49 78/90/99 77/94/103
s 1
f 1/77/87 2/69/80 3/93/102 4/83/93
f 5/95/26 6/96/105 7/45/16 8/29/8
f 9/97/106 10/98/57 6/99/56 5/100/26
f 11/53/58 12/44/52 13/43/51 14/46/15 15/54/59
f 16/6/6 17/5/107 18/8/108 19/14/17
f 20/17/109 21/16/21 22/24/28 23/23/61 24/30/34
f 48/88/48 10/52/57 9/21/110 33/79/20 63/85/95 64/91/100
f 27/75/3 26/63/2 2/69/80 1/77/87
f 64/91/100 63/85/95 4/83/93 3/93/102
f 2/69/80 50/67/50 49/87/49 3/93/102
f 4/83/93 35/80/24 34/71/23 1/77/87
f 65/66/78 66/65/77 67/68/79 68/70/111
f 69/78/88 70/74/90 71/73/83 72/76/85
f 73/86/96 74/82/92 75/81/91 76/84/94
f 77/94/112 78/90/99 79/89/98 80/92/101
