# Blender v2.91.2 OBJ File: ''
# www.blender.org
mtllib Kussen_klein_Fixed.mtl
o Kussen_los_5
v -4.853683 3.237240 1.149708
v -4.193680 2.196140 1.432705
v -3.218086 2.365940 1.208706
v -3.981979 3.336640 0.700005
v -2.076881 2.379240 0.388004
v -2.849785 3.233240 -0.054695
v -0.652481 2.348340 -0.779392
v -1.047684 3.184740 -1.315395
v 0.850319 2.413240 -1.717194
v 0.695419 3.274441 -2.604393
v 1.941620 2.425941 -2.501995
v 1.831215 3.404241 -3.480694
v 2.494720 2.274041 -3.377495
v 2.338814 3.300241 -4.067093
v -3.730286 0.865240 1.781006
v -2.780281 1.034740 1.575405
v -1.373383 1.195041 0.997604
v 0.015221 1.255040 0.131306
v 1.166016 1.224541 -0.828693
v 2.017517 1.090541 -1.875095
v 2.647217 0.939442 -2.805595
v -3.280884 -0.465859 2.139305
v -2.514381 -0.345960 1.922806
v -0.977684 -0.092859 1.526905
v 0.468513 0.008440 0.741405
v 1.561714 -0.063260 -0.299393
v 2.283417 -0.290060 -1.527695
v 2.869415 -0.394258 -2.283794
v -3.063683 -1.799660 2.664703
v -2.113785 -1.630159 2.459103
v -0.706779 -1.469860 1.881302
v 0.681816 -1.409860 1.015003
v 1.832619 -1.440360 0.055000
v 2.684120 -1.574360 -0.991398
v 3.313820 -1.725459 -1.921898
v -2.795586 -2.954760 3.062603
v -1.884979 -2.963860 2.976101
v -0.743782 -2.950560 2.155403
v 0.680717 -2.981359 0.988003
v 2.183418 -2.916460 0.050201
v 3.274719 -2.903760 -0.734596
v 3.827820 -3.055759 -1.609997
v -2.582085 -4.351760 3.400002
v -2.150681 -4.284960 3.281002
v -1.103386 -4.112060 2.445801
v 0.735916 -3.945960 1.049301
v 2.469315 -4.070459 -0.123497
v 3.681213 -4.081160 -0.948097
v 4.288719 -4.225460 -1.564999
v -5.335686 2.892540 0.473804
v -4.553886 2.927640 -0.101795
v -4.256882 1.623140 -0.247795
v -4.765587 1.787240 0.630905
v -3.421684 2.824241 -0.856495
v -3.115685 1.636340 -1.068493
v -1.619484 2.775742 -2.117195
v -1.623886 1.653741 -2.141396
v 0.123520 2.865541 -3.406193
v -0.188484 1.670442 -3.173695
v 1.259315 2.995341 -4.282494
v 0.902718 1.683141 -3.958492
v 1.856819 2.955542 -4.742893
v 1.922813 1.865041 -4.179295
v -3.819183 0.291841 0.118904
v -4.302185 0.456340 0.979107
v -2.773582 0.193740 -0.965492
v -1.447380 0.209241 -1.919292
v -0.234184 0.223341 -2.791794
v 0.978714 0.347741 -3.331593
v 2.075317 0.530541 -3.607395
v -3.485886 -1.040560 0.560802
v -3.852783 -0.874760 1.337505
v -2.440285 -1.138659 -0.523697
v -1.114082 -1.123260 -1.477398
v 0.099113 -1.109159 -2.349998
v 1.312019 -0.984758 -2.889694
v 2.297516 -0.803259 -3.085693
v -3.152580 -2.373059 1.002602
v -3.635582 -2.208560 1.862904
v -2.106979 -2.471160 -0.081799
v -0.780785 -2.455660 -1.035599
v 0.432419 -2.441559 -1.908096
v 1.645218 -2.317159 -2.447899
v 2.741920 -2.134358 -2.723698
v -2.923782 -3.706659 1.519604
v -3.432480 -3.542560 2.398304
v -1.782585 -3.693359 0.698902
v -0.290787 -3.676060 -0.373997
v 1.144615 -3.659360 -1.406197
v 2.235916 -3.646659 -2.191097
v 3.255920 -3.464659 -2.411797
v -2.722481 -4.693860 2.479202
v -3.339081 -4.699659 2.921902
v -1.675186 -4.520960 1.644001
v 0.164017 -4.354959 0.247501
v 1.897415 -4.479460 -0.925297
v 3.109413 -4.490060 -1.749897
v 3.806618 -4.570159 -2.240799
v -4.331184 3.385240 0.215206
v -5.306381 3.347840 0.929806
v -3.199081 3.281840 -0.539593
v -1.396881 3.233340 -1.800194
v 0.346214 3.323140 -3.089195
v 1.482018 3.452941 -3.965492
v 2.336014 3.416141 -4.610394
v 2.465317 2.072541 -3.962894
v 2.617821 0.737941 -3.390995
v 2.840019 -0.595758 -2.869194
v 3.284317 -1.926859 -2.507298
v 3.798416 -3.257258 -2.195396
v 4.428215 -4.678859 -1.919498
v 3.474419 -4.601860 -1.244198
v 2.262421 -4.591160 -0.419498
v 0.529114 -4.466660 0.753304
v -1.310181 -4.632760 2.149803
v -2.357483 -4.805660 2.984901
v -3.167381 -4.813660 3.566704
v -3.274780 -3.161460 2.800701
v -3.542984 -2.006360 2.402802
v -3.760086 -0.672560 1.877407
v -4.209480 0.658541 1.519108
v -4.672882 1.989440 1.170807
vt 1.000000 0.000000
vt 1.000000 0.166700
vt 0.833300 0.166700
vt 0.833300 0.000000
vt 0.666700 0.166700
vt 0.666700 0.000000
vt 0.500000 0.166700
vt 0.500000 0.000000
vt 0.333300 0.166700
vt 0.333300 0.000000
vt 0.166700 0.166700
vt 0.166700 0.000000
vt -0.000000 0.166700
vt -0.000000 0.000000
vt 1.000000 0.333300
vt 0.833300 0.333300
vt 0.666700 0.333300
vt 0.500000 0.333300
vt 0.333300 0.333300
vt 0.166700 0.333300
vt -0.000000 0.333300
vt 1.000000 0.500000
vt 0.833300 0.500000
vt 0.666700 0.500000
vt 0.500000 0.500000
vt 0.333300 0.500000
vt 0.166700 0.500000
vt -0.000000 0.500000
vt 1.000000 0.666700
vt 0.833300 0.666700
vt 0.666700 0.666700
vt 0.500000 0.666700
vt 0.333300 0.666700
vt 0.166700 0.666700
vt -0.000000 0.666700
vt 1.000000 0.833300
vt 0.833300 0.833300
vt 0.666700 0.833300
vt 0.500000 0.833300
vt 0.333300 0.833300
vt 0.166700 0.833300
vt -0.000000 0.833300
vt 1.000000 1.000000
vt 0.833300 1.000000
vt 0.666700 1.000000
vt 0.500000 1.000000
vt 0.333300 1.000000
vt 0.166700 1.000000
vt -0.000000 1.000000
vt 0.000000 0.000000
vt 0.166700 0.000000
vt 0.166700 0.166700
vt 0.000000 0.166700
vt 0.333300 0.000000
vt 0.333300 0.166700
vt 0.500000 0.000000
vt 0.500000 0.166700
vt 0.666700 0.000000
vt 0.666700 0.166700
vt 0.833300 0.000000
vt 0.833300 0.166700
vt 1.000000 0.000000
vt 1.000000 0.166700
vt 0.166700 0.333300
vt 0.000000 0.333300
vt 0.333300 0.333300
vt 0.500000 0.333300
vt 0.666700 0.333300
vt 0.833300 0.333300
vt 1.000000 0.333300
vt 0.166700 0.500000
vt 0.000000 0.500000
vt 0.333300 0.500000
vt 0.500000 0.500000
vt 0.666700 0.500000
vt 0.833300 0.500000
vt 1.000000 0.500000
vt 0.166700 0.666700
vt 0.000000 0.666700
vt 0.333300 0.666700
vt 0.500000 0.666700
vt 0.666700 0.666700
vt 0.833300 0.666700
vt 1.000000 0.666700
vt 0.166700 0.833300
vt 0.000000 0.833300
vt 0.333300 0.833300
vt 0.500000 0.833300
vt 0.666700 0.833300
vt 0.833300 0.833300
vt 1.000000 0.833300
vt 0.166700 1.000000
vt 0.000000 1.000000
vt 0.333300 1.000000
vt 0.500000 1.000000
vt 0.666700 1.000000
vt 0.833300 1.000000
vt 1.000000 1.000000
vt 0.000000 0.000000
vt 0.166700 0.000000
vt 0.166700 0.500000
vt 0.000000 0.500000
vt 0.333300 0.000000
vt 0.333300 0.500000
vt 0.500000 0.500000
vt 0.666700 0.000000
vt 0.666700 0.500000
vt 0.833300 0.000000
vt 0.833300 0.500000
vt 1.000000 0.000000
vt 1.000000 0.500000
vt 0.166700 1.000000
vt 0.000000 1.000000
vt 0.333300 1.000000
vt 0.500000 1.000000
vt 0.666700 1.000000
vt 0.833300 1.000000
vt 1.000000 1.000000
vt 0.166700 0.000000
vt 0.166700 0.500000
vt 0.000000 0.500000
vt 0.333300 0.000000
vt 0.333300 0.500000
vt 0.500000 0.000000
vt 0.500000 0.500000
vt 0.666700 0.000000
vt 0.666700 0.500000
vt 0.833300 0.000000
vt 0.833300 0.500000
vt 1.000000 0.000000
vt 1.000000 0.500000
vt 0.166700 1.000000
vt 0.000000 1.000000
vt 0.333300 1.000000
vt 0.500000 1.000000
vt 0.666700 1.000000
vt 0.833300 1.000000
vt 0.000000 0.000000
vt 0.166700 0.000000
vt 0.166700 0.500000
vt 0.000000 0.500000
vt 0.333300 0.000000
vt 0.333300 0.500000
vt 0.500000 0.000000
vt 0.500000 0.500000
vt 0.666700 0.000000
vt 0.666700 0.500000
vt 0.833300 0.000000
vt 0.833300 0.500000
vt 1.000000 0.000000
vt 1.000000 0.500000
vt 0.166700 1.000000
vt 0.000000 1.000000
vt 0.333300 1.000000
vt 0.666700 1.000000
vt 0.833300 1.000000
vt 1.000000 1.000000
vt 0.000000 0.000000
vt 0.166700 0.000000
vt 0.166700 0.500000
vt 0.000000 0.500000
vt 0.333300 0.000000
vt 0.333300 0.500000
vt 0.500000 0.000000
vt 0.500000 0.500000
vt 0.666700 0.000000
vt 0.666700 0.500000
vt 0.833300 0.000000
vt 0.833300 0.500000
vt 1.000000 0.500000
vt 0.166700 1.000000
vt 0.333300 1.000000
vt 0.500000 1.000000
vt 0.666700 1.000000
vt 0.833300 1.000000
vt 1.000000 1.000000
vn -0.0948 0.5400 0.8363
vn -0.1513 0.1903 0.9700
vn 0.3308 0.4901 0.8065
vn 0.2186 0.8868 0.4073
vn 0.4642 0.6534 0.5980
vn 0.2812 0.9006 0.3315
vn 0.4266 0.6713 0.6062
vn 0.2713 0.8792 0.3917
vn 0.4076 0.6540 0.6373
vn 0.2118 0.9002 0.3806
vn 0.6548 0.4748 0.5880
vn 0.3600 0.8729 0.3294
vn 0.9466 0.2445 0.2101
vn 0.7823 0.5797 0.2279
vn -0.1848 0.1924 0.9638
vn 0.2450 0.3060 0.9200
vn 0.3616 0.5168 0.7760
vn 0.4538 0.6232 0.6369
vn 0.6268 0.5143 0.5853
vn 0.7851 0.2946 0.5448
vn 0.9493 0.2239 0.2207
vn -0.1559 0.2756 0.9485
vn 0.1912 0.3517 0.9164
vn 0.3044 0.3676 0.8788
vn 0.5413 0.3835 0.7483
vn 0.7495 0.3696 0.5492
vn 0.7977 0.3600 0.4838
vn 0.9202 0.3096 0.2395
vn -0.2194 0.2994 0.9286
vn 0.2193 0.4089 0.8858
vn 0.4338 0.2284 0.8716
vn 0.5817 0.1141 0.8053
vn 0.6965 0.2355 0.6778
vn 0.7499 0.4352 0.4982
vn 0.9123 0.3718 0.1717
vn -0.2181 0.2380 0.9465
vn 0.3630 0.2570 0.8956
vn 0.6098 0.0693 0.7895
vn 0.5822 0.0360 0.8123
vn 0.5536 0.0706 0.8298
vn 0.7052 0.2720 0.6547
vn 0.9120 0.3742 0.1678
vn 0.1933 0.1531 0.9691
vn 0.4533 -0.2232 0.8629
vn 0.6116 -0.2899 0.7361
vn 0.5661 -0.2459 0.7868
vn 0.5281 -0.2960 0.7959
vn 0.6203 -0.2313 0.7495
vn 0.9028 0.0819 0.4222
vn -0.9358 -0.0120 -0.3524
vn -0.5366 0.3349 -0.7745
vn -0.7213 -0.2459 -0.6475
vn -0.9104 -0.4073 -0.0728
vn -0.5154 0.3407 -0.7863
vn -0.5802 -0.0994 -0.8084
vn -0.5501 0.3482 -0.7590
vn -0.5810 -0.0868 -0.8093
vn -0.5853 0.3407 -0.7358
vn -0.5784 0.3440 -0.7397
vn -0.3814 -0.2651 -0.8856
vn -0.1391 -0.0052 -0.9903
vn 0.1759 -0.4082 -0.8958
vn -0.7656 -0.3792 -0.5197
vn -0.9371 -0.3411 -0.0742
vn -0.6280 -0.2952 -0.7201
vn -0.5567 -0.2894 -0.7787
vn -0.4685 -0.2958 -0.8325
vn -0.2585 -0.3926 -0.8826
vn 0.1457 -0.3575 -0.9225
vn -0.7925 -0.3612 -0.4914
vn -0.9615 -0.2648 -0.0734
vn -0.6127 -0.3826 -0.6915
vn -0.5363 -0.3835 -0.7519
vn -0.4435 -0.3801 -0.8117
vn -0.2357 -0.3585 -0.9033
vn 0.1453 -0.2785 -0.9494
vn -0.7722 -0.3530 -0.5284
vn -0.9721 -0.2011 -0.1206
vn -0.5851 -0.4669 -0.6631
vn -0.5106 -0.4737 -0.7176
vn -0.4269 -0.4620 -0.7774
vn -0.2735 -0.3325 -0.9026
vn 0.1082 -0.2073 -0.9723
vn -0.6572 -0.4946 -0.5687
vn -0.9883 -0.1380 -0.0657
vn -0.4449 -0.6376 -0.6289
vn -0.4336 -0.6600 -0.6135
vn -0.3209 -0.4990 -0.8050
vn 0.1050 -0.1455 -0.9838
vn -0.2376 -0.8804 -0.4104
vn -0.7757 -0.6008 -0.1933
vn -0.2069 -0.8867 -0.4135
vn -0.2538 -0.8964 -0.3634
vn -0.2801 -0.8888 -0.3627
vn -0.2979 -0.8908 -0.3432
vn 0.0161 -0.6187 -0.7855
vn 0.2186 0.8867 0.4073
vn -0.2033 0.9233 -0.3259
vn -0.7301 0.6117 0.3047
vn -0.1788 0.9222 -0.3429
vn -0.2312 0.9235 -0.3061
vn -0.2804 0.9212 -0.2697
vn -0.2501 0.9250 -0.2860
vn 0.5169 0.6127 -0.5978
vn -0.5784 0.3440 -0.7396
vn 0.8422 -0.1483 -0.5183
vn 0.8343 -0.1058 -0.5411
vn 0.8118 0.0095 -0.5838
vn 0.7767 0.1245 -0.6175
vn 0.7551 0.1800 -0.6304
vn 0.7894 -0.5889 -0.1734
vn 0.1945 -0.9202 0.3398
vn 0.1889 -0.9240 0.3325
vn 0.2281 -0.9235 0.3084
vn 0.3103 -0.9180 0.2469
vn 0.4533 -0.2232 0.8630
vn 0.2811 -0.9211 0.2693
vn -0.3780 -0.5382 0.7533
vn -0.7745 0.1253 0.6200
vn -0.3780 -0.5381 0.7533
vn -0.8240 0.0450 0.5648
vn -0.1559 0.2756 0.9486
vn -0.8118 -0.0094 0.5838
vn -0.7832 -0.1061 0.6127
vn -0.7580 -0.1731 0.6289
usemtl Default_OBJ
s 1
f 1/1/1 2/2/2 3/3/3 4/4/4
f 4/4/4 3/3/3 5/5/5 6/6/6
f 6/6/6 5/5/5 7/7/7 8/8/8
f 8/8/8 7/7/7 9/9/9 10/10/10
f 10/10/10 9/9/9 11/11/11 12/12/12
f 12/12/12 11/11/11 13/13/13 14/14/14
f 2/2/2 15/15/15 16/16/16 3/3/3
f 3/3/3 16/16/16 17/17/17 5/5/5
f 5/5/5 17/17/17 18/18/18 7/7/7
f 7/7/7 18/18/18 19/19/19 9/9/9
f 9/9/9 19/19/19 20/20/20 11/11/11
f 11/11/11 20/20/20 21/21/21 13/13/13
f 15/15/15 22/22/22 23/23/23 16/16/16
f 16/16/16 23/23/23 24/24/24 17/17/17
f 17/17/17 24/24/24 25/25/25 18/18/18
f 18/18/18 25/25/25 26/26/26 19/19/19
f 19/19/19 26/26/26 27/27/27 20/20/20
f 20/20/20 27/27/27 28/28/28 21/21/21
f 22/22/22 29/29/29 30/30/30 23/23/23
f 23/23/23 30/30/30 31/31/31 24/24/24
f 24/24/24 31/31/31 32/32/32 25/25/25
f 25/25/25 32/32/32 33/33/33 26/26/26
f 26/26/26 33/33/33 34/34/34 27/27/27
f 27/27/27 34/34/34 35/35/35 28/28/28
f 29/29/29 36/36/36 37/37/37 30/30/30
f 30/30/30 37/37/37 38/38/38 31/31/31
f 31/31/31 38/38/38 39/39/39 32/32/32
f 32/32/32 39/39/39 40/40/40 33/33/33
f 33/33/33 40/40/40 41/41/41 34/34/34
f 34/34/34 41/41/41 42/42/42 35/35/35
f 36/36/36 43/43/43 44/44/44 37/37/37
f 37/37/37 44/44/44 45/45/45 38/38/38
f 38/38/38 45/45/45 46/46/46 39/39/39
f 39/39/39 46/46/46 47/47/47 40/40/40
f 40/40/40 47/47/47 48/48/48 41/41/41
f 41/41/41 48/48/48 49/49/49 42/42/42
f 50/50/50 51/51/51 52/52/52 53/53/53
f 51/51/51 54/54/54 55/55/55 52/52/52
f 54/54/54 56/56/56 57/57/57 55/55/55
f 56/56/56 58/58/58 59/59/55 57/57/57
f 58/58/58 60/60/59 61/61/60 59/59/55
f 60/60/59 62/62/61 63/63/62 61/61/60
f 53/53/53 52/52/52 64/64/63 65/65/64
f 52/52/52 55/55/55 66/66/65 64/64/63
f 55/55/55 57/57/57 67/67/66 66/66/65
f 57/57/57 59/59/55 68/68/67 67/67/66
f 59/59/55 61/61/60 69/69/68 68/68/67
f 61/61/60 63/63/62 70/70/69 69/69/68
f 65/65/64 64/64/63 71/71/70 72/72/71
f 64/64/63 66/66/65 73/73/72 71/71/70
f 66/66/65 67/67/66 74/74/73 73/73/72
f 67/67/66 68/68/67 75/75/74 74/74/73
f 68/68/67 69/69/68 76/76/75 75/75/74
f 69/69/68 70/70/69 77/77/76 76/76/75
f 72/72/71 71/71/70 78/78/77 79/79/78
f 71/71/70 73/73/72 80/80/79 78/78/77
f 73/73/72 74/74/73 81/81/80 80/80/79
f 74/74/73 75/75/74 82/82/81 81/81/80
f 75/75/74 76/76/75 83/83/82 82/82/81
f 76/76/75 77/77/76 84/84/83 83/83/82
f 79/79/78 78/78/77 85/85/84 86/86/85
f 78/78/77 80/80/79 87/87/86 85/85/84
f 80/80/79 81/81/80 88/88/87 87/87/86
f 81/81/80 82/82/81 89/89/86 88/88/87
f 82/82/81 83/83/82 90/90/88 89/89/86
f 83/83/82 84/84/83 91/91/89 90/90/88
f 86/86/85 85/85/84 92/92/90 93/93/91
f 85/85/84 87/87/86 94/94/92 92/92/90
f 87/87/86 88/88/87 95/95/93 94/94/92
f 88/88/87 89/89/86 96/96/94 95/95/93
f 89/89/86 90/90/88 97/97/95 96/96/94
f 90/90/88 91/91/89 98/98/96 97/97/95
f 1/99/1 4/100/97 99/101/98 100/102/99
f 4/100/97 6/103/6 101/104/100 99/101/98
f 6/103/6 8/8/8 102/105/101 101/104/100
f 8/8/8 10/106/10 103/107/102 102/105/101
f 10/106/10 12/108/12 104/109/103 103/107/102
f 12/108/12 14/110/14 105/111/104 104/109/103
f 100/102/99 99/101/98 51/112/51 50/113/50
f 99/101/98 101/104/100 54/114/54 51/112/51
f 101/104/100 102/105/101 56/115/56 54/114/54
f 102/105/101 103/107/102 58/116/58 56/115/56
f 103/107/102 104/109/103 60/117/105 58/116/58
f 104/109/103 105/111/104 62/118/61 60/117/105
f 14/14/14 13/119/13 106/120/106 105/121/104
f 13/119/13 21/122/21 107/123/107 106/120/106
f 21/122/21 28/124/28 108/125/108 107/123/107
f 28/124/28 35/126/35 109/127/109 108/125/108
f 35/126/35 42/128/42 110/129/110 109/127/109
f 42/128/42 49/130/49 111/131/111 110/129/110
f 105/121/104 106/120/106 63/132/62 62/133/61
f 106/120/106 107/123/107 70/134/69 63/132/62
f 107/123/107 108/125/108 77/135/76 70/134/69
f 108/125/108 109/127/109 84/136/83 77/135/76
f 109/127/109 110/129/110 91/137/89 84/136/83
f 110/129/110 111/131/111 98/98/96 91/137/89
f 49/138/49 48/139/48 112/140/112 111/141/111
f 48/139/48 47/142/47 113/143/113 112/140/112
f 47/142/47 46/144/46 114/145/114 113/143/113
f 46/144/46 45/146/45 115/147/115 114/145/114
f 45/146/45 44/148/116 116/149/117 115/147/115
f 44/148/116 43/150/43 117/151/118 116/149/117
f 111/141/111 112/140/112 97/152/95 98/153/96
f 112/140/112 113/143/113 96/154/94 97/152/95
f 113/143/113 114/145/114 95/95/93 96/154/94
f 114/145/114 115/147/115 94/155/92 95/95/93
f 115/147/115 116/149/117 92/156/90 94/155/92
f 116/149/117 117/151/118 93/157/91 92/156/90
f 43/158/43 36/159/36 118/160/119 117/161/120
f 36/159/36 29/162/29 119/163/121 118/160/119
f 29/162/29 22/164/122 120/165/123 119/163/121
f 22/164/122 15/166/15 121/167/124 120/165/123
f 15/166/15 2/168/2 122/169/125 121/167/124
f 2/168/2 1/1/1 100/170/99 122/169/125
f 117/161/120 118/160/119 86/171/85 93/93/91
f 118/160/119 119/163/121 79/172/78 86/171/85
f 119/163/121 120/165/123 72/173/71 79/172/78
f 120/165/123 121/167/124 65/174/64 72/173/71
f 121/167/124 122/169/125 53/175/53 65/174/64
f 122/169/125 100/170/99 50/176/50 53/175/53
