# Blender v2.91.2 OBJ File: ''
# www.blender.org
mtllib Achter_kussen_sofa_stoel_Fixed.mtl
o achterkussen_stoel
v -9.217072 -6.331934 2.178829
v -9.546875 -6.331933 -0.802773
v -4.779869 -6.331933 -0.802773
v -4.779869 -6.331934 2.923229
v -0.012871 -6.331933 -0.802773
v -0.012871 -6.331934 3.020229
v 4.754128 -6.331933 -0.456573
v 4.754128 -6.331934 2.525028
v 9.521126 -6.331933 -0.802773
v 9.215729 -6.331934 2.178829
v -9.546875 -6.331933 -3.784271
v -4.779869 -6.331933 -3.784271
v -0.012871 -6.331933 -3.784271
v 4.754128 -6.331933 -3.784271
v 9.521126 -6.331933 -3.784271
v -8.609673 5.667267 2.178833
v -4.779869 6.052567 2.178833
v -4.779869 6.054667 -0.802769
v -8.609673 5.669367 -0.802769
v -0.012871 6.505766 2.178833
v -0.012871 6.507866 -0.802769
v 4.754128 6.227568 2.178833
v 4.754128 6.229567 -0.802769
v 8.583931 5.667267 2.178833
v 8.583931 5.669367 -0.802769
v -4.779869 6.054667 -3.784267
v -8.609673 5.669367 -3.784267
v -0.012871 6.507866 -3.784267
v 4.754128 6.229567 -3.784267
v 8.583931 5.669367 -3.784267
v -8.965973 -6.042734 2.178829
v -4.779869 -6.042734 2.923229
v -5.588173 -2.687334 3.626732
v -9.295876 -2.331534 2.178833
v -0.012871 -6.042734 3.020229
v -0.012871 -3.895734 3.686127
v 4.754128 -6.042734 2.525028
v 5.679329 -2.748434 3.765930
v 8.964630 -6.042734 2.178829
v 9.270126 -2.333634 2.178833
v -5.621674 2.477165 3.590832
v -9.295876 1.666866 2.178833
v -0.012871 3.617464 3.686131
v 5.400024 2.429165 3.765930
v 9.270126 1.666866 2.178833
v -4.758675 5.764467 2.178833
v -8.588470 5.379168 2.178833
v -8.996071 5.340366 2.178833
v -9.201973 5.270067 2.178833
v -9.263069 5.032867 2.178833
v -9.295876 4.575966 2.178833
v -0.008873 6.216066 2.178833
v 4.731926 5.939266 2.178833
v 9.270126 4.575966 2.178833
v 9.237328 5.032867 2.178833
v 9.176224 5.270067 2.178833
v 8.970329 5.340366 2.178833
v 8.557724 5.379566 2.178833
v 9.521126 -2.331533 -0.802769
v 9.521126 -2.333634 2.178833
v 9.521126 -2.331533 -3.784267
v 9.521126 1.668966 -0.802769
v 9.521126 1.666866 2.178833
v 9.521126 1.668966 -3.784267
v 9.521126 4.589966 -0.802769
v 9.521126 4.587866 2.178833
v 9.521126 4.589966 -3.784267
v 4.754128 -2.331533 -3.784267
v -0.012871 -2.331533 -3.784267
v -4.779869 -2.331533 -3.784267
v -9.546875 -2.331533 -3.784267
v 4.754128 1.668966 -3.784267
v -0.012871 1.668966 -3.784267
v -4.779869 1.668966 -3.784267
v -9.546875 1.668966 -3.784267
v 9.016830 5.628166 -3.784267
v 9.378227 5.504766 -3.784267
v 9.485428 5.088467 -3.784267
v -9.546875 4.589966 -3.784267
v -9.511169 5.088467 -3.784267
v -9.403976 5.504766 -3.784267
v -9.042572 5.628166 -3.784267
v -9.546875 -2.331533 -0.802769
v -9.546875 -2.331534 2.178833
v -9.546875 1.668966 -0.802769
v -9.546875 1.666866 2.178833
v -9.546875 4.589966 -0.802769
v -9.546875 4.587866 2.178833
v -9.042572 5.628166 -0.802769
v -9.042572 5.626066 2.178833
v -9.403976 5.504766 -0.802769
v -9.403976 5.502666 2.178833
v 9.016830 5.626066 2.178833
v 9.016830 5.628166 -0.802769
v 9.378227 5.502666 2.178833
v 9.378227 5.504766 -0.802769
v 9.485428 5.088467 -0.802769
v 9.485428 5.086367 2.178833
v -9.511169 5.088467 -0.802769
v -9.511169 5.086367 2.178833
v -9.217072 -6.331934 2.538826
v -4.779869 -6.331934 3.283226
v -4.779869 -6.042734 3.283226
v -8.965973 -6.042734 2.538826
v -0.012871 -6.331934 3.380226
v -0.012871 -6.042734 3.380226
v 4.754128 -6.331934 2.885029
v 4.754128 -6.042734 2.885029
v 9.215729 -6.331934 2.538826
v 8.964630 -6.042734 2.538826
v 9.521126 -2.333634 2.538830
v 9.270126 -2.333634 2.538830
v 9.521126 1.666866 2.538830
v 9.270126 1.666866 2.538830
v 9.521126 4.587866 2.538830
v 9.270126 4.575966 2.538830
v 9.485428 5.086367 2.538830
v 9.237328 5.032867 2.538830
v 9.378227 5.502666 2.538830
v 9.176224 5.270067 2.538830
v 9.016830 5.626066 2.538830
v 8.970329 5.340366 2.538830
v 8.583931 5.667267 2.538830
v 8.557724 5.379566 2.538830
v 4.754128 6.227568 2.538830
v 4.731926 5.939266 2.538830
v -0.012871 6.505766 2.538830
v -0.008873 6.216066 2.538830
v -4.779869 6.052567 2.538830
v -4.758675 5.764467 2.538830
v -8.609673 5.667267 2.538830
v -8.588470 5.379168 2.538830
v -9.042572 5.626066 2.538830
v -8.996071 5.340366 2.538830
v -9.403976 5.502666 2.538830
v -9.201973 5.270067 2.538830
v -9.511169 5.086367 2.538830
v -9.263069 5.032867 2.538830
v -9.546875 4.587866 2.538830
v -9.295876 4.575966 2.538830
v -9.546875 1.666866 2.538830
v -9.295876 1.666866 2.538830
v -9.546875 -2.331534 2.538830
v -9.295876 -2.331534 2.538830
vt 0.000000 0.000000
vt 0.250000 0.000000
vt 0.250000 0.000000
vt 0.000000 0.000000
vt 0.500000 0.000000
vt 0.500000 0.000000
vt 0.750000 0.000000
vt 0.750000 0.000000
vt 1.000000 0.000000
vt 1.000000 0.000000
vt 1.000000 0.333300
vt 1.000000 0.333300
vt 1.000000 0.666700
vt 1.000000 0.666700
vt 1.000000 0.910100
vt 1.000000 0.910100
vt 1.000000 0.955000
vt 1.000000 0.955000
vt 1.000000 1.000000
vt 1.000000 1.000000
vt 0.975400 1.000000
vt 0.975400 1.000000
vt 0.950800 1.000000
vt 0.950800 1.000000
vt 0.750000 1.000000
vt 0.750000 1.000000
vt 0.500000 1.000000
vt 0.500000 1.000000
vt 0.250000 1.000000
vt 0.250000 1.000000
vt 0.049200 1.000000
vt 0.049200 1.000000
vt 0.024600 1.000000
vt 0.024600 1.000000
vt 0.000000 1.000000
vt 0.000000 1.000000
vt 0.000000 0.955000
vt 0.000000 0.955000
vt 0.000000 0.910100
vt 0.000000 0.910100
vt 0.000000 0.666700
vt 0.000000 0.666700
vt 0.000000 0.333300
vt 0.000000 0.333300
vt 0.000000 0.000000
vt 0.250000 0.000000
vt 0.500000 0.000000
vt 0.750000 0.000000
vt 1.000000 0.000000
vt 1.000000 0.333300
vt 1.000000 0.666700
vt 1.000000 0.910100
vt 1.000000 0.955000
vt 1.000000 1.000000
vt 0.975400 1.000000
vt 0.950800 1.000000
vt 0.750000 1.000000
vt 0.500000 1.000000
vt 0.250000 1.000000
vt 0.049200 1.000000
vt 0.024600 1.000000
vt 0.000000 1.000000
vt 0.000000 0.955000
vt 0.000000 0.910100
vt 0.000000 0.666700
vt 0.000000 0.333300
vt 0.250000 0.000000
vt 0.000000 0.000000
vt 0.000000 0.333300
vt 0.000000 0.666700
vt 0.000000 0.910100
vt 0.000000 0.955000
vt 0.000000 1.000000
vt 0.024600 1.000000
vt 0.049200 1.000000
vt 0.250000 1.000000
vt 0.500000 1.000000
vt 0.750000 1.000000
vt 0.950800 1.000000
vt 0.975400 1.000000
vt 1.000000 1.000000
vt 1.000000 0.955000
vt 1.000000 0.910100
vt 1.000000 0.666700
vt 1.000000 0.333300
vt 1.000000 0.000000
vt 0.750000 0.000000
vt 0.500000 0.000000
vt 1.000000 0.000000
vt 1.000000 0.500000
vt 0.750000 0.500000
vt 0.750000 0.000000
vt 0.500000 0.500000
vt 0.250000 0.500000
vt 0.250000 0.000000
vt 0.000000 0.500000
vt 0.000000 0.000000
vt 1.000000 1.000000
vt 0.750000 1.000000
vt 0.500000 1.000000
vt 0.250000 1.000000
vt 0.000000 1.000000
vt 0.049200 0.000000
vt 0.250000 0.000000
vt 0.250000 0.500000
vt 0.049200 0.500000
vt 0.500000 0.000000
vt 0.500000 0.500000
vt 0.750000 0.000000
vt 0.750000 0.500000
vt 0.950800 0.000000
vt 0.950800 0.500000
vt 0.250000 1.000000
vt 0.049200 1.000000
vt 0.500000 1.000000
vt 0.750000 1.000000
vt 0.950800 1.000000
vt 0.250000 0.333300
vt 0.500000 0.333300
vt 0.750000 0.333300
vt 0.250000 0.666700
vt 0.500000 0.666700
vt 0.750000 0.666700
vt 0.500000 0.000000
vt 0.500000 0.333300
vt 0.000000 0.333300
vt 1.000000 0.000000
vt 1.000000 0.333300
vt 0.500000 0.666700
vt 0.000000 0.666700
vt 1.000000 0.666700
vt 0.500000 0.910100
vt 0.000000 0.910100
vt 1.000000 0.910100
vt 0.000000 0.000000
vt 0.250000 0.000000
vt 0.250000 0.333300
vt 0.000000 0.333300
vt 0.500000 0.000000
vt 0.500000 0.333300
vt 0.750000 0.000000
vt 0.750000 0.333300
vt 1.000000 0.000000
vt 1.000000 0.333300
vt 0.250000 0.666700
vt 0.000000 0.666700
vt 0.500000 0.666700
vt 0.750000 0.666700
vt 1.000000 0.666700
vt 0.250000 1.000000
vt 0.049200 1.000000
vt 0.024600 1.000000
vt 0.000000 1.000000
vt 0.000000 0.955000
vt 0.000000 0.910100
vt 0.750000 1.000000
vt 1.000000 0.910100
vt 1.000000 0.955000
vt 1.000000 1.000000
vt 0.975400 1.000000
vt 0.950800 1.000000
vt 0.000000 0.000000
vt 0.500000 0.000000
vt 0.500000 0.333300
vt 0.000000 0.333300
vt 1.000000 0.333300
vt 0.500000 0.666700
vt 0.000000 0.666700
vt 1.000000 0.666700
vt 0.500000 0.910100
vt 0.000000 0.910100
vt 1.000000 0.910100
vt 0.024600 0.500000
vt 0.024600 0.000000
vt 0.000000 0.500000
vt 0.000000 0.000000
vt 0.975400 0.000000
vt 0.975400 0.500000
vt 1.000000 0.000000
vt 1.000000 0.500000
vt 0.024600 1.000000
vt 0.000000 1.000000
vt 0.975400 1.000000
vt 1.000000 1.000000
vt 0.500000 0.955000
vt 0.000000 0.955000
vt 0.500000 1.000000
vt 0.000000 1.000000
vt 1.000000 0.955000
vt 0.500000 0.955000
vt 0.000000 0.955000
vt 0.500000 1.000000
vt 1.000000 0.955000
vt 1.000000 1.000000
vn -0.5727 -0.5954 0.5634
vn -0.0630 -0.6921 0.7191
vn -0.0664 0.6911 0.7197
vn 0.2271 0.4367 0.8705
vn 0.0280 -0.6943 0.7191
vn 0.0280 0.6943 0.7192
vn 0.0596 -0.7099 0.7018
vn 0.0611 0.7094 0.7021
vn 0.5613 -0.5967 0.5735
vn -0.2664 0.3803 0.8857
vn 0.5614 -0.5967 0.5735
vn 0.7160 -0.0314 0.6974
vn -0.6954 0.0329 0.7179
vn 0.7071 -0.0002 0.7071
vn -0.7071 -0.0000 0.7071
vn 0.7071 0.0000 0.7071
vn 0.7155 0.0295 0.6980
vn -0.6970 -0.0287 0.7165
vn -0.7071 0.0002 0.7071
vn 0.7164 0.1343 0.6847
vn -0.6707 -0.1258 0.7310
vn 0.5582 0.5582 0.6139
vn -0.3927 -0.3927 0.8316
vn 0.1343 0.7164 0.6847
vn -0.1258 -0.6706 0.7310
vn 0.1342 0.7164 0.6847
vn 0.0731 0.6983 0.7121
vn -0.0742 -0.7080 0.7023
vn 0.0632 0.7126 0.6987
vn -0.0617 -0.6956 0.7158
vn -0.0114 0.7214 0.6924
vn 0.0110 -0.6915 0.7223
vn -0.0599 0.7051 0.7066
vn 0.0598 -0.7040 0.7077
vn -0.0598 0.7040 0.7076
vn 0.0599 -0.7051 0.7066
vn -0.1342 0.7164 0.6847
vn 0.1258 -0.6707 0.7310
vn -0.1343 0.7164 0.6847
vn -0.5581 0.5582 0.6139
vn 0.3926 -0.3926 0.8317
vn -0.7163 0.1343 0.6847
vn 0.6707 -0.1257 0.7310
vn -0.7155 0.0295 0.6980
vn 0.6970 -0.0287 0.7165
vn -0.7166 -0.0340 0.6966
vn 0.6944 0.0354 0.7188
vn -0.6575 -0.7524 0.0386
vn 0.0000 -1.0000 0.0000
vn -0.5727 -0.5954 0.5635
vn 0.6613 -0.7492 0.0360
vn 0.9990 -0.0439 0.0000
vn 1.0000 0.0000 0.0000
vn 0.9992 0.0412 0.0000
vn 0.7071 0.0002 0.7071
vn 0.9829 0.1843 0.0001
vn 0.7071 0.7071 0.0002
vn 0.7072 0.7071 0.0003
vn 0.1843 0.9829 0.0003
vn 0.1042 0.9946 0.0003
vn 0.1042 0.9946 0.0000
vn 0.0884 0.9961 0.0003
vn -0.0159 0.9999 0.0003
vn -0.0847 0.9964 0.0003
vn -0.0846 0.9964 0.0003
vn -0.1843 0.9829 0.0003
vn -0.0598 0.7041 0.7076
vn -0.7071 0.7071 0.0002
vn -0.9829 0.1843 0.0001
vn -0.9992 0.0411 0.0000
vn -1.0000 0.0000 0.0000
vn -0.9989 -0.0473 0.0000
vn -0.7071 -0.0002 0.7071
vn -0.5727 -0.5955 0.5634
vn -0.0621 0.6347 0.7703
vn 0.4962 0.5922 0.6349
vn 0.2270 0.4367 0.8705
vn 0.5889 0.0312 0.8076
vn 0.6944 0.0354 0.7187
vn 0.5752 0.0000 0.8180
vn 0.7155 -0.0295 0.6980
vn 0.7163 -0.1343 0.6847
vn 0.5581 -0.5582 0.6139
vn 0.1343 -0.7164 0.6847
vn 0.0599 -0.7050 -0.7066
vn 0.0535 -0.5320 0.8450
vn 0.0455 -0.5328 0.8450
vn 0.0084 -0.5119 0.8590
vn -0.0505 -0.5385 0.8411
vn -0.0742 -0.7080 -0.7023
vn -0.1343 -0.7163 0.6847
vn -0.5582 -0.5582 0.6139
vn -0.1258 -0.6706 0.7311
vn -0.7164 -0.1343 0.6847
vn -0.7155 -0.0295 0.6980
vn -0.5665 0.0000 0.8241
vn -0.5712 0.0284 0.8203
vn -0.5252 0.5962 0.6072
vn 0.0740 0.5465 0.8342
vn 0.0315 0.5991 0.8000
vn -0.7186 -0.6941 0.0423
vn 0.7179 -0.6950 0.0392
vn -0.5773 -0.5774 -0.5774
vn -0.0000 -0.7071 -0.7071
vn 0.5774 -0.5774 -0.5773
vn -0.0599 0.7051 -0.7066
vn -0.0114 0.7213 -0.6925
vn 0.0632 0.7127 -0.6986
vn 0.0743 0.7081 0.7022
vn -0.2018 -0.1300 0.9708
vn -0.0126 -0.1784 0.9839
vn 0.2227 -0.2061 0.9529
vn -0.2224 0.2406 0.9448
vn -0.0116 0.3045 0.9524
vn 0.2094 0.2379 0.9484
vn 0.5774 -0.5773 -0.5774
vn 0.7071 -0.0000 -0.7071
vn 0.7155 0.0295 -0.6980
vn 0.5773 -0.5774 -0.5774
vn 0.0000 0.0000 -1.0000
vn -0.5774 -0.5773 -0.5774
vn -0.7071 -0.0000 -0.7071
vn 0.0742 0.7081 0.7022
vn 0.1343 0.7164 -0.6847
vn 0.5582 0.5582 -0.6139
vn 0.7164 0.1343 -0.6847
vn -0.7155 0.0295 -0.6980
vn -0.7163 0.1343 -0.6847
vn -0.5581 0.5581 -0.6140
vn -0.1343 0.7163 -0.6847
vn -0.5774 -0.5774 -0.5773
vn -0.9992 0.0412 0.0000
vn -0.7070 0.7072 0.0002
vn -0.7071 0.7071 0.0003
vn 0.7072 0.7071 0.0002
vn 0.7070 0.7072 0.0002
vn 0.1342 0.7164 -0.6847
vn 0.7071 0.7071 0.0004
vn 0.7164 0.1344 -0.6847
vn -0.5581 0.5582 -0.6140
usemtl Default_OBJ.001
s off
f 101/1/1 102/2/2 103/3/3 104/4/4
f 102/2/2 105/5/5 106/6/6 103/3/3
f 105/5/5 107/7/7 108/8/8 106/6/6
f 107/7/7 109/9/9 110/10/10 108/8/8
f 109/9/11 111/11/12 112/12/13 110/10/10
f 111/11/12 113/13/14 114/14/15 112/12/13
f 113/13/16 115/15/17 116/16/18 114/14/19
f 115/15/17 117/17/20 118/18/21 116/16/18
f 117/17/20 119/19/22 120/20/23 118/18/21
f 119/19/22 121/21/24 122/22/25 120/20/23
f 121/21/26 123/23/27 124/24/28 122/22/25
f 123/23/27 125/25/29 126/26/30 124/24/28
f 125/25/29 127/27/31 128/28/32 126/26/30
f 127/27/31 129/29/33 130/30/34 128/28/32
f 129/29/33 131/31/35 132/32/36 130/30/34
f 131/31/35 133/33/37 134/34/38 132/32/36
f 133/33/39 135/35/40 136/36/41 134/34/38
f 135/35/40 137/37/42 138/38/43 136/36/41
f 137/37/42 139/39/44 140/40/45 138/38/43
f 139/39/44 141/41/19 142/42/16 140/40/45
f 141/41/15 143/43/46 144/44/47 142/42/14
f 143/43/46 101/1/1 104/4/4 144/44/47
f 1/45/48 4/46/49 102/2/2 101/1/50
f 4/46/49 6/47/49 105/5/5 102/2/2
f 6/47/49 8/48/49 107/7/7 105/5/5
f 8/48/49 10/49/51 109/9/9 107/7/7
f 10/49/51 60/50/52 111/11/12 109/9/9
f 60/50/52 63/51/53 113/13/16 111/11/12
f 63/51/53 66/52/54 115/15/17 113/13/55
f 66/52/54 98/53/56 117/17/20 115/15/17
f 98/53/56 95/54/57 119/19/22 117/17/20
f 95/54/58 93/55/59 121/21/24 119/19/22
f 93/55/59 24/56/60 123/23/27 121/21/24
f 24/56/61 22/57/62 125/25/29 123/23/27
f 22/57/62 20/58/63 127/27/31 125/25/29
f 20/58/63 17/59/64 129/29/33 127/27/31
f 17/59/64 16/60/65 131/31/35 129/29/33
f 16/60/65 90/61/66 133/33/39 131/31/67
f 90/61/66 92/62/68 135/35/40 133/33/39
f 92/62/68 100/63/69 137/37/42 135/35/40
f 100/63/69 88/64/70 139/39/44 137/37/42
f 88/64/70 86/65/71 141/41/15 139/39/44
f 86/65/71 84/66/72 143/43/46 141/41/73
f 84/66/72 1/45/48 101/1/74 143/43/46
f 32/67/75 31/68/76 104/4/77 103/3/3
f 31/68/76 34/69/78 144/44/79 104/4/4
f 34/69/78 42/70/80 142/42/16 144/44/79
f 42/70/80 51/71/81 140/40/45 142/42/55
f 51/71/81 50/72/82 138/38/43 140/40/45
f 50/72/82 49/73/83 136/36/41 138/38/43
f 49/73/83 48/74/84 134/34/38 136/36/41
f 48/74/84 47/75/85 132/32/36 134/34/38
f 47/75/85 46/76/86 130/30/34 132/32/36
f 46/76/87 52/77/88 128/28/32 130/30/34
f 52/77/88 53/78/89 126/26/30 128/28/32
f 53/78/89 58/79/90 124/24/28 126/26/30
f 58/79/90 57/80/91 122/22/25 124/24/28
f 57/80/91 56/81/92 120/20/23 122/22/93
f 56/81/92 55/82/94 118/18/21 120/20/23
f 55/82/94 54/83/95 116/16/18 118/18/21
f 54/83/95 45/84/96 114/14/15 116/16/18
f 45/84/96 40/85/97 112/12/13 114/14/73
f 40/85/97 39/86/98 110/10/10 112/12/13
f 39/86/98 37/87/99 108/8/8 110/10/10
f 37/87/99 35/88/100 106/6/6 108/8/8
f 35/88/100 32/67/75 103/3/3 106/6/6
s 1
f 1/89/48 2/90/101 3/91/49 4/92/49
f 4/92/49 3/91/49 5/93/49 6/47/49
f 6/47/49 5/93/49 7/94/49 8/95/49
f 8/95/49 7/94/49 9/96/102 10/97/51
f 2/90/101 11/98/103 12/99/104 3/91/49
f 3/91/49 12/99/104 13/100/104 5/93/49
f 5/93/49 13/100/104 14/101/104 7/94/49
f 7/94/49 14/101/104 15/102/105 9/96/102
f 16/103/65 17/104/64 18/105/64 19/106/65
f 17/104/64 20/107/63 21/108/63 18/105/64
f 20/107/63 22/109/62 23/110/62 21/108/63
f 22/109/62 24/111/60 25/112/60 23/110/62
f 19/106/65 18/105/64 26/113/106 27/114/33
f 18/105/64 21/108/63 28/115/107 26/113/106
f 21/108/63 23/110/62 29/116/108 28/115/107
f 23/110/62 25/112/60 30/117/109 29/116/108
f 31/68/76 32/67/75 33/118/110 34/69/78
f 32/67/75 35/88/100 36/119/111 33/118/110
f 35/88/100 37/87/99 38/120/112 36/119/111
f 37/87/99 39/86/98 40/85/97 38/120/112
f 34/69/78 33/118/110 41/121/113 42/70/80
f 33/118/110 36/119/111 43/122/114 41/121/113
f 36/119/111 38/120/112 44/123/115 43/122/114
f 38/120/112 40/85/97 45/84/96 44/123/115
f 42/70/80 41/121/113 46/76/87 47/75/85 48/74/84 49/73/83 50/72/82 51/71/81
f 41/121/113 43/122/114 52/77/88 46/76/87
f 43/122/114 44/123/115 53/78/89 52/77/88
f 44/123/115 45/84/96 54/83/95 55/82/94 56/81/92 57/80/91 58/79/90 53/78/89
f 10/97/51 9/124/102 59/125/53 60/126/52
f 9/124/102 15/127/116 61/128/117 59/125/53
f 60/126/52 59/125/53 62/129/53 63/130/53
f 59/125/53 61/128/117 64/131/117 62/129/53
f 63/130/53 62/129/53 65/132/54 66/133/54
f 62/129/53 64/131/117 67/134/118 65/132/54
f 15/135/119 14/136/104 68/137/120 61/138/117
f 14/136/104 13/139/104 69/140/120 68/137/120
f 13/139/104 12/141/104 70/142/120 69/140/120
f 12/141/104 11/143/121 71/144/122 70/142/120
f 61/138/117 68/137/120 72/145/120 64/146/117
f 68/137/120 69/140/120 73/147/120 72/145/120
f 69/140/120 70/142/120 74/148/120 73/147/120
f 70/142/120 71/144/122 75/149/122 74/148/120
f 64/146/117 72/145/120 29/150/108 30/151/123 76/152/124 77/153/125 78/154/126 67/155/118
f 72/145/120 73/147/120 28/115/107 29/150/108
f 73/147/120 74/148/120 26/156/106 28/115/107
f 74/148/120 75/149/122 79/157/127 80/158/128 81/159/129 82/160/130 27/161/33 26/156/106
f 11/162/131 2/163/101 83/164/71 71/165/122
f 2/163/101 1/89/48 84/166/72 83/164/71
f 71/165/122 83/164/71 85/167/71 75/168/122
f 83/164/71 84/166/72 86/169/71 85/167/71
f 75/168/122 85/167/71 87/170/132 79/171/127
f 85/167/71 86/169/71 88/172/70 87/170/132
f 16/103/65 19/106/65 89/173/66 90/174/66
f 90/174/66 89/173/66 91/175/133 92/176/134
f 25/112/60 24/111/60 93/177/59 94/178/59
f 94/178/59 93/177/59 95/179/135 96/180/136
f 19/106/65 27/114/33 82/181/130 89/173/66
f 89/173/66 82/181/130 81/182/129 91/175/133
f 30/117/109 25/112/60 94/178/59 76/183/137
f 76/183/137 94/178/59 96/180/136 77/184/125
f 66/133/54 65/132/54 97/185/56 98/186/56
f 98/186/56 97/185/56 96/187/136 95/188/138
f 65/132/54 67/134/118 78/189/139 97/185/56
f 97/185/56 78/189/139 77/184/125 96/187/136
f 79/171/127 87/170/132 99/190/69 80/191/128
f 80/191/128 99/190/69 91/192/133 81/182/140
f 87/170/132 88/172/70 100/193/69 99/190/69
f 99/190/69 100/193/69 92/194/68 91/192/133
