# Blender v2.91.2 OBJ File: ''
# www.blender.org
mtllib FX_Kast_Fixed.mtl
o Box001_Mesh
v -14.808048 -27.257650 4.657701
v 15.249514 -27.257650 4.657701
v -14.808048 -27.257650 -4.445574
v 15.249514 -27.257650 -4.445574
v -14.808048 27.385008 4.657699
v 15.249514 27.385008 4.657699
v -14.808048 27.385008 -4.445576
v 15.249514 27.385008 -4.445576
v -12.980618 -25.430216 4.657701
v 13.422080 -25.430216 4.657701
v 13.422080 25.557573 4.657699
v -12.980618 25.557573 4.657699
v 13.422080 -15.945059 4.657701
v 13.422080 -14.099597 4.657701
v 13.422080 -4.400831 4.657701
v 13.422080 -2.768976 4.657701
v 13.422080 7.049021 4.657700
v 13.422080 8.561644 4.657700
v 13.422080 16.655577 4.657700
v 13.422080 18.312960 4.657700
v -12.980618 18.312960 4.657700
v -12.980618 16.655577 4.657700
v -12.980618 8.561644 4.657700
v -12.980618 7.049021 4.657700
v -12.980618 -2.768976 4.657701
v -12.980618 -4.400831 4.657701
v -12.980618 -14.099596 4.657701
v -12.980618 -15.945059 4.657701
v -0.663122 -25.430216 4.657701
v 1.654263 -25.430216 4.657701
v 1.654263 25.557573 4.657699
v -0.663122 25.557573 4.657699
v 1.654263 18.312960 4.657700
v -0.663122 18.312960 4.657700
v 1.654263 16.655577 4.657700
v -0.663122 16.655577 4.657700
v 1.654263 8.561644 4.657700
v -0.663122 8.561644 4.657700
v 1.654263 7.049021 4.657700
v -0.663122 7.049021 4.657700
v -0.663122 -15.945059 4.657701
v 1.654263 -15.945059 4.657701
v -0.663122 -14.099596 4.657701
v 1.654263 -14.099597 4.657701
v -0.663122 -4.400831 4.657701
v 1.654263 -4.400831 4.657701
v -0.663122 -2.768976 4.657701
v 1.654263 -2.768976 4.657701
v -12.980618 7.049021 -0.356740
v -12.980618 -2.768976 -0.356739
v -0.663122 -2.768976 -0.356739
v -0.663122 7.049021 -0.356740
v 13.422080 -2.768976 -0.356739
v 13.422080 7.049021 -0.356740
v 1.654263 7.049021 -0.356740
v 1.654263 -2.768976 -0.356739
v -12.980618 25.557573 -0.356740
v -12.980618 18.312960 -0.356740
v -0.663122 18.312960 -0.356740
v -0.663122 25.557573 -0.356740
v 13.422080 25.557573 -0.356740
v 1.654263 25.557573 -0.356740
v 1.654263 18.312960 -0.356740
v 13.422080 18.312960 -0.356740
v -12.980618 16.655577 -0.356740
v -12.980618 8.561644 -0.356740
v -0.663122 8.561644 -0.356740
v -0.663122 16.655577 -0.356740
v 13.422080 8.561644 -0.356740
v 13.422080 16.655577 -0.356740
v 1.654263 16.655577 -0.356740
v 1.654263 8.561644 -0.356740
v 13.422080 -25.430216 -0.356738
v 13.422080 -15.945059 -0.356739
v 1.654263 -15.945059 -0.356739
v 1.654263 -25.430216 -0.356738
v -12.980618 -25.430216 -0.356738
v -0.663122 -25.430216 -0.356738
v -0.663122 -15.945059 -0.356739
v -12.980618 -15.945059 -0.356739
v 13.422080 -14.099597 -0.356739
v 13.422080 -4.400831 -0.356739
v 1.654263 -4.400831 -0.356739
v 1.654263 -14.099597 -0.356739
v -12.980618 -4.400831 -0.356739
v -12.980618 -14.099596 -0.356739
v -0.663122 -14.099596 -0.356739
v -0.663122 -4.400831 -0.356739
vt 1.000000 1.000000
vt 0.000000 1.000000
vt 1.000000 0.000000
vt 0.000000 0.000000
vt 1.000000 1.000000
vt 0.000000 1.000000
vt 0.000000 0.000000
vt 1.000000 0.000000
vt 0.666667 0.444444
vt 0.666667 0.555556
vt 0.333333 0.555556
vt 0.333333 0.444444
vt 0.000000 1.000000
vt 1.000000 0.000000
vt 0.000000 1.000000
vt 0.000000 0.000000
vt 1.000000 1.000000
vt 1.000000 0.000000
vt 0.000000 0.000000
vt 1.000000 1.000000
vt 1.000000 0.000000
vt 0.333333 0.000000
vt 0.000000 0.000000
vt 0.000000 0.000000
vt 0.666667 0.000000
vt 1.000000 0.000000
vt 1.000000 0.222222
vt 1.000000 0.111111
vt 1.000000 0.444444
vt 1.000000 1.000000
vt 1.000000 0.666667
vt 1.000000 0.777778
vt 1.000000 1.000000
vt 1.000000 0.888889
vt 1.000000 0.555556
vt 1.000000 0.333333
vt 0.666667 1.000000
vt 0.333333 1.000000
vt 0.000000 1.000000
vt 0.000000 1.000000
vt 0.000000 0.777778
vt 0.000000 0.888889
vt 0.000000 0.444444
vt 0.000000 0.111111
vt 0.000000 0.222222
vt 0.000000 0.666667
vt 0.000000 0.333333
vt 0.000000 0.555556
vt 0.666667 0.888889
vt 0.333333 0.888889
vt 0.666667 0.777778
vt 0.333333 0.777778
vt 0.666667 0.666667
vt 0.333333 0.666667
vt 0.333333 0.111111
vt 0.666667 0.111111
vt 0.666667 0.222222
vt 0.333333 0.222222
vt 0.666667 0.333333
vt 0.333333 0.333333
vt 0.333333 0.555556
vt 0.000000 0.555556
vt 0.333333 0.444444
vt 0.000000 0.444444
vt 0.666667 0.555556
vt 1.000000 0.444444
vt 1.000000 0.555556
vt 0.666667 0.444444
vt 0.333333 1.000000
vt 0.000000 1.000000
vt 0.333333 0.888889
vt 0.000000 0.888889
vt 0.666667 1.000000
vt 1.000000 0.888889
vt 1.000000 1.000000
vt 0.666667 0.888889
vt 0.333333 0.777778
vt 0.000000 0.777778
vt 0.333333 0.666667
vt 0.000000 0.666667
vt 0.666667 0.777778
vt 1.000000 0.666667
vt 1.000000 0.777778
vt 0.666667 0.666667
vt 0.666667 0.111111
vt 1.000000 0.000000
vt 1.000000 0.111111
vt 0.666667 0.000000
vt 0.333333 0.111111
vt 0.000000 0.111111
vt 0.333333 0.000000
vt 0.000000 0.000000
vt 0.666667 0.333333
vt 1.000000 0.222222
vt 1.000000 0.333333
vt 0.666667 0.222222
vt 0.333333 0.333333
vt 0.000000 0.333333
vt 0.333333 0.222222
vt 0.000000 0.222222
vn 0.0000 -1.0000 0.0000
vn 0.0000 1.0000 0.0000
vn 0.0000 0.0000 1.0000
vn 1.0000 0.0000 0.0000
vn 0.0000 -0.0000 -1.0000
vn -1.0000 0.0000 0.0000
usemtl None
s 1
f 3/1/1 4/2/1 1/3/1
f 2/4/1 1/3/1 4/2/1
f 8/5/2 7/6/2 5/7/2
f 8/5/2 5/7/2 6/8/2
f 48/9/3 39/10/3 40/11/3
f 40/11/3 47/12/3 48/9/3
f 6/13/4 2/4/4 8/5/4
f 8/5/4 2/4/4 4/14/4
f 8/15/5 4/16/5 7/17/5
f 7/17/5 4/16/5 3/18/5
f 7/6/6 3/19/6 5/20/6
f 5/20/6 3/19/6 1/3/6
f 2/21/3 29/22/3 1/23/3
f 1/23/3 29/22/3 9/24/3
f 30/25/3 2/21/3 10/26/3
f 29/22/3 2/21/3 30/25/3
f 2/21/3 14/27/3 13/28/3
f 16/29/3 2/21/3 6/30/3
f 18/31/3 6/30/3 19/32/3
f 6/30/3 11/33/3 20/34/3
f 6/30/3 20/34/3 19/32/3
f 2/21/3 13/28/3 10/26/3
f 6/30/3 17/35/3 16/29/3
f 15/36/3 2/21/3 16/29/3
f 17/35/3 6/30/3 18/31/3
f 2/21/3 15/36/3 14/27/3
f 6/30/3 31/37/3 11/33/3
f 32/38/3 6/30/3 5/39/3
f 32/38/3 5/39/3 12/40/3
f 6/30/3 32/38/3 31/37/3
f 5/39/3 22/41/3 21/42/3
f 25/43/3 5/39/3 1/23/3
f 28/44/3 1/23/3 9/24/3
f 27/45/3 1/23/3 28/44/3
f 22/41/3 5/39/3 23/46/3
f 5/39/3 21/42/3 12/40/3
f 1/23/3 26/47/3 25/43/3
f 24/48/3 5/39/3 25/43/3
f 26/47/3 1/23/3 27/45/3
f 5/39/3 24/48/3 23/46/3
f 33/49/3 31/37/3 32/38/3
f 32/38/3 34/50/3 33/49/3
f 33/49/3 34/50/3 35/51/3
f 34/50/3 36/52/3 35/51/3
f 37/53/3 35/51/3 36/52/3
f 36/52/3 38/54/3 37/53/3
f 37/53/3 38/54/3 39/10/3
f 38/54/3 40/11/3 39/10/3
f 41/55/3 30/25/3 42/56/3
f 30/25/3 41/55/3 29/22/3
f 44/57/3 41/55/3 42/56/3
f 41/55/3 44/57/3 43/58/3
f 46/59/3 43/58/3 44/57/3
f 43/58/3 46/59/3 45/60/3
f 47/12/3 46/59/3 48/9/3
f 46/59/3 47/12/3 45/60/3
f 52/61/3 49/62/3 51/63/3
f 49/62/3 50/64/3 51/63/3
f 55/65/3 53/66/3 54/67/3
f 53/66/3 55/65/3 56/68/3
f 60/69/3 57/70/3 59/71/3
f 57/70/3 58/72/3 59/71/3
f 62/73/3 64/74/3 61/75/3
f 64/74/3 62/73/3 63/76/3
f 22/41/3 36/52/3 21/42/3
f 34/50/3 21/42/3 36/52/3
f 33/49/3 19/32/3 20/34/3
f 19/32/3 33/49/3 35/51/3
f 68/77/3 65/78/3 67/79/3
f 65/78/3 66/80/3 67/79/3
f 71/81/3 69/82/3 70/83/3
f 69/82/3 71/81/3 72/84/3
f 24/48/3 40/11/3 23/46/3
f 38/54/3 23/46/3 40/11/3
f 37/53/3 17/35/3 18/31/3
f 17/35/3 37/53/3 39/10/3
f 75/85/3 73/86/3 74/87/3
f 73/86/3 75/85/3 76/88/3
f 79/89/3 80/90/3 78/91/3
f 80/90/3 77/92/3 78/91/3
f 44/57/3 13/28/3 14/27/3
f 13/28/3 44/57/3 42/56/3
f 28/44/3 41/55/3 27/45/3
f 43/58/3 27/45/3 41/55/3
f 83/93/3 81/94/3 82/95/3
f 81/94/3 83/93/3 84/96/3
f 88/97/3 85/98/3 87/99/3
f 85/98/3 86/100/3 87/99/3
f 48/9/3 15/36/3 16/29/3
f 15/36/3 48/9/3 46/59/3
f 26/47/3 45/60/3 25/43/3
f 47/12/3 25/43/3 45/60/3
f 50/64/4 49/62/4 24/48/4
f 24/48/4 25/43/4 50/64/4
f 51/63/2 50/64/2 25/43/2
f 51/63/2 25/43/2 47/12/2
f 52/61/6 47/12/6 40/11/6
f 47/12/6 52/61/6 51/63/6
f 49/62/1 40/11/1 24/48/1
f 40/11/1 49/62/1 52/61/1
f 54/67/6 16/29/6 17/35/6
f 16/29/6 54/67/6 53/66/6
f 17/35/1 39/10/1 55/65/1
f 17/35/1 55/65/1 54/67/1
f 56/68/4 55/65/4 39/10/4
f 39/10/4 48/9/4 56/68/4
f 53/66/2 56/68/2 48/9/2
f 53/66/2 48/9/2 16/29/2
f 57/70/4 12/40/4 58/72/4
f 12/40/4 21/42/4 58/72/4
f 59/71/2 58/72/2 21/42/2
f 59/71/2 21/42/2 34/50/2
f 60/69/6 34/50/6 32/38/6
f 34/50/6 60/69/6 59/71/6
f 57/70/1 32/38/1 12/40/1
f 32/38/1 57/70/1 60/69/1
f 11/33/1 31/37/1 62/73/1
f 11/33/1 62/73/1 61/75/1
f 62/73/4 31/37/4 63/76/4
f 31/37/4 33/49/4 63/76/4
f 64/74/2 63/76/2 33/49/2
f 64/74/2 33/49/2 20/34/2
f 61/75/6 20/34/6 11/33/6
f 20/34/6 61/75/6 64/74/6
f 65/78/4 22/41/4 66/80/4
f 22/41/4 23/46/4 66/80/4
f 67/79/2 66/80/2 23/46/2
f 67/79/2 23/46/2 38/54/2
f 68/77/6 38/54/6 36/52/6
f 38/54/6 68/77/6 67/79/6
f 65/78/1 36/52/1 22/41/1
f 36/52/1 65/78/1 68/77/1
f 70/83/6 18/31/6 19/32/6
f 18/31/6 70/83/6 69/82/6
f 19/32/1 35/51/1 71/81/1
f 19/32/1 71/81/1 70/83/1
f 71/81/4 35/51/4 72/84/4
f 35/51/4 37/53/4 72/84/4
f 69/82/2 72/84/2 37/53/2
f 69/82/2 37/53/2 18/31/2
f 74/87/6 10/26/6 13/28/6
f 10/26/6 74/87/6 73/86/6
f 13/28/1 42/56/1 75/85/1
f 13/28/1 75/85/1 74/87/1
f 76/88/4 75/85/4 42/56/4
f 42/56/4 30/25/4 76/88/4
f 73/86/2 76/88/2 30/25/2
f 73/86/2 30/25/2 10/26/2
f 78/91/2 77/92/2 9/24/2
f 78/91/2 9/24/2 29/22/2
f 79/89/6 29/22/6 41/55/6
f 29/22/6 79/89/6 78/91/6
f 80/90/1 41/55/1 28/44/1
f 41/55/1 80/90/1 79/89/1
f 77/92/4 80/90/4 28/44/4
f 28/44/4 9/24/4 77/92/4
f 82/95/6 14/27/6 15/36/6
f 14/27/6 82/95/6 81/94/6
f 15/36/1 46/59/1 83/93/1
f 15/36/1 83/93/1 82/95/1
f 84/96/4 83/93/4 46/59/4
f 46/59/4 44/57/4 84/96/4
f 81/94/2 84/96/2 44/57/2
f 81/94/2 44/57/2 14/27/2
f 86/100/4 85/98/4 26/47/4
f 26/47/4 27/45/4 86/100/4
f 87/99/2 86/100/2 27/45/2
f 87/99/2 27/45/2 43/58/2
f 88/97/6 43/58/6 45/60/6
f 43/58/6 88/97/6 87/99/6
f 85/98/1 45/60/1 26/47/1
f 45/60/1 85/98/1 88/97/1
