# Blender v2.81 (sub 16) OBJ File: ''
# www.blender.org
mtllib Koelkast_deur_Fixed.mtl
o Koelkast_deur
v 1.562190 18.117390 0.954157
v 1.562047 18.482126 0.932119
v 1.536324 18.536957 19.896996
v 1.536600 18.172146 19.894020
v 2.506775 18.851490 1.293314
v 2.499878 35.485107 0.928013
v 2.500732 35.536865 0.957768
v 2.499761 35.559437 0.974775
v 2.499607 35.659142 1.045622
v 2.499420 35.730534 1.144918
v 2.499219 35.783283 1.301752
v 2.498827 35.806396 1.548113
v 2.474994 35.857384 19.183392
v 2.474711 35.835701 19.429831
v 2.474466 35.783852 19.587017
v 2.474341 35.713039 19.686724
v 2.474364 35.613747 19.758101
v 2.474335 35.416435 19.824480
v 2.474312 35.539680 19.805290
v 2.482033 18.904236 19.536243
v 2.533488 17.803619 19.524906
v 2.548401 -15.087751 19.303095
v 2.572201 -15.138525 1.740156
v 2.558036 17.751009 1.328112
v 2.161201 18.117657 0.955027
v 2.161013 18.482393 0.932905
v 2.135423 18.537224 19.897823
v 2.135566 18.172415 19.894806
v 2.152384 36.174194 1.529924
v 2.128415 36.225281 19.198490
v 2.128021 36.198357 19.504183
v 2.127771 36.115677 19.754423
v 2.127580 35.977448 19.949259
v 2.127446 35.783348 20.088690
v 2.127459 35.533592 20.172672
v 2.153953 35.476887 0.559757
v 2.153747 35.727123 0.642294
v 2.153490 35.922028 0.780689
v 2.153177 36.061386 0.974724
v 2.152718 36.145512 1.224438
v 2.150834 -15.454771 19.667961
v 2.175614 -15.507662 1.376276
v 2.123158 -15.454828 19.653490
v 2.039478 -15.454145 19.903353
v 1.900267 -15.453642 20.097618
v 1.705612 -15.453337 20.236233
v 1.455515 -15.453199 20.319204
v 1.149933 -15.453257 20.346670
v -2.617404 -15.454939 20.341549
v -2.590905 -15.511648 0.725462
v 1.176573 -15.510088 0.689013
v 1.482078 -15.509882 0.713854
v 1.731955 -15.509539 0.794802
v 1.926205 -15.509058 0.931864
v 2.064870 -15.508436 1.124907
v 2.147821 -15.507677 1.374109
v -2.615119 36.172222 1.576002
v -2.638880 36.223152 19.192091
v -2.613307 35.169334 0.578896
v 1.154171 35.170891 0.542450
v -2.639807 35.226044 20.194986
v -2.639925 35.531464 20.166323
v -2.639987 35.781219 20.082253
v -2.639853 35.975319 19.942818
v -2.639662 36.113556 19.747984
v -2.639323 36.196236 19.497696
v -2.614697 36.143532 1.270475
v -2.614326 36.059410 1.020807
v -2.613926 35.920052 0.826725
v -2.613757 35.725147 0.688375
v -2.613460 35.474911 0.605793
v 1.127530 35.227730 20.200106
v 2.126214 35.383553 0.551733
v 2.099722 35.440308 20.181425
v 2.042965 35.307098 0.545864
v 1.904104 35.247520 0.541969
v 1.709690 35.205029 0.540142
v 1.459753 35.179420 0.540239
v 2.016372 35.363884 20.188532
v 1.877494 35.304337 20.193943
v 1.683090 35.261864 20.197660
v 1.433026 35.236259 20.199644
vt 0.965600 0.328900
vt 0.982100 0.657700
vt 0.017900 0.657700
vt 0.034400 0.328900
vt 0.034400 0.328900
vt 0.050800 0.000000
vt 0.949200 0.000000
vt 0.965600 0.328900
vt 0.965600 0.328900
vt 0.982100 0.657700
vt 0.017900 0.657700
vt 0.034400 0.328900
vt 0.949000 1.000000
vt 0.051000 1.000000
vt 0.051000 1.000000
vt 0.949000 1.000000
vt 0.035400 0.999500
vt 0.035400 0.999500
vt 0.022700 0.997900
vt 0.022700 0.997900
vt 0.012700 0.995200
vt 0.012700 0.995200
vt 0.005700 0.991400
vt 0.005700 0.991400
vt 0.001400 0.986600
vt 0.001400 0.986600
vt 0.000000 0.000000
vt 0.000000 0.000000
vt 0.000000 0.000000
vt 0.000000 0.000000
vt 0.000000 0.000000
vt 0.000000 0.000000
vt 0.982100 0.657700
vt 0.017900 0.657700
vt 0.998600 0.986600
vt 0.994300 0.991400
vt 0.994300 0.991400
vt 0.998600 0.986600
vt 0.987300 0.995200
vt 0.987300 0.995200
vt 0.977300 0.997900
vt 0.977300 0.997900
vt 0.964600 0.999500
vt 0.964600 0.999500
vt 0.050800 0.000000
vt 0.949200 0.000000
vt 0.000000 0.000000
vt 0.000000 0.000000
vt 0.000000 0.000000
vt 0.000000 0.000000
vt 0.650500 0.662300
vt 0.000000 0.000000
vt 0.000000 0.000000
vt 0.000000 0.000000
vt 0.000000 0.000000
vt 0.000000 0.000000
vt 0.000000 0.000000
vt 0.000000 0.000000
vt 0.000000 0.000000
vt 0.000000 0.000000
vt 0.000000 0.000000
vt 0.000000 0.000000
vt 0.000000 0.000000
vt 0.949200 0.000000
vt 0.964700 0.005800
vt 0.977400 0.023300
vt 0.987300 0.052400
vt 0.994400 0.093200
vt 0.998600 0.145700
vt 1.000000 0.209800
vt 1.000000 1.000000
vt 0.000000 1.000000
vt 0.000000 0.209700
vt 0.001400 0.145700
vt 0.005600 0.093200
vt 0.012700 0.052400
vt 0.022600 0.023300
vt 0.035300 0.005800
vt 0.050800 0.000000
vt 0.051000 0.000000
vt 0.949000 0.000000
vt 0.949000 1.000000
vt 0.051000 1.000000
vt 0.209700 0.000000
vt 1.000000 0.000000
vt 1.000000 0.980700
vt 0.209700 0.980700
vt 0.000000 0.000000
vt 1.000000 0.000000
vt 1.000000 0.980700
vt 0.998600 0.986600
vt 0.994300 0.991400
vt 0.987300 0.995200
vt 0.977300 0.997900
vt 0.964600 0.999500
vt 0.949000 1.000000
vt 0.051000 1.000000
vt 0.035400 0.999500
vt 0.022700 0.997900
vt 0.012700 0.995200
vt 0.005700 0.991400
vt 0.001400 0.986600
vt 0.000000 0.980700
vt 0.000000 1.540100
vt 0.000000 1.446900
vt 1.000000 1.446900
vt 1.000000 1.540100
vt 0.000000 1.540100
vt 0.000000 1.446900
vt 1.000000 1.446900
vt 1.000000 1.540100
vt 0.000000 1.353600
vt 1.000000 1.353600
vt 0.000000 1.260400
vt 1.000000 1.260400
vt 0.000000 1.167100
vt 1.000000 1.167100
vt 0.000000 1.073900
vt 1.000000 1.073900
vt 0.000000 1.353600
vt 1.000000 1.353600
vt 0.000000 1.260400
vt 1.000000 1.260400
vt 0.000000 1.167100
vt 1.000000 1.167100
vt 0.000000 1.073900
vt 1.000000 1.073900
vt 0.031400 -0.000400
vt 0.061100 -0.000300
vt 0.835000 0.991400
vt 0.960000 0.993600
vt 0.340900 0.331000
vt 0.040700 0.993500
vt 0.165600 0.991400
vt 0.938900 -0.000300
vt 0.968700 -0.000400
vt 0.659400 0.330900
vt 0.350000 0.662200
vt 0.090800 -0.000200
vt 0.709900 0.989300
vt 0.120600 -0.000200
vt 0.584900 0.987100
vt 0.150300 -0.000100
vt 0.459800 0.985000
vt 0.180000 -0.000100
vt 0.334800 0.982800
vt 0.290600 0.989200
vt 0.909200 -0.000200
vt 0.415500 0.987100
vt 0.879500 -0.000200
vt 0.540400 0.984900
vt 0.849700 -0.000100
vt 0.665300 0.982800
vt 0.820000 -0.000100
vt 0.790200 0.980700
vt 0.790200 0.000000
vt 0.000000 0.980700
vn 0.5794 0.5940 0.5581
vn 0.5739 -0.5599 0.5976
vn 0.5778 -0.5758 -0.5784
vn 0.5785 0.5789 -0.5747
vn 0.8949 0.3145 0.3165
vn 0.8945 -0.3159 0.3163
vn 0.8954 -0.3177 -0.3120
vn 0.8958 0.3127 -0.3159
vn 0.8682 0.4667 0.1686
vn -0.5934 -0.7395 0.3178
vn 0.8835 -0.4335 -0.1772
vn 0.8836 -0.4335 -0.1772
vn 0.8765 0.4507 -0.1691
vn 0.3921 0.9189 -0.0440
vn 0.3923 0.9190 0.0396
vn 0.9258 0.3776 0.0172
vn 0.9258 0.3776 -0.0170
vn 0.3871 0.9029 0.1867
vn 0.9205 0.3824 0.0800
vn 0.9258 0.3776 0.0173
vn 0.3849 0.8235 0.4167
vn 0.9181 0.3533 0.1797
vn 0.3849 0.8235 0.4168
vn 0.3840 0.6546 0.6512
vn 0.9169 0.2825 0.2818
vn 0.3846 0.4212 0.8214
vn 0.9179 0.1809 0.3531
vn 0.9169 0.2825 0.2817
vn 0.3846 0.4211 0.8214
vn 0.2890 -0.4882 0.8235
vn -0.3562 0.9210 0.1577
vn 0.7685 -0.0075 0.6398
vn 0.8835 -0.4335 -0.1773
vn -0.5934 -0.7395 0.3177
vn 0.9130 -0.2925 -0.2845
vn 0.9122 -0.2909 0.2887
vn 0.3103 0.8330 -0.4580
vn 0.3659 0.4399 -0.8201
vn 0.9069 0.1648 -0.3878
vn -0.4577 0.8861 -0.0730
vn 0.3823 0.4170 -0.8246
vn 0.3821 0.6516 -0.6553
vn 0.9177 0.2809 -0.2809
vn 0.9189 0.1789 -0.3516
vn 0.3838 0.8216 -0.4214
vn 0.9186 0.3523 -0.1792
vn 0.3839 0.8216 -0.4214
vn 0.3866 0.9022 -0.1913
vn 0.9207 0.3820 -0.0797
vn 0.2098 -0.6372 0.7416
vn 0.4037 -0.6635 -0.6299
vn 0.4036 -0.6635 -0.6299
vn 0.8682 0.4667 0.1687
vn 0.2098 -0.6371 0.7416
vn 0.7279 0.3660 -0.5799
vn 0.7082 0.2217 -0.6703
vn 0.3051 0.8279 -0.4707
vn 0.3622 0.4437 -0.8198
vn 0.7290 -0.0147 -0.6844
vn 0.9542 -0.1743 -0.2432
vn -0.4828 0.7592 0.4365
vn 0.9622 0.2711 -0.0257
vn 0.9998 -0.0196 0.0014
vn 0.8624 0.3762 -0.3386
vn 0.6564 -0.6753 0.3365
vn 0.5227 -0.6714 0.5254
vn 0.3340 -0.6738 0.6592
vn 0.1490 -0.6801 0.7178
vn 0.0322 -0.8931 0.4488
vn -0.7068 -0.7074 0.0011
vn -0.5792 -0.5798 -0.5730
vn 0.0260 -0.6992 -0.7145
vn 0.1435 -0.6841 -0.7151
vn 0.3302 -0.6773 -0.6574
vn 0.5214 -0.6741 -0.5232
vn 0.6566 -0.6770 -0.3325
vn 0.4925 0.5959 -0.6343
vn 0.4036 -0.6636 -0.6299
vn 0.3921 0.9189 -0.0441
vn -0.6975 0.7157 -0.0353
vn -0.6974 0.7161 0.0295
vn -0.4528 0.0375 -0.8908
vn 0.0022 -0.0089 -1.0000
vn -0.8399 -0.2771 0.4666
vn -0.6670 0.4449 0.5977
vn -0.6762 0.3362 0.6555
vn -0.6728 0.5250 0.5213
vn -0.6759 0.6580 0.3319
vn -0.6826 0.7159 0.1469
vn -0.6830 0.7144 -0.1521
vn -0.6769 0.6548 -0.3361
vn -0.6742 0.5207 -0.5239
vn -0.6781 0.3313 -0.6561
vn -0.6692 -0.1653 -0.7244
vn 0.3866 0.9022 -0.1912
vn 0.2898 -0.5305 -0.7966
vn 0.3850 0.8235 0.4167
vn 0.3840 0.6545 0.6512
vn 0.9133 0.0687 0.4015
vn 0.5206 0.7974 -0.3051
vn -0.5963 -0.7400 0.3111
vn -0.1922 0.6507 0.7346
vn 0.3208 -0.2096 0.9237
vn 0.7687 0.5428 -0.3383
vn 0.6539 0.2252 -0.7222
vn 0.3825 0.0945 -0.9191
vn 0.1635 0.0526 -0.9851
vn 0.8612 0.1957 0.4691
vn 0.3317 -0.7032 0.6289
vn 0.2406 -0.4403 0.8650
vn 0.1347 -0.2198 0.9662
vn 0.0552 -0.0705 0.9960
vn -0.0124 0.0193 0.9997
usemtl Default_OBJ.001
s off
f 1/1/1 2/2/2 3/3/3 4/4/4
f 21/5/5 22/6/6 23/7/7 24/8/8
f 25/9/9 26/10/10 2/2/2 1/1/1
f 26/10/10 27/11/11 3/3/3 2/2/2
f 27/11/12 28/12/13 4/4/4 3/3/3
f 28/12/13 25/9/9 1/1/1 4/4/4
f 29/13/14 30/14/15 13/15/16 12/16/17
f 30/14/15 31/17/18 14/18/19 13/15/20
f 31/17/18 32/19/21 15/20/22 14/18/19
f 32/19/23 33/21/24 16/22/25 15/20/22
f 33/21/24 34/23/26 17/24/27 16/22/28
f 34/23/29 35/25/30 18/26/31 17/24/27
f 18/27/32 35/28/32 74/29/32 43/30/32 20/31/32 19/32/32
f 27/11/33 26/10/34 5/33/35 20/34/36
f 36/35/37 37/36/38 8/37/39 7/38/40
f 37/36/41 38/39/42 9/40/43 8/37/44
f 38/39/42 39/41/45 10/42/46 9/40/43
f 39/41/47 40/43/48 11/44/49 10/42/46
f 40/43/48 29/13/14 12/16/17 11/44/49
f 41/45/50 42/46/51 23/7/7 22/6/6
f 42/46/52 25/9/53 24/8/8 23/7/7
f 25/9/9 28/12/13 21/5/5 24/8/8
f 28/12/13 41/45/54 22/6/6 21/5/5
f 6/47/55 37/48/55 8/49/55 7/50/55
f 6/47/56 36/35/57 37/36/58
f 6/47/59 5/33/60 26/51/61 36/35/62
f 26/52/63 5/53/63 6/47/63 7/50/63 8/49/63 9/54/63 10/55/63 11/56/63 12/57/63 13/58/63 14/59/63 15/60/63 16/61/63 17/62/63 18/27/63 19/32/63 20/31/63 27/63/63
s 1
f 41/64/50 43/65/64 44/66/65 45/67/66 46/68/67 47/69/68 48/70/69 49/71/70 50/72/71 51/73/72 52/74/73 53/75/74 54/76/75 55/77/76 56/78/77 42/79/78
f 30/80/15 29/81/79 57/82/80 58/83/81
f 51/84/72 50/85/71 59/86/82 60/87/83
f 50/88/71 49/89/70 61/90/84 62/91/85 63/92/86 64/93/87 65/94/88 66/95/89 58/96/81 57/97/80 67/98/90 68/99/91 69/100/92 70/101/93 71/102/94 59/103/82
f 29/104/79 40/105/95 67/106/90 57/107/80
f 58/108/81 66/109/89 31/110/18 30/111/15
f 40/105/95 39/112/45 68/113/91 67/106/90
f 39/112/45 38/114/42 69/115/92 68/113/91
f 38/114/42 37/116/41 70/117/93 69/115/92
f 37/116/41 36/118/96 71/119/94 70/117/93
f 66/109/89 65/120/88 32/121/97 31/110/18
f 65/120/88 64/122/87 33/123/98 32/121/97
f 64/122/87 63/124/86 34/125/26 33/123/98
f 63/124/86 62/126/85 35/127/99 34/125/26
f 42/128/78 56/129/77 73/130/100 36/131/96 26/51/101 25/132/9
f 35/133/102 74/134/103 43/135/64 41/136/50 28/137/13 27/138/11
f 56/129/77 55/139/76 75/140/104 73/130/100
f 55/139/76 54/141/75 76/142/105 75/140/104
f 54/141/75 53/143/74 77/144/106 76/142/105
f 53/143/74 52/145/73 78/146/107 77/144/106
f 52/145/73 51/84/72 60/87/83 78/146/107
f 74/134/108 79/147/109 44/148/65 43/135/64
f 79/147/109 80/149/110 45/150/66 44/148/65
f 80/149/110 81/151/111 46/152/67 45/150/66
f 81/151/111 82/153/112 47/154/68 46/152/67
f 82/153/112 72/155/113 48/156/69 47/154/68
f 61/157/84 72/155/113 82/153/112 81/151/111 80/149/110 79/147/109 74/134/108 35/133/99 62/126/85
f 60/87/83 59/103/82 71/119/94 36/131/96 73/130/100 75/140/104 76/142/105 77/144/106 78/146/107
o Handvaten_koelkast
v 3.438152 13.121116 18.385891
v 3.586363 13.109540 17.871042
v 4.046863 13.120593 18.003290
v 3.898554 13.132168 18.518160
v 4.448077 13.042261 14.878452
v 4.438798 13.614777 14.862909
v 4.899224 13.625832 14.995275
v 4.908502 13.053316 15.010818
v 3.577085 13.682055 17.855499
v 3.428874 13.693631 18.370346
v 3.889276 13.704683 18.502617
v 4.037585 13.693109 17.987747
v 3.283201 22.682438 18.126312
v 3.431413 22.670860 17.611464
v 3.891913 22.681915 17.743711
v 3.743604 22.693489 18.258581
v 4.293127 22.603580 14.618874
v 4.283848 23.176094 14.603331
v 4.744274 23.187149 14.735697
v 4.753552 22.614635 14.751240
v 3.422135 23.243374 17.595921
v 3.273923 23.254951 18.110769
v 3.734326 23.266003 18.243038
v 3.882635 23.254429 17.728168
v 2.169490 13.090655 18.021217
v 2.317799 13.079081 17.506348
v 2.308520 13.651596 17.490803
v 2.160212 13.663171 18.005674
v 2.014540 22.651978 17.761639
v 2.162848 22.640402 17.246769
v 2.153570 23.212915 17.231226
v 2.005262 23.224491 17.746096
vt 0.000000 0.000000
vt 1.000000 0.000000
vt 1.000000 0.000000
vt 0.000000 0.000000
vt 1.000000 0.000000
vt 1.000000 1.000000
vt 1.000000 1.000000
vt 1.000000 0.000000
vt 1.000000 1.000000
vt 0.000000 1.000000
vt 0.000000 1.000000
vt 1.000000 1.000000
vt 0.000000 0.000000
vt 1.000000 0.000000
vt 1.000000 0.000000
vt 0.000000 0.000000
vt 1.000000 0.000000
vt 1.000000 1.000000
vt 1.000000 1.000000
vt 1.000000 0.000000
vt 1.000000 1.000000
vt 0.000000 1.000000
vt 0.000000 1.000000
vt 1.000000 1.000000
vt 1.000000 0.000000
vt 1.000000 1.000000
vt 0.000000 1.000000
vt 0.000000 0.000000
vt 0.000000 0.000000
vt 1.000000 0.000000
vt 1.000000 1.000000
vt 0.000000 1.000000
vt 1.000000 0.000000
vt 0.000000 1.000000
vt 0.000000 0.000000
vt 1.000000 0.000000
vt 1.000000 1.000000
vt 0.000000 1.000000
vt 0.000000 0.000000
vt 1.000000 1.000000
vt 1.000000 0.000000
vt 1.000000 1.000000
vt 0.000000 1.000000
vt 0.000000 0.000000
vt 0.000000 0.000000
vt 1.000000 0.000000
vt 1.000000 1.000000
vt 0.000000 1.000000
vt 1.000000 0.000000
vt 0.000000 1.000000
vt 0.000000 0.000000
vt 1.000000 0.000000
vt 1.000000 1.000000
vt 0.000000 1.000000
vt 0.000000 0.000000
vt 1.000000 1.000000
vn -0.1846 -0.6915 0.6984
vn -0.1916 -0.9175 -0.3484
vn 0.6909 -0.6904 0.2145
vn 0.4043 -0.5513 0.7298
vn -0.3856 -0.6029 -0.6984
vn -0.4043 0.5514 -0.7297
vn 0.7051 0.5780 -0.4109
vn 0.7238 -0.5763 -0.3795
vn -0.2209 0.8906 -0.3975
vn -0.2071 0.7220 0.6602
vn 0.3856 0.6029 0.6984
vn 0.6679 0.7231 0.1763
vn -0.2074 0.7220 0.6601
vn -0.1842 -0.6915 0.6985
vn 0.4044 -0.5513 0.7298
vn 0.3857 0.6029 0.6984
vn -0.4043 0.5513 -0.7298
vn 0.6680 0.7230 0.1761
vn 0.7051 0.5779 -0.4109
vn -0.4044 0.5514 -0.7297
vn 0.6679 0.7231 0.1764
vn 0.6908 -0.6904 0.2149
vn -0.1916 -0.9175 -0.3485
vn -0.3857 -0.6029 -0.6984
vn 0.7238 -0.5763 -0.3796
vn 0.6680 0.7231 0.1757
vn 0.6680 0.7231 0.1761
vn 0.6908 -0.6905 0.2147
vn -0.7051 -0.5779 0.4109
vn -0.3856 -0.6029 -0.6985
vn -0.1917 -0.9175 -0.3485
vn -0.2210 0.8906 -0.3975
vn -0.7238 0.5762 0.3795
vn 0.6909 -0.6905 0.2142
usemtl Default_OBJ.001
s off
f 83/158/114 84/159/115 85/160/116 86/161/117
f 87/162/118 88/163/119 89/164/120 90/165/121
f 91/166/122 92/167/123 93/168/124 94/169/125
f 92/167/126 83/158/127 86/161/128 93/168/129
f 84/159/115 91/166/122 88/163/130 87/162/118
f 91/166/122 94/169/131 89/164/132 88/163/133
f 94/169/134 85/160/116 90/165/121 89/164/120
f 85/160/135 84/159/136 87/162/137 90/165/138
f 95/170/114 96/171/115 97/172/116 98/173/117
f 99/174/118 100/175/119 101/176/120 102/177/121
f 103/178/122 104/179/123 105/180/124 106/181/139
f 104/179/126 95/170/127 98/173/128 105/180/129
f 96/171/115 103/178/122 100/175/130 99/174/118
f 103/178/122 106/181/140 101/176/132 100/175/133
f 106/181/134 97/172/116 102/177/121 101/176/120
f 97/172/141 96/171/136 99/174/137 102/177/138
s 1
f 83/182/127 107/183/142 108/184/143 84/185/144
f 92/186/123 91/187/145 109/188/130 110/189/146
f 86/161/117 85/160/147 94/169/131 93/168/124
f 84/185/144 108/190/143 109/188/130 91/191/145
f 108/192/143 107/193/142 110/194/146 109/195/130
f 107/196/142 83/182/127 92/197/123 110/189/146
f 95/198/127 111/199/142 112/200/143 96/201/115
f 104/202/123 103/203/145 113/204/130 114/205/146
f 98/173/117 97/172/147 106/181/131 105/180/124
f 96/201/115 112/206/143 113/204/130 103/207/145
f 112/208/143 111/209/142 114/210/146 113/211/130
f 111/212/142 95/198/127 104/213/123 114/205/146
