# Blender v2.91.2 OBJ File: ''
# www.blender.org
mtllib Koelkast_zonder_deur_Fixed.mtl
o Koelkast
v -10.027542 -26.209272 9.982578
v -10.027542 -26.209269 -10.205517
v 9.619358 -26.209269 -10.205517
v 9.619358 -26.209272 9.982578
v -9.027542 25.374426 9.982586
v 8.619358 25.374426 9.982586
v 8.619358 25.374430 -10.205509
v -9.027542 25.374430 -10.205509
v 9.619358 -10.662172 9.982582
v 9.619358 -9.113873 9.982582
v -10.027542 -9.113873 9.982582
v -10.027542 -10.662172 9.982582
v 9.619358 24.374430 -10.205509
v 9.619358 24.374426 9.982586
v 9.619358 15.620626 9.982586
v 9.619358 14.269426 9.982586
v 9.619358 8.717028 9.982582
v 9.619358 7.600027 9.982582
v 9.619358 0.361628 9.982582
v 9.619358 -0.952772 9.982582
v 9.619358 -18.534473 9.982578
v 9.619358 -20.120472 9.982578
v -10.027542 24.374430 -10.205509
v -9.935843 24.616133 -10.205509
v -9.814142 24.827730 -10.205509
v -9.662542 25.009432 -10.205509
v -9.480843 25.161131 -10.205509
v -9.269142 25.282732 -10.205509
v 8.861057 25.282732 -10.205509
v 9.072659 25.161131 -10.205509
v 9.254358 25.009432 -10.205509
v 9.406057 24.827730 -10.205509
v 9.527658 24.616133 -10.205509
v -10.027542 -20.120472 9.982578
v -10.027542 -18.534473 9.982578
v -10.027542 -0.952772 9.982582
v -10.027542 0.361628 9.982582
v -10.027542 7.600027 9.982582
v -10.027542 8.717028 9.982582
v -10.027542 14.269426 9.982586
v -10.027542 15.620626 9.982586
v -10.027542 24.374426 9.982586
v 9.019358 16.220629 -2.955914
v 9.019358 24.774427 -2.955914
v -9.427543 24.774427 -2.955914
v -9.427543 16.220629 -2.955914
v -9.427543 13.669428 -2.955914
v -9.427543 9.317026 -2.955914
v 9.019358 9.317026 -2.955914
v 9.019358 13.669428 -2.955914
v 9.019358 16.220629 9.982586
v -9.427543 16.220629 9.982586
v 9.527658 24.616129 9.982586
v 9.406057 24.827726 9.982586
v 9.254358 25.009428 9.982586
v 9.072659 25.161127 9.982586
v 8.861057 25.282728 9.982586
v -9.269142 25.282728 9.982586
v -9.480843 25.161127 9.982586
v -9.662542 25.009428 9.982586
v -9.814142 24.827726 9.982586
v -9.935843 24.616129 9.982586
v -9.427543 24.774427 9.982586
v 9.019358 24.774427 9.982586
v 9.019358 13.669428 9.982586
v 9.019358 9.317026 9.982586
v -9.427543 13.669428 9.982586
v -9.427543 9.317026 9.982586
v 9.019358 0.961630 -2.356915
v 9.019358 7.000029 -2.356915
v -9.427543 7.000029 -2.356915
v -9.427543 0.961630 -2.356915
v 9.019358 -8.513870 -2.356915
v 9.019358 -1.552771 -2.356915
v -9.427543 -1.552771 -2.356915
v -9.427543 -8.513870 -2.356915
v -9.427543 -11.262171 -2.356915
v -9.427543 -17.934471 -2.356918
v 9.019358 -17.934471 -2.356918
v 9.019358 -11.262171 -2.356915
v 9.019358 7.000029 9.982582
v 9.019358 0.961628 9.982582
v -9.427543 7.000029 9.982582
v -9.427543 0.961628 9.982582
v 9.019358 -1.552773 9.982582
v 9.019358 -8.513872 9.982582
v -9.427543 -1.552773 9.982582
v -9.427543 -8.513872 9.982582
v 9.019358 -11.262173 9.982582
v 9.019358 -17.934471 9.982578
v -9.427543 -11.262173 9.982582
v -9.427543 -17.934471 9.982578
vt 1.000000 0.000000
vt 1.000000 1.000000
vt 0.000000 1.000000
vt 0.000000 0.000000
vt 1.000000 0.000000
vt 1.000000 0.980600
vt 0.000000 0.982900
vt 0.000000 0.833300
vt 0.000000 0.666700
vt 0.000000 0.500000
vt 0.000000 0.464300
vt 0.000000 0.428600
vt 0.000000 0.357100
vt 0.000000 0.285700
vt 0.000000 0.214300
vt 0.000000 0.142900
vt 0.000000 0.071400
vt 0.000000 0.000000
vt 1.000000 0.000000
vt 1.000000 0.980600
vt 1.000000 0.987100
vt 1.000000 0.993500
vt 1.000000 1.000000
vt 0.983000 1.000000
vt 0.966100 1.000000
vt 0.949100 1.000000
vt 0.050900 1.000000
vt 0.033900 1.000000
vt 0.017000 1.000000
vt 0.000000 1.000000
vt 0.000000 0.993500
vt 0.000000 0.987100
vt 0.000000 0.980600
vt 0.000000 0.000000
vt 1.000000 0.071400
vt 1.000000 0.142900
vt 1.000000 0.214300
vt 1.000000 0.285700
vt 1.000000 0.357100
vt 1.000000 0.428600
vt 1.000000 0.464300
vt 1.000000 0.500000
vt 1.000000 0.666700
vt 1.000000 0.833300
vt 1.000000 0.982900
vt 0.000000 0.980600
vt 1.000000 0.833300
vt 1.000000 1.000000
vt 0.000000 1.000000
vt 0.000000 0.833300
vt 0.000000 0.666700
vt 0.000000 0.500000
vt 1.000000 0.500000
vt 1.000000 0.666700
vt 1.000000 0.428600
vt 1.000000 0.464300
vt 0.000000 0.464300
vt 0.000000 0.428600
vt 1.000000 0.285700
vt 1.000000 0.357100
vt 0.000000 0.357100
vt 0.000000 0.285700
vt 0.000000 0.214300
vt 0.000000 0.142900
vt 1.000000 0.142900
vt 1.000000 0.214300
vt 0.050900 0.000000
vt 0.949100 0.000000
vt 0.949100 1.000000
vt 0.050900 1.000000
vt 1.000000 0.214300
vt 1.000000 0.285700
vt 0.000000 0.285700
vt 0.000000 0.214300
vt 1.000000 0.666700
vt 1.000000 0.833300
vt 0.000000 0.833300
vt 0.000000 0.666700
vt 1.000000 0.833300
vt 0.000000 0.833300
vt 1.000000 0.982900
vt 1.000000 0.988600
vt 1.000000 0.994300
vt 1.000000 1.000000
vt 0.983000 1.000000
vt 0.966100 1.000000
vt 0.949100 1.000000
vt 0.050900 1.000000
vt 0.033900 1.000000
vt 0.017000 1.000000
vt 0.000000 1.000000
vt 0.000000 0.994300
vt 0.000000 0.988600
vt 0.000000 0.982900
vt 0.000000 1.000000
vt 1.000000 1.000000
vt 1.000000 0.500000
vt 1.000000 0.666700
vt 1.000000 0.500000
vt 0.000000 0.666700
vt 0.000000 0.500000
vt 0.000000 0.500000
vt 1.000000 0.357100
vt 1.000000 0.428600
vt 0.000000 0.428600
vt 0.000000 0.357100
vt 0.000000 0.071400
vt 0.000000 0.000000
vt 1.000000 0.000000
vt 1.000000 0.071400
vt 0.000000 0.142900
vt 1.000000 0.142900
vt 1.000000 0.464300
vt 0.000000 0.464300
vt 1.000000 0.464300
vt 1.000000 0.428600
vt 0.000000 0.464300
vt 0.000000 0.428600
vt 1.000000 0.357100
vt 1.000000 0.285700
vt 0.000000 0.357100
vt 0.000000 0.285700
vt 1.000000 0.214300
vt 1.000000 0.142900
vt 0.000000 0.214300
vt 0.000000 0.142900
vt 0.966100 0.000000
vt 0.966100 1.000000
vt 0.983000 0.000000
vt 0.983000 1.000000
vt 1.000000 0.000000
vt 1.000000 1.000000
vt 0.033900 1.000000
vt 0.033900 0.000000
vt 0.017000 1.000000
vt 0.017000 0.000000
vt 0.000000 1.000000
vt 0.000000 0.000000
vt 1.000000 0.987100
vt 0.000000 0.988600
vt 1.000000 0.993500
vt 0.000000 0.994300
vt 0.000000 1.000000
vt 1.000000 0.988600
vt 0.000000 0.987100
vt 1.000000 0.994300
vt 0.000000 0.993500
vt 1.000000 1.000000
vn -0.5774 -0.5774 0.5773
vn -0.5773 -0.5774 -0.5774
vn 0.5774 -0.5774 -0.5773
vn 0.5773 -0.5774 0.5774
vn 0.5774 -0.5774 0.5773
vn 0.5774 -0.5773 -0.5774
vn 0.7314 0.1340 -0.6687
vn 0.7314 0.1340 0.6687
vn 0.7071 0.0000 0.7071
vn 0.5773 -0.5774 -0.5774
vn -0.5774 -0.5773 -0.5774
vn -0.7314 0.1340 -0.6687
vn -0.6545 0.3098 -0.6896
vn -0.5953 0.4149 -0.6881
vn -0.5135 0.5135 -0.6875
vn -0.4149 0.5953 -0.6881
vn -0.3099 0.6546 -0.6896
vn -0.1340 0.7314 -0.6687
vn 0.1340 0.7314 -0.6687
vn 0.3099 0.6546 -0.6896
vn 0.4149 0.5953 -0.6881
vn 0.5135 0.5135 -0.6875
vn 0.5953 0.4149 -0.6881
vn 0.6546 0.3098 -0.6896
vn -0.5774 -0.5774 -0.5773
vn -0.5774 -0.5773 0.5774
vn -0.7071 -0.0000 0.7071
vn -0.7314 0.1340 0.6687
vn -0.5774 0.5773 0.5774
vn -0.5773 -0.5774 0.5774
vn 0.5774 -0.5773 0.5774
vn 0.5773 0.5774 0.5774
vn -0.1338 0.7314 0.6687
vn 0.1340 0.7314 0.6687
vn -0.1342 0.7313 -0.6687
vn -0.3015 0.3015 0.9045
vn 0.3015 0.3015 0.9045
vn 0.6546 0.3098 0.6896
vn 0.5953 0.4149 0.6881
vn 0.5135 0.5135 0.6875
vn 0.4149 0.5953 0.6881
vn 0.3099 0.6546 0.6896
vn -0.1340 0.7314 0.6687
vn -0.3099 0.6546 0.6896
vn -0.4149 0.5953 0.6881
vn -0.5135 0.5135 0.6875
vn -0.5953 0.4149 0.6881
vn -0.6545 0.3098 0.6896
vn 0.5773 -0.5773 -0.5774
vn -0.5773 -0.5773 -0.5774
vn -0.3015 -0.3015 0.9045
vn 0.3015 -0.3015 0.9045
vn 0.5774 0.5773 0.5774
vn -0.5773 0.5774 0.5774
vn 0.5774 0.5774 0.5773
vn -0.5774 0.5774 0.5773
vn 0.3100 0.6545 0.6896
vn 0.3098 0.6546 -0.6896
vn 0.5136 0.5134 0.6875
vn 0.5136 0.5134 -0.6875
vn -0.3098 0.6546 0.6896
vn 0.5954 0.4148 -0.6881
vn -0.6545 0.3099 0.6896
usemtl Default_OBJ
s off
f 1/1/1 2/2/2 3/3/3 4/4/4
f 4/4/5 3/5/6 13/6/7 14/7/8 15/8/9 16/9/9 17/10/9 18/11/9 19/12/9 20/13/9 10/14/9 9/15/9 21/16/9 22/17/9
f 3/18/10 2/19/11 23/20/12 24/21/13 25/22/14 26/23/15 27/24/16 28/25/17 8/26/18 7/27/19 29/28/20 30/29/21 31/30/22 32/31/23 33/32/24 13/33/7
f 2/34/25 1/1/26 34/35/27 35/36/27 12/37/27 11/38/27 36/39/27 37/40/27 38/41/27 39/42/27 40/43/27 41/44/27 42/45/28 23/46/12
f 43/47/29 44/48/30 45/49/31 46/50/32
f 47/51/31 48/52/32 49/53/29 50/54/30
f 69/55/29 70/56/30 71/57/31 72/58/32
f 73/59/29 74/60/30 75/61/31 76/62/32
f 77/63/31 78/64/32 79/65/29 80/66/30
s 1
f 5/67/33 6/68/34 7/69/19 8/70/35
f 9/71/9 10/72/9 11/73/27 12/74/27
f 16/75/9 15/76/9 41/77/27 40/78/27
f 41/77/27 15/76/9 51/79/36 52/80/37
f 15/76/9 14/81/8 53/82/38 54/83/39 55/84/40 56/85/41 57/86/42 6/87/34 5/88/43 58/89/44 59/90/45 60/91/46 61/92/47 62/93/48 42/94/28 41/77/27 52/80/37 63/95/49 64/96/50 51/79/36
f 17/97/9 16/75/9 65/98/51 66/99/36
f 16/75/9 40/78/27 67/100/52 65/98/51
f 40/78/27 39/101/27 68/102/37 67/100/52
f 39/101/27 17/97/9 66/99/36 68/102/37
f 64/96/2 63/95/3 45/49/4 44/48/1
f 63/95/6 52/80/37 46/50/53 45/49/5
f 52/80/37 51/79/36 43/47/54 46/50/55
f 51/79/36 64/96/25 44/48/26 43/47/56
f 66/99/36 65/98/51 50/54/26 49/53/56
f 65/98/51 67/100/52 47/51/4 50/54/1
f 67/100/52 68/102/37 48/52/53 47/51/5
f 68/102/37 66/99/36 49/53/54 48/52/55
f 20/103/9 19/104/9 37/105/27 36/106/27
f 34/107/27 1/108/30 4/109/31 22/110/9
f 35/111/27 34/107/27 22/110/9 21/112/9
f 18/113/9 17/97/9 39/101/27 38/114/27
f 19/104/9 18/113/9 81/115/51 82/116/36
f 18/113/9 38/114/27 83/117/52 81/115/51
f 38/114/27 37/105/27 84/118/37 83/117/52
f 37/105/27 19/104/9 82/116/36 84/118/37
f 10/72/9 20/103/9 85/119/51 86/120/36
f 20/103/9 36/106/27 87/121/52 85/119/51
f 36/106/27 11/73/27 88/122/37 87/121/52
f 11/73/27 10/72/9 86/120/36 88/122/37
f 21/112/9 9/71/9 89/123/51 90/124/36
f 9/71/9 12/74/27 91/125/52 89/123/51
f 12/74/27 35/111/27 92/126/37 91/125/52
f 35/111/27 21/112/9 90/124/36 92/126/37
f 82/116/36 81/115/51 70/56/26 69/55/56
f 81/115/51 83/117/52 71/57/4 70/56/1
f 83/117/52 84/118/37 72/58/53 71/57/5
f 84/118/37 82/116/36 69/55/54 72/58/55
f 86/120/36 85/119/51 74/60/26 73/59/56
f 85/119/51 87/121/52 75/61/4 74/60/1
f 87/121/52 88/122/37 76/62/53 75/61/5
f 88/122/37 86/120/36 73/59/54 76/62/55
f 90/124/36 89/123/51 80/66/26 79/65/56
f 89/123/51 91/125/52 77/63/4 80/66/1
f 91/125/52 92/126/37 78/64/53 77/63/5
f 92/126/37 90/124/36 79/65/54 78/64/55
f 7/69/19 6/68/34 57/127/57 29/128/58
f 29/128/58 57/127/57 56/129/41 30/130/21
f 30/130/21 56/129/41 55/131/59 31/132/60
f 5/67/33 8/70/35 28/133/17 58/134/61
f 58/134/61 28/133/17 27/135/16 59/136/45
f 59/136/45 27/135/16 26/137/15 60/138/46
f 14/7/8 13/6/7 33/139/24 53/140/38
f 53/140/38 33/139/24 32/141/62 54/142/39
f 54/142/39 32/141/62 31/132/60 55/143/59
f 23/46/12 42/45/28 62/144/63 24/145/13
f 24/145/13 62/144/63 61/146/47 25/147/14
f 25/147/14 61/146/47 60/148/46 26/137/15
