# Blender v2.91.2 OBJ File: ''
# www.blender.org
mtllib Onder_kussen_sofa_stoel_Fixed.mtl
o Kussen_bodem_stoel.002
v -9.305626 -1.877613 9.641878
v -9.685127 -1.877613 8.675978
v -9.685127 -1.877610 -8.523323
v -9.305626 -1.877610 -9.489223
v 9.668373 -1.877610 -9.489223
v 10.047974 -1.877610 -8.523323
v 10.047974 -1.877613 8.675978
v 9.668373 -1.877613 9.641878
v 2.078773 0.652888 4.859077
v 2.078773 0.242490 0.076275
v -1.716026 0.798089 0.076275
v -1.716026 0.652888 4.859077
v 9.668373 -1.121212 9.990078
v 9.668373 -0.506213 10.017677
v -9.305626 -0.506213 10.017677
v -9.305626 -1.121212 9.990078
v 10.047974 0.391690 -8.523323
v 10.047974 0.391689 -4.223526
v 10.047974 0.748189 0.076275
v 10.047974 0.748188 4.376175
v 10.047974 0.391687 8.675978
v -9.305626 0.391690 -9.489223
v -5.510826 0.391690 -9.489223
v -1.716026 0.391690 -9.489223
v 2.078773 0.391690 -9.489223
v 5.873573 0.391690 -9.489223
v 9.668373 0.391690 -9.489223
v -9.685127 0.391687 8.675978
v -9.685127 0.630089 4.376175
v -9.685127 0.630090 0.076275
v -9.685127 0.391689 -4.223526
v -9.685127 0.391690 -8.523323
v 9.668373 0.391687 9.641878
v -9.305626 0.391687 9.641878
v 5.873573 0.748189 0.076275
v 5.873573 0.748188 4.859077
v -5.510826 0.630090 0.076275
v -5.510826 0.391689 -4.706425
v -1.716026 1.265389 -4.706425
v 2.078773 0.798089 -4.706425
v -1.716026 0.536788 9.809477
v 2.078773 0.536788 9.809477
v 5.873573 0.391689 -4.706425
v 5.873573 0.391687 9.641878
v -5.510826 0.391687 9.641878
v -5.510826 0.283588 4.859077
vt 0.980800 0.000000
vt 1.000000 0.050500
vt 1.000000 0.949500
vt 0.980800 1.000000
vt 0.019200 1.000000
vt 0.000000 0.949500
vt 0.000000 0.050500
vt 0.019200 0.000000
vt 0.596200 0.250000
vt 0.596200 0.500000
vt 0.403800 0.500000
vt 0.403800 0.250000
vt 0.980800 0.333300
vt 0.980800 0.666700
vt 0.019200 0.666700
vt 0.019200 0.333300
vt 0.050500 0.000000
vt 0.949500 0.000000
vt 0.949500 1.000000
vt 0.724800 1.000000
vt 0.500000 1.000000
vt 0.275200 1.000000
vt 0.050500 1.000000
vt 0.019200 0.000000
vt 0.980800 0.000000
vt 0.980800 1.000000
vt 0.788500 1.000000
vt 0.596200 1.000000
vt 0.403800 1.000000
vt 0.211500 1.000000
vt 0.019200 1.000000
vt 0.050500 0.000000
vt 0.949500 0.000000
vt 0.949500 1.000000
vt 0.724800 1.000000
vt 0.500000 1.000000
vt 0.275200 1.000000
vt 0.050500 1.000000
vt -0.436200 0.000000
vt -0.436200 1.000000
vt -0.436200 0.666700
vt -0.436200 0.333300
vt 1.436200 1.000000
vt 1.436200 -0.000000
vt 1.436200 0.333300
vt 1.436200 0.666700
vt -1.145100 0.000000
vt -1.145100 1.000000
vt -0.436200 0.000000
vt -0.436200 1.000000
vt 1.000000 0.275200
vt 1.000000 0.500000
vt 0.788500 0.500000
vt 0.788500 0.250000
vt 0.000000 0.724800
vt 0.000000 0.500000
vt 0.211500 0.500000
vt 0.211500 0.750000
vt 0.403800 0.750000
vt 0.596200 0.750000
vt 0.596200 1.000000
vt 0.403800 1.000000
vt 0.403800 0.000000
vt 0.596200 0.000000
vt 1.000000 0.724800
vt 1.000000 0.949500
vt 0.980800 1.000000
vt 0.788500 1.000000
vt 0.788500 0.750000
vt 0.788500 0.000000
vt 0.980800 0.000000
vt 1.000000 0.050500
vt 0.000000 0.275200
vt 0.000000 0.050500
vt 0.019200 0.000000
vt 0.211500 0.000000
vt 0.211500 0.250000
vt 0.211500 1.000000
vt 0.019200 1.000000
vt 0.000000 0.949500
vt 0.980800 1.000000
vt 0.788500 1.000000
vt 0.596200 1.000000
vt 0.403800 1.000000
vt 0.211500 1.000000
vt 0.019200 1.000000
vt 0.019200 0.000000
vt 0.980800 0.000000
vn -0.2735 -0.7703 0.5760
vn -0.7180 -0.6310 0.2938
vn -0.7180 -0.6310 -0.2938
vn -0.3003 -0.6296 -0.7165
vn 0.3003 -0.6296 -0.7165
vn 0.7180 -0.6310 -0.2938
vn 0.7180 -0.6310 0.2938
vn 0.2735 -0.7703 0.5760
vn -0.0050 0.9995 -0.0311
vn 0.0026 0.9999 0.0150
vn 0.0203 0.9978 0.0639
vn -0.0194 0.9994 0.0269
vn 0.6663 -0.1759 0.7246
vn 0.6610 0.1313 0.7388
vn -0.6610 0.1311 0.7388
vn -0.6663 -0.1759 0.7246
vn 0.7180 0.6310 -0.2938
vn -0.6973 0.7162 -0.0305
vn 0.6979 0.7156 -0.0296
vn 0.6986 0.7150 0.0287
vn 0.7427 0.5861 0.3239
vn -0.3003 0.6296 -0.7165
vn -0.0000 0.7071 -0.7071
vn -0.0000 0.6404 -0.7680
vn -0.0000 0.6765 -0.7364
vn 0.3003 0.6296 -0.7165
vn -0.7347 0.6012 0.3143
vn -0.6895 0.7241 0.0195
vn -0.7010 0.7129 -0.0197
vn 0.7004 0.7134 -0.0203
vn -0.7180 0.6310 -0.2938
vn 0.2766 0.7595 0.5888
vn 0.6610 0.1312 0.7388
vn -0.2766 0.7595 0.5887
vn -0.6610 0.1312 0.7388
vn -0.0266 0.9990 -0.0371
vn -0.0041 0.9993 0.0377
vn 0.7005 0.7134 -0.0203
vn -0.0088 0.9999 0.0113
vn -0.0464 0.9986 -0.0245
vn -0.0211 0.9989 -0.0414
vn 0.0460 0.9988 0.0154
vn -0.0108 0.3405 0.9402
vn 0.0108 0.3405 0.9402
vn -0.6972 0.7162 -0.0305
vn 0.0222 0.9991 -0.0366
vn 0.0045 0.9502 -0.3117
vn 0.2766 0.7595 0.5887
vn -0.6895 0.7240 0.0195
vn -0.0040 0.9338 -0.3577
vn -0.0034 0.9997 0.0241
vn 0.2767 0.7595 0.5887
vn -0.2767 0.7595 0.5887
usemtl Default_OBJ.003
s 1
f 1/1/1 2/2/2 3/3/3 4/4/4 5/5/5 6/6/6 7/7/7 8/8/8
f 9/9/9 10/10/10 11/11/11 12/12/12
f 13/13/13 14/14/14 15/15/15 16/16/16
f 7/17/7 6/18/6 17/19/17 18/20/18 19/21/19 20/22/20 21/23/21
f 5/24/5 4/25/4 22/26/22 23/27/23 24/28/24 25/29/25 26/30/23 27/31/26
f 3/32/3 2/33/2 28/34/27 29/35/28 30/36/29 31/37/30 32/38/31
f 8/39/8 7/17/7 21/23/21 33/40/32 14/41/33 13/42/13
f 34/43/34 28/34/27 2/33/2 1/44/1 16/45/16 15/46/35
f 6/47/6 5/24/5 27/31/26 17/48/17
f 4/49/4 3/32/3 32/38/31 22/50/22
f 20/51/20 19/52/19 35/53/36 36/54/37
f 36/54/37 35/53/36 10/10/10 9/9/9
f 31/55/38 30/56/29 37/57/39 38/58/40
f 38/58/40 37/57/39 11/11/11 39/59/41
f 40/60/42 25/61/25 24/62/24 39/59/41
f 10/10/10 40/60/42 39/59/41 11/11/11
f 12/12/12 41/63/43 42/64/44 9/9/9
f 18/65/45 17/66/17 27/67/26 26/68/23 43/69/46
f 19/52/19 18/65/45 43/69/46 35/53/36
f 36/54/37 44/70/47 33/71/48 21/72/21 20/51/20
f 43/69/46 26/68/23 25/61/25 40/60/42
f 35/53/36 43/69/46 40/60/42 10/10/10
f 9/9/9 42/64/44 44/70/47 36/54/37
f 29/73/49 28/74/27 34/75/34 45/76/50 46/77/51
f 30/56/29 29/73/49 46/77/51 37/57/39
f 38/58/40 23/78/23 22/79/22 32/80/31 31/55/38
f 46/77/51 45/76/50 41/63/43 12/12/12
f 37/57/39 46/77/51 12/12/12 11/11/11
f 39/59/41 24/62/24 23/78/23 38/58/40
f 14/14/14 33/81/52 44/82/47 42/83/44 41/84/43 45/85/50 34/86/53 15/15/15
f 16/16/16 1/87/1 8/88/8 13/13/13
